%TF.GenerationSoftware,KiCad,Pcbnew,9.0.6*%
%TF.CreationDate,2026-01-16T16:59:01+03:00*%
%TF.ProjectId,RegulatedPowerSupply3.3V5V,52656775-6c61-4746-9564-506f77657253,rev?*%
%TF.SameCoordinates,Original*%
%TF.FileFunction,Legend,Top*%
%TF.FilePolarity,Positive*%
%FSLAX46Y46*%
G04 Gerber Fmt 4.6, Leading zero omitted, Abs format (unit mm)*
G04 Created by KiCad (PCBNEW 9.0.6) date 2026-01-16 16:59:01*
%MOMM*%
%LPD*%
G01*
G04 APERTURE LIST*
%ADD10C,0.150000*%
%ADD11C,0.120000*%
G04 APERTURE END LIST*
D10*
X127804761Y-94004819D02*
X127804761Y-93004819D01*
X127804761Y-93004819D02*
X128138094Y-93719104D01*
X128138094Y-93719104D02*
X128471427Y-93004819D01*
X128471427Y-93004819D02*
X128471427Y-94004819D01*
X128804761Y-93004819D02*
X129376189Y-93004819D01*
X129090475Y-94004819D02*
X129090475Y-93004819D01*
X129614285Y-93004819D02*
X130233332Y-93004819D01*
X130233332Y-93004819D02*
X129899999Y-93385771D01*
X129899999Y-93385771D02*
X130042856Y-93385771D01*
X130042856Y-93385771D02*
X130138094Y-93433390D01*
X130138094Y-93433390D02*
X130185713Y-93481009D01*
X130185713Y-93481009D02*
X130233332Y-93576247D01*
X130233332Y-93576247D02*
X130233332Y-93814342D01*
X130233332Y-93814342D02*
X130185713Y-93909580D01*
X130185713Y-93909580D02*
X130138094Y-93957200D01*
X130138094Y-93957200D02*
X130042856Y-94004819D01*
X130042856Y-94004819D02*
X129757142Y-94004819D01*
X129757142Y-94004819D02*
X129661904Y-93957200D01*
X129661904Y-93957200D02*
X129614285Y-93909580D01*
X131090475Y-93004819D02*
X130899999Y-93004819D01*
X130899999Y-93004819D02*
X130804761Y-93052438D01*
X130804761Y-93052438D02*
X130757142Y-93100057D01*
X130757142Y-93100057D02*
X130661904Y-93242914D01*
X130661904Y-93242914D02*
X130614285Y-93433390D01*
X130614285Y-93433390D02*
X130614285Y-93814342D01*
X130614285Y-93814342D02*
X130661904Y-93909580D01*
X130661904Y-93909580D02*
X130709523Y-93957200D01*
X130709523Y-93957200D02*
X130804761Y-94004819D01*
X130804761Y-94004819D02*
X130995237Y-94004819D01*
X130995237Y-94004819D02*
X131090475Y-93957200D01*
X131090475Y-93957200D02*
X131138094Y-93909580D01*
X131138094Y-93909580D02*
X131185713Y-93814342D01*
X131185713Y-93814342D02*
X131185713Y-93576247D01*
X131185713Y-93576247D02*
X131138094Y-93481009D01*
X131138094Y-93481009D02*
X131090475Y-93433390D01*
X131090475Y-93433390D02*
X130995237Y-93385771D01*
X130995237Y-93385771D02*
X130804761Y-93385771D01*
X130804761Y-93385771D02*
X130709523Y-93433390D01*
X130709523Y-93433390D02*
X130661904Y-93481009D01*
X130661904Y-93481009D02*
X130614285Y-93576247D01*
X131804761Y-93004819D02*
X131899999Y-93004819D01*
X131899999Y-93004819D02*
X131995237Y-93052438D01*
X131995237Y-93052438D02*
X132042856Y-93100057D01*
X132042856Y-93100057D02*
X132090475Y-93195295D01*
X132090475Y-93195295D02*
X132138094Y-93385771D01*
X132138094Y-93385771D02*
X132138094Y-93623866D01*
X132138094Y-93623866D02*
X132090475Y-93814342D01*
X132090475Y-93814342D02*
X132042856Y-93909580D01*
X132042856Y-93909580D02*
X131995237Y-93957200D01*
X131995237Y-93957200D02*
X131899999Y-94004819D01*
X131899999Y-94004819D02*
X131804761Y-94004819D01*
X131804761Y-94004819D02*
X131709523Y-93957200D01*
X131709523Y-93957200D02*
X131661904Y-93909580D01*
X131661904Y-93909580D02*
X131614285Y-93814342D01*
X131614285Y-93814342D02*
X131566666Y-93623866D01*
X131566666Y-93623866D02*
X131566666Y-93385771D01*
X131566666Y-93385771D02*
X131614285Y-93195295D01*
X131614285Y-93195295D02*
X131661904Y-93100057D01*
X131661904Y-93100057D02*
X131709523Y-93052438D01*
X131709523Y-93052438D02*
X131804761Y-93004819D01*
X132709523Y-93433390D02*
X132614285Y-93385771D01*
X132614285Y-93385771D02*
X132566666Y-93338152D01*
X132566666Y-93338152D02*
X132519047Y-93242914D01*
X132519047Y-93242914D02*
X132519047Y-93195295D01*
X132519047Y-93195295D02*
X132566666Y-93100057D01*
X132566666Y-93100057D02*
X132614285Y-93052438D01*
X132614285Y-93052438D02*
X132709523Y-93004819D01*
X132709523Y-93004819D02*
X132899999Y-93004819D01*
X132899999Y-93004819D02*
X132995237Y-93052438D01*
X132995237Y-93052438D02*
X133042856Y-93100057D01*
X133042856Y-93100057D02*
X133090475Y-93195295D01*
X133090475Y-93195295D02*
X133090475Y-93242914D01*
X133090475Y-93242914D02*
X133042856Y-93338152D01*
X133042856Y-93338152D02*
X132995237Y-93385771D01*
X132995237Y-93385771D02*
X132899999Y-93433390D01*
X132899999Y-93433390D02*
X132709523Y-93433390D01*
X132709523Y-93433390D02*
X132614285Y-93481009D01*
X132614285Y-93481009D02*
X132566666Y-93528628D01*
X132566666Y-93528628D02*
X132519047Y-93623866D01*
X132519047Y-93623866D02*
X132519047Y-93814342D01*
X132519047Y-93814342D02*
X132566666Y-93909580D01*
X132566666Y-93909580D02*
X132614285Y-93957200D01*
X132614285Y-93957200D02*
X132709523Y-94004819D01*
X132709523Y-94004819D02*
X132899999Y-94004819D01*
X132899999Y-94004819D02*
X132995237Y-93957200D01*
X132995237Y-93957200D02*
X133042856Y-93909580D01*
X133042856Y-93909580D02*
X133090475Y-93814342D01*
X133090475Y-93814342D02*
X133090475Y-93623866D01*
X133090475Y-93623866D02*
X133042856Y-93528628D01*
X133042856Y-93528628D02*
X132995237Y-93481009D01*
X132995237Y-93481009D02*
X132899999Y-93433390D01*
X133280952Y-94100057D02*
X134042856Y-94100057D01*
X134280952Y-94004819D02*
X134280952Y-93004819D01*
X134280952Y-93004819D02*
X134614285Y-93719104D01*
X134614285Y-93719104D02*
X134947618Y-93004819D01*
X134947618Y-93004819D02*
X134947618Y-94004819D01*
X135566666Y-94004819D02*
X135471428Y-93957200D01*
X135471428Y-93957200D02*
X135423809Y-93909580D01*
X135423809Y-93909580D02*
X135376190Y-93814342D01*
X135376190Y-93814342D02*
X135376190Y-93528628D01*
X135376190Y-93528628D02*
X135423809Y-93433390D01*
X135423809Y-93433390D02*
X135471428Y-93385771D01*
X135471428Y-93385771D02*
X135566666Y-93338152D01*
X135566666Y-93338152D02*
X135709523Y-93338152D01*
X135709523Y-93338152D02*
X135804761Y-93385771D01*
X135804761Y-93385771D02*
X135852380Y-93433390D01*
X135852380Y-93433390D02*
X135899999Y-93528628D01*
X135899999Y-93528628D02*
X135899999Y-93814342D01*
X135899999Y-93814342D02*
X135852380Y-93909580D01*
X135852380Y-93909580D02*
X135804761Y-93957200D01*
X135804761Y-93957200D02*
X135709523Y-94004819D01*
X135709523Y-94004819D02*
X135566666Y-94004819D01*
X136757142Y-94004819D02*
X136757142Y-93004819D01*
X136757142Y-93957200D02*
X136661904Y-94004819D01*
X136661904Y-94004819D02*
X136471428Y-94004819D01*
X136471428Y-94004819D02*
X136376190Y-93957200D01*
X136376190Y-93957200D02*
X136328571Y-93909580D01*
X136328571Y-93909580D02*
X136280952Y-93814342D01*
X136280952Y-93814342D02*
X136280952Y-93528628D01*
X136280952Y-93528628D02*
X136328571Y-93433390D01*
X136328571Y-93433390D02*
X136376190Y-93385771D01*
X136376190Y-93385771D02*
X136471428Y-93338152D01*
X136471428Y-93338152D02*
X136661904Y-93338152D01*
X136661904Y-93338152D02*
X136757142Y-93385771D01*
X137661904Y-93338152D02*
X137661904Y-94004819D01*
X137233333Y-93338152D02*
X137233333Y-93861961D01*
X137233333Y-93861961D02*
X137280952Y-93957200D01*
X137280952Y-93957200D02*
X137376190Y-94004819D01*
X137376190Y-94004819D02*
X137519047Y-94004819D01*
X137519047Y-94004819D02*
X137614285Y-93957200D01*
X137614285Y-93957200D02*
X137661904Y-93909580D01*
X138280952Y-94004819D02*
X138185714Y-93957200D01*
X138185714Y-93957200D02*
X138138095Y-93861961D01*
X138138095Y-93861961D02*
X138138095Y-93004819D01*
X139042857Y-93957200D02*
X138947619Y-94004819D01*
X138947619Y-94004819D02*
X138757143Y-94004819D01*
X138757143Y-94004819D02*
X138661905Y-93957200D01*
X138661905Y-93957200D02*
X138614286Y-93861961D01*
X138614286Y-93861961D02*
X138614286Y-93481009D01*
X138614286Y-93481009D02*
X138661905Y-93385771D01*
X138661905Y-93385771D02*
X138757143Y-93338152D01*
X138757143Y-93338152D02*
X138947619Y-93338152D01*
X138947619Y-93338152D02*
X139042857Y-93385771D01*
X139042857Y-93385771D02*
X139090476Y-93481009D01*
X139090476Y-93481009D02*
X139090476Y-93576247D01*
X139090476Y-93576247D02*
X138614286Y-93671485D01*
X140042857Y-94004819D02*
X139471429Y-94004819D01*
X139757143Y-94004819D02*
X139757143Y-93004819D01*
X139757143Y-93004819D02*
X139661905Y-93147676D01*
X139661905Y-93147676D02*
X139566667Y-93242914D01*
X139566667Y-93242914D02*
X139471429Y-93290533D01*
X159915952Y-73439819D02*
X160106428Y-73439819D01*
X160106428Y-73439819D02*
X160201666Y-73487438D01*
X160201666Y-73487438D02*
X160296904Y-73582676D01*
X160296904Y-73582676D02*
X160344523Y-73773152D01*
X160344523Y-73773152D02*
X160344523Y-74106485D01*
X160344523Y-74106485D02*
X160296904Y-74296961D01*
X160296904Y-74296961D02*
X160201666Y-74392200D01*
X160201666Y-74392200D02*
X160106428Y-74439819D01*
X160106428Y-74439819D02*
X159915952Y-74439819D01*
X159915952Y-74439819D02*
X159820714Y-74392200D01*
X159820714Y-74392200D02*
X159725476Y-74296961D01*
X159725476Y-74296961D02*
X159677857Y-74106485D01*
X159677857Y-74106485D02*
X159677857Y-73773152D01*
X159677857Y-73773152D02*
X159725476Y-73582676D01*
X159725476Y-73582676D02*
X159820714Y-73487438D01*
X159820714Y-73487438D02*
X159915952Y-73439819D01*
X160773095Y-73773152D02*
X160773095Y-74439819D01*
X160773095Y-73868390D02*
X160820714Y-73820771D01*
X160820714Y-73820771D02*
X160915952Y-73773152D01*
X160915952Y-73773152D02*
X161058809Y-73773152D01*
X161058809Y-73773152D02*
X161154047Y-73820771D01*
X161154047Y-73820771D02*
X161201666Y-73916009D01*
X161201666Y-73916009D02*
X161201666Y-74439819D01*
X161868333Y-73439819D02*
X162058809Y-73439819D01*
X162058809Y-73439819D02*
X162154047Y-73487438D01*
X162154047Y-73487438D02*
X162249285Y-73582676D01*
X162249285Y-73582676D02*
X162296904Y-73773152D01*
X162296904Y-73773152D02*
X162296904Y-74106485D01*
X162296904Y-74106485D02*
X162249285Y-74296961D01*
X162249285Y-74296961D02*
X162154047Y-74392200D01*
X162154047Y-74392200D02*
X162058809Y-74439819D01*
X162058809Y-74439819D02*
X161868333Y-74439819D01*
X161868333Y-74439819D02*
X161773095Y-74392200D01*
X161773095Y-74392200D02*
X161677857Y-74296961D01*
X161677857Y-74296961D02*
X161630238Y-74106485D01*
X161630238Y-74106485D02*
X161630238Y-73773152D01*
X161630238Y-73773152D02*
X161677857Y-73582676D01*
X161677857Y-73582676D02*
X161773095Y-73487438D01*
X161773095Y-73487438D02*
X161868333Y-73439819D01*
X162582619Y-73773152D02*
X162963571Y-73773152D01*
X162725476Y-74439819D02*
X162725476Y-73582676D01*
X162725476Y-73582676D02*
X162773095Y-73487438D01*
X162773095Y-73487438D02*
X162868333Y-73439819D01*
X162868333Y-73439819D02*
X162963571Y-73439819D01*
X163154048Y-73773152D02*
X163535000Y-73773152D01*
X163296905Y-74439819D02*
X163296905Y-73582676D01*
X163296905Y-73582676D02*
X163344524Y-73487438D01*
X163344524Y-73487438D02*
X163439762Y-73439819D01*
X163439762Y-73439819D02*
X163535000Y-73439819D01*
X163630239Y-74535057D02*
X164392143Y-74535057D01*
X164582620Y-74392200D02*
X164725477Y-74439819D01*
X164725477Y-74439819D02*
X164963572Y-74439819D01*
X164963572Y-74439819D02*
X165058810Y-74392200D01*
X165058810Y-74392200D02*
X165106429Y-74344580D01*
X165106429Y-74344580D02*
X165154048Y-74249342D01*
X165154048Y-74249342D02*
X165154048Y-74154104D01*
X165154048Y-74154104D02*
X165106429Y-74058866D01*
X165106429Y-74058866D02*
X165058810Y-74011247D01*
X165058810Y-74011247D02*
X164963572Y-73963628D01*
X164963572Y-73963628D02*
X164773096Y-73916009D01*
X164773096Y-73916009D02*
X164677858Y-73868390D01*
X164677858Y-73868390D02*
X164630239Y-73820771D01*
X164630239Y-73820771D02*
X164582620Y-73725533D01*
X164582620Y-73725533D02*
X164582620Y-73630295D01*
X164582620Y-73630295D02*
X164630239Y-73535057D01*
X164630239Y-73535057D02*
X164677858Y-73487438D01*
X164677858Y-73487438D02*
X164773096Y-73439819D01*
X164773096Y-73439819D02*
X165011191Y-73439819D01*
X165011191Y-73439819D02*
X165154048Y-73487438D01*
X165725477Y-74439819D02*
X165630239Y-74392200D01*
X165630239Y-74392200D02*
X165582620Y-74296961D01*
X165582620Y-74296961D02*
X165582620Y-73439819D01*
X166106430Y-74439819D02*
X166106430Y-73773152D01*
X166106430Y-73439819D02*
X166058811Y-73487438D01*
X166058811Y-73487438D02*
X166106430Y-73535057D01*
X166106430Y-73535057D02*
X166154049Y-73487438D01*
X166154049Y-73487438D02*
X166106430Y-73439819D01*
X166106430Y-73439819D02*
X166106430Y-73535057D01*
X167011191Y-74439819D02*
X167011191Y-73439819D01*
X167011191Y-74392200D02*
X166915953Y-74439819D01*
X166915953Y-74439819D02*
X166725477Y-74439819D01*
X166725477Y-74439819D02*
X166630239Y-74392200D01*
X166630239Y-74392200D02*
X166582620Y-74344580D01*
X166582620Y-74344580D02*
X166535001Y-74249342D01*
X166535001Y-74249342D02*
X166535001Y-73963628D01*
X166535001Y-73963628D02*
X166582620Y-73868390D01*
X166582620Y-73868390D02*
X166630239Y-73820771D01*
X166630239Y-73820771D02*
X166725477Y-73773152D01*
X166725477Y-73773152D02*
X166915953Y-73773152D01*
X166915953Y-73773152D02*
X167011191Y-73820771D01*
X167487382Y-74439819D02*
X167487382Y-73773152D01*
X167487382Y-73439819D02*
X167439763Y-73487438D01*
X167439763Y-73487438D02*
X167487382Y-73535057D01*
X167487382Y-73535057D02*
X167535001Y-73487438D01*
X167535001Y-73487438D02*
X167487382Y-73439819D01*
X167487382Y-73439819D02*
X167487382Y-73535057D01*
X167963572Y-73773152D02*
X167963572Y-74439819D01*
X167963572Y-73868390D02*
X168011191Y-73820771D01*
X168011191Y-73820771D02*
X168106429Y-73773152D01*
X168106429Y-73773152D02*
X168249286Y-73773152D01*
X168249286Y-73773152D02*
X168344524Y-73820771D01*
X168344524Y-73820771D02*
X168392143Y-73916009D01*
X168392143Y-73916009D02*
X168392143Y-74439819D01*
X169296905Y-73773152D02*
X169296905Y-74582676D01*
X169296905Y-74582676D02*
X169249286Y-74677914D01*
X169249286Y-74677914D02*
X169201667Y-74725533D01*
X169201667Y-74725533D02*
X169106429Y-74773152D01*
X169106429Y-74773152D02*
X168963572Y-74773152D01*
X168963572Y-74773152D02*
X168868334Y-74725533D01*
X169296905Y-74392200D02*
X169201667Y-74439819D01*
X169201667Y-74439819D02*
X169011191Y-74439819D01*
X169011191Y-74439819D02*
X168915953Y-74392200D01*
X168915953Y-74392200D02*
X168868334Y-74344580D01*
X168868334Y-74344580D02*
X168820715Y-74249342D01*
X168820715Y-74249342D02*
X168820715Y-73963628D01*
X168820715Y-73963628D02*
X168868334Y-73868390D01*
X168868334Y-73868390D02*
X168915953Y-73820771D01*
X168915953Y-73820771D02*
X169011191Y-73773152D01*
X169011191Y-73773152D02*
X169201667Y-73773152D01*
X169201667Y-73773152D02*
X169296905Y-73820771D01*
X169725477Y-74392200D02*
X169868334Y-74439819D01*
X169868334Y-74439819D02*
X170106429Y-74439819D01*
X170106429Y-74439819D02*
X170201667Y-74392200D01*
X170201667Y-74392200D02*
X170249286Y-74344580D01*
X170249286Y-74344580D02*
X170296905Y-74249342D01*
X170296905Y-74249342D02*
X170296905Y-74154104D01*
X170296905Y-74154104D02*
X170249286Y-74058866D01*
X170249286Y-74058866D02*
X170201667Y-74011247D01*
X170201667Y-74011247D02*
X170106429Y-73963628D01*
X170106429Y-73963628D02*
X169915953Y-73916009D01*
X169915953Y-73916009D02*
X169820715Y-73868390D01*
X169820715Y-73868390D02*
X169773096Y-73820771D01*
X169773096Y-73820771D02*
X169725477Y-73725533D01*
X169725477Y-73725533D02*
X169725477Y-73630295D01*
X169725477Y-73630295D02*
X169773096Y-73535057D01*
X169773096Y-73535057D02*
X169820715Y-73487438D01*
X169820715Y-73487438D02*
X169915953Y-73439819D01*
X169915953Y-73439819D02*
X170154048Y-73439819D01*
X170154048Y-73439819D02*
X170296905Y-73487438D01*
X170630239Y-73439819D02*
X170868334Y-74439819D01*
X170868334Y-74439819D02*
X171058810Y-73725533D01*
X171058810Y-73725533D02*
X171249286Y-74439819D01*
X171249286Y-74439819D02*
X171487382Y-73439819D01*
X172392143Y-74439819D02*
X171820715Y-74439819D01*
X172106429Y-74439819D02*
X172106429Y-73439819D01*
X172106429Y-73439819D02*
X172011191Y-73582676D01*
X172011191Y-73582676D02*
X171915953Y-73677914D01*
X171915953Y-73677914D02*
X171820715Y-73725533D01*
X172941667Y-73209819D02*
X172941667Y-72209819D01*
X172941667Y-72209819D02*
X173322619Y-72209819D01*
X173322619Y-72209819D02*
X173417857Y-72257438D01*
X173417857Y-72257438D02*
X173465476Y-72305057D01*
X173465476Y-72305057D02*
X173513095Y-72400295D01*
X173513095Y-72400295D02*
X173513095Y-72543152D01*
X173513095Y-72543152D02*
X173465476Y-72638390D01*
X173465476Y-72638390D02*
X173417857Y-72686009D01*
X173417857Y-72686009D02*
X173322619Y-72733628D01*
X173322619Y-72733628D02*
X172941667Y-72733628D01*
X173846429Y-72209819D02*
X174084524Y-73209819D01*
X174084524Y-73209819D02*
X174275000Y-72495533D01*
X174275000Y-72495533D02*
X174465476Y-73209819D01*
X174465476Y-73209819D02*
X174703572Y-72209819D01*
X175655952Y-73209819D02*
X175322619Y-72733628D01*
X175084524Y-73209819D02*
X175084524Y-72209819D01*
X175084524Y-72209819D02*
X175465476Y-72209819D01*
X175465476Y-72209819D02*
X175560714Y-72257438D01*
X175560714Y-72257438D02*
X175608333Y-72305057D01*
X175608333Y-72305057D02*
X175655952Y-72400295D01*
X175655952Y-72400295D02*
X175655952Y-72543152D01*
X175655952Y-72543152D02*
X175608333Y-72638390D01*
X175608333Y-72638390D02*
X175560714Y-72686009D01*
X175560714Y-72686009D02*
X175465476Y-72733628D01*
X175465476Y-72733628D02*
X175084524Y-72733628D01*
X176275000Y-72209819D02*
X176465476Y-72209819D01*
X176465476Y-72209819D02*
X176560714Y-72257438D01*
X176560714Y-72257438D02*
X176655952Y-72352676D01*
X176655952Y-72352676D02*
X176703571Y-72543152D01*
X176703571Y-72543152D02*
X176703571Y-72876485D01*
X176703571Y-72876485D02*
X176655952Y-73066961D01*
X176655952Y-73066961D02*
X176560714Y-73162200D01*
X176560714Y-73162200D02*
X176465476Y-73209819D01*
X176465476Y-73209819D02*
X176275000Y-73209819D01*
X176275000Y-73209819D02*
X176179762Y-73162200D01*
X176179762Y-73162200D02*
X176084524Y-73066961D01*
X176084524Y-73066961D02*
X176036905Y-72876485D01*
X176036905Y-72876485D02*
X176036905Y-72543152D01*
X176036905Y-72543152D02*
X176084524Y-72352676D01*
X176084524Y-72352676D02*
X176179762Y-72257438D01*
X176179762Y-72257438D02*
X176275000Y-72209819D01*
X177465476Y-72686009D02*
X177132143Y-72686009D01*
X177132143Y-73209819D02*
X177132143Y-72209819D01*
X177132143Y-72209819D02*
X177608333Y-72209819D01*
X178322619Y-72686009D02*
X177989286Y-72686009D01*
X177989286Y-73209819D02*
X177989286Y-72209819D01*
X177989286Y-72209819D02*
X178465476Y-72209819D01*
X178608334Y-73305057D02*
X179370238Y-73305057D01*
X179608334Y-73209819D02*
X179608334Y-72209819D01*
X180084524Y-73209819D02*
X180084524Y-72209819D01*
X180084524Y-72209819D02*
X180655952Y-73209819D01*
X180655952Y-73209819D02*
X180655952Y-72209819D01*
X181132143Y-73209819D02*
X181132143Y-72209819D01*
X181132143Y-72209819D02*
X181370238Y-72209819D01*
X181370238Y-72209819D02*
X181513095Y-72257438D01*
X181513095Y-72257438D02*
X181608333Y-72352676D01*
X181608333Y-72352676D02*
X181655952Y-72447914D01*
X181655952Y-72447914D02*
X181703571Y-72638390D01*
X181703571Y-72638390D02*
X181703571Y-72781247D01*
X181703571Y-72781247D02*
X181655952Y-72971723D01*
X181655952Y-72971723D02*
X181608333Y-73066961D01*
X181608333Y-73066961D02*
X181513095Y-73162200D01*
X181513095Y-73162200D02*
X181370238Y-73209819D01*
X181370238Y-73209819D02*
X181132143Y-73209819D01*
X182655952Y-73209819D02*
X182084524Y-73209819D01*
X182370238Y-73209819D02*
X182370238Y-72209819D01*
X182370238Y-72209819D02*
X182275000Y-72352676D01*
X182275000Y-72352676D02*
X182179762Y-72447914D01*
X182179762Y-72447914D02*
X182084524Y-72495533D01*
X122046428Y-70359104D02*
X122522618Y-70359104D01*
X121951190Y-70644819D02*
X122284523Y-69644819D01*
X122284523Y-69644819D02*
X122617856Y-70644819D01*
X122951190Y-70644819D02*
X122951190Y-69644819D01*
X122951190Y-69644819D02*
X123284523Y-70359104D01*
X123284523Y-70359104D02*
X123617856Y-69644819D01*
X123617856Y-69644819D02*
X123617856Y-70644819D01*
X124046428Y-70597200D02*
X124189285Y-70644819D01*
X124189285Y-70644819D02*
X124427380Y-70644819D01*
X124427380Y-70644819D02*
X124522618Y-70597200D01*
X124522618Y-70597200D02*
X124570237Y-70549580D01*
X124570237Y-70549580D02*
X124617856Y-70454342D01*
X124617856Y-70454342D02*
X124617856Y-70359104D01*
X124617856Y-70359104D02*
X124570237Y-70263866D01*
X124570237Y-70263866D02*
X124522618Y-70216247D01*
X124522618Y-70216247D02*
X124427380Y-70168628D01*
X124427380Y-70168628D02*
X124236904Y-70121009D01*
X124236904Y-70121009D02*
X124141666Y-70073390D01*
X124141666Y-70073390D02*
X124094047Y-70025771D01*
X124094047Y-70025771D02*
X124046428Y-69930533D01*
X124046428Y-69930533D02*
X124046428Y-69835295D01*
X124046428Y-69835295D02*
X124094047Y-69740057D01*
X124094047Y-69740057D02*
X124141666Y-69692438D01*
X124141666Y-69692438D02*
X124236904Y-69644819D01*
X124236904Y-69644819D02*
X124474999Y-69644819D01*
X124474999Y-69644819D02*
X124617856Y-69692438D01*
X125570237Y-70644819D02*
X124998809Y-70644819D01*
X125284523Y-70644819D02*
X125284523Y-69644819D01*
X125284523Y-69644819D02*
X125189285Y-69787676D01*
X125189285Y-69787676D02*
X125094047Y-69882914D01*
X125094047Y-69882914D02*
X124998809Y-69930533D01*
X126522618Y-70644819D02*
X125951190Y-70644819D01*
X126236904Y-70644819D02*
X126236904Y-69644819D01*
X126236904Y-69644819D02*
X126141666Y-69787676D01*
X126141666Y-69787676D02*
X126046428Y-69882914D01*
X126046428Y-69882914D02*
X125951190Y-69930533D01*
X127474999Y-70644819D02*
X126903571Y-70644819D01*
X127189285Y-70644819D02*
X127189285Y-69644819D01*
X127189285Y-69644819D02*
X127094047Y-69787676D01*
X127094047Y-69787676D02*
X126998809Y-69882914D01*
X126998809Y-69882914D02*
X126903571Y-69930533D01*
X127808333Y-69644819D02*
X128474999Y-69644819D01*
X128474999Y-69644819D02*
X128046428Y-70644819D01*
X128617857Y-70740057D02*
X129379761Y-70740057D01*
X129475000Y-69644819D02*
X129808333Y-70644819D01*
X129808333Y-70644819D02*
X130141666Y-69644819D01*
X130665476Y-69644819D02*
X130855952Y-69644819D01*
X130855952Y-69644819D02*
X130951190Y-69692438D01*
X130951190Y-69692438D02*
X131046428Y-69787676D01*
X131046428Y-69787676D02*
X131094047Y-69978152D01*
X131094047Y-69978152D02*
X131094047Y-70311485D01*
X131094047Y-70311485D02*
X131046428Y-70501961D01*
X131046428Y-70501961D02*
X130951190Y-70597200D01*
X130951190Y-70597200D02*
X130855952Y-70644819D01*
X130855952Y-70644819D02*
X130665476Y-70644819D01*
X130665476Y-70644819D02*
X130570238Y-70597200D01*
X130570238Y-70597200D02*
X130475000Y-70501961D01*
X130475000Y-70501961D02*
X130427381Y-70311485D01*
X130427381Y-70311485D02*
X130427381Y-69978152D01*
X130427381Y-69978152D02*
X130475000Y-69787676D01*
X130475000Y-69787676D02*
X130570238Y-69692438D01*
X130570238Y-69692438D02*
X130665476Y-69644819D01*
X131522619Y-69644819D02*
X131522619Y-70454342D01*
X131522619Y-70454342D02*
X131570238Y-70549580D01*
X131570238Y-70549580D02*
X131617857Y-70597200D01*
X131617857Y-70597200D02*
X131713095Y-70644819D01*
X131713095Y-70644819D02*
X131903571Y-70644819D01*
X131903571Y-70644819D02*
X131998809Y-70597200D01*
X131998809Y-70597200D02*
X132046428Y-70549580D01*
X132046428Y-70549580D02*
X132094047Y-70454342D01*
X132094047Y-70454342D02*
X132094047Y-69644819D01*
X132427381Y-69644819D02*
X132998809Y-69644819D01*
X132713095Y-70644819D02*
X132713095Y-69644819D01*
X133855952Y-69692438D02*
X133760714Y-69644819D01*
X133760714Y-69644819D02*
X133617857Y-69644819D01*
X133617857Y-69644819D02*
X133475000Y-69692438D01*
X133475000Y-69692438D02*
X133379762Y-69787676D01*
X133379762Y-69787676D02*
X133332143Y-69882914D01*
X133332143Y-69882914D02*
X133284524Y-70073390D01*
X133284524Y-70073390D02*
X133284524Y-70216247D01*
X133284524Y-70216247D02*
X133332143Y-70406723D01*
X133332143Y-70406723D02*
X133379762Y-70501961D01*
X133379762Y-70501961D02*
X133475000Y-70597200D01*
X133475000Y-70597200D02*
X133617857Y-70644819D01*
X133617857Y-70644819D02*
X133713095Y-70644819D01*
X133713095Y-70644819D02*
X133855952Y-70597200D01*
X133855952Y-70597200D02*
X133903571Y-70549580D01*
X133903571Y-70549580D02*
X133903571Y-70216247D01*
X133903571Y-70216247D02*
X133713095Y-70216247D01*
X134332143Y-70644819D02*
X134332143Y-69644819D01*
X134332143Y-69644819D02*
X134903571Y-70644819D01*
X134903571Y-70644819D02*
X134903571Y-69644819D01*
X135379762Y-70644819D02*
X135379762Y-69644819D01*
X135379762Y-69644819D02*
X135617857Y-69644819D01*
X135617857Y-69644819D02*
X135760714Y-69692438D01*
X135760714Y-69692438D02*
X135855952Y-69787676D01*
X135855952Y-69787676D02*
X135903571Y-69882914D01*
X135903571Y-69882914D02*
X135951190Y-70073390D01*
X135951190Y-70073390D02*
X135951190Y-70216247D01*
X135951190Y-70216247D02*
X135903571Y-70406723D01*
X135903571Y-70406723D02*
X135855952Y-70501961D01*
X135855952Y-70501961D02*
X135760714Y-70597200D01*
X135760714Y-70597200D02*
X135617857Y-70644819D01*
X135617857Y-70644819D02*
X135379762Y-70644819D01*
X136903571Y-70644819D02*
X136332143Y-70644819D01*
X136617857Y-70644819D02*
X136617857Y-69644819D01*
X136617857Y-69644819D02*
X136522619Y-69787676D01*
X136522619Y-69787676D02*
X136427381Y-69882914D01*
X136427381Y-69882914D02*
X136332143Y-69930533D01*
X144213095Y-70359104D02*
X144689285Y-70359104D01*
X144117857Y-70644819D02*
X144451190Y-69644819D01*
X144451190Y-69644819D02*
X144784523Y-70644819D01*
X145117857Y-70644819D02*
X145117857Y-69644819D01*
X145117857Y-69644819D02*
X145451190Y-70359104D01*
X145451190Y-70359104D02*
X145784523Y-69644819D01*
X145784523Y-69644819D02*
X145784523Y-70644819D01*
X146213095Y-70597200D02*
X146355952Y-70644819D01*
X146355952Y-70644819D02*
X146594047Y-70644819D01*
X146594047Y-70644819D02*
X146689285Y-70597200D01*
X146689285Y-70597200D02*
X146736904Y-70549580D01*
X146736904Y-70549580D02*
X146784523Y-70454342D01*
X146784523Y-70454342D02*
X146784523Y-70359104D01*
X146784523Y-70359104D02*
X146736904Y-70263866D01*
X146736904Y-70263866D02*
X146689285Y-70216247D01*
X146689285Y-70216247D02*
X146594047Y-70168628D01*
X146594047Y-70168628D02*
X146403571Y-70121009D01*
X146403571Y-70121009D02*
X146308333Y-70073390D01*
X146308333Y-70073390D02*
X146260714Y-70025771D01*
X146260714Y-70025771D02*
X146213095Y-69930533D01*
X146213095Y-69930533D02*
X146213095Y-69835295D01*
X146213095Y-69835295D02*
X146260714Y-69740057D01*
X146260714Y-69740057D02*
X146308333Y-69692438D01*
X146308333Y-69692438D02*
X146403571Y-69644819D01*
X146403571Y-69644819D02*
X146641666Y-69644819D01*
X146641666Y-69644819D02*
X146784523Y-69692438D01*
X147736904Y-70644819D02*
X147165476Y-70644819D01*
X147451190Y-70644819D02*
X147451190Y-69644819D01*
X147451190Y-69644819D02*
X147355952Y-69787676D01*
X147355952Y-69787676D02*
X147260714Y-69882914D01*
X147260714Y-69882914D02*
X147165476Y-69930533D01*
X148689285Y-70644819D02*
X148117857Y-70644819D01*
X148403571Y-70644819D02*
X148403571Y-69644819D01*
X148403571Y-69644819D02*
X148308333Y-69787676D01*
X148308333Y-69787676D02*
X148213095Y-69882914D01*
X148213095Y-69882914D02*
X148117857Y-69930533D01*
X149641666Y-70644819D02*
X149070238Y-70644819D01*
X149355952Y-70644819D02*
X149355952Y-69644819D01*
X149355952Y-69644819D02*
X149260714Y-69787676D01*
X149260714Y-69787676D02*
X149165476Y-69882914D01*
X149165476Y-69882914D02*
X149070238Y-69930533D01*
X149975000Y-69644819D02*
X150641666Y-69644819D01*
X150641666Y-69644819D02*
X150213095Y-70644819D01*
X150784524Y-70740057D02*
X151546428Y-70740057D01*
X151641667Y-69644819D02*
X151975000Y-70644819D01*
X151975000Y-70644819D02*
X152308333Y-69644819D01*
X152641667Y-70644819D02*
X152641667Y-69644819D01*
X153117857Y-70644819D02*
X153117857Y-69644819D01*
X153117857Y-69644819D02*
X153689285Y-70644819D01*
X153689285Y-70644819D02*
X153689285Y-69644819D01*
X154689285Y-69692438D02*
X154594047Y-69644819D01*
X154594047Y-69644819D02*
X154451190Y-69644819D01*
X154451190Y-69644819D02*
X154308333Y-69692438D01*
X154308333Y-69692438D02*
X154213095Y-69787676D01*
X154213095Y-69787676D02*
X154165476Y-69882914D01*
X154165476Y-69882914D02*
X154117857Y-70073390D01*
X154117857Y-70073390D02*
X154117857Y-70216247D01*
X154117857Y-70216247D02*
X154165476Y-70406723D01*
X154165476Y-70406723D02*
X154213095Y-70501961D01*
X154213095Y-70501961D02*
X154308333Y-70597200D01*
X154308333Y-70597200D02*
X154451190Y-70644819D01*
X154451190Y-70644819D02*
X154546428Y-70644819D01*
X154546428Y-70644819D02*
X154689285Y-70597200D01*
X154689285Y-70597200D02*
X154736904Y-70549580D01*
X154736904Y-70549580D02*
X154736904Y-70216247D01*
X154736904Y-70216247D02*
X154546428Y-70216247D01*
X155165476Y-70644819D02*
X155165476Y-69644819D01*
X155165476Y-69644819D02*
X155736904Y-70644819D01*
X155736904Y-70644819D02*
X155736904Y-69644819D01*
X156213095Y-70644819D02*
X156213095Y-69644819D01*
X156213095Y-69644819D02*
X156451190Y-69644819D01*
X156451190Y-69644819D02*
X156594047Y-69692438D01*
X156594047Y-69692438D02*
X156689285Y-69787676D01*
X156689285Y-69787676D02*
X156736904Y-69882914D01*
X156736904Y-69882914D02*
X156784523Y-70073390D01*
X156784523Y-70073390D02*
X156784523Y-70216247D01*
X156784523Y-70216247D02*
X156736904Y-70406723D01*
X156736904Y-70406723D02*
X156689285Y-70501961D01*
X156689285Y-70501961D02*
X156594047Y-70597200D01*
X156594047Y-70597200D02*
X156451190Y-70644819D01*
X156451190Y-70644819D02*
X156213095Y-70644819D01*
X157736904Y-70644819D02*
X157165476Y-70644819D01*
X157451190Y-70644819D02*
X157451190Y-69644819D01*
X157451190Y-69644819D02*
X157355952Y-69787676D01*
X157355952Y-69787676D02*
X157260714Y-69882914D01*
X157260714Y-69882914D02*
X157165476Y-69930533D01*
X124734580Y-72566666D02*
X124782200Y-72614285D01*
X124782200Y-72614285D02*
X124829819Y-72757142D01*
X124829819Y-72757142D02*
X124829819Y-72852380D01*
X124829819Y-72852380D02*
X124782200Y-72995237D01*
X124782200Y-72995237D02*
X124686961Y-73090475D01*
X124686961Y-73090475D02*
X124591723Y-73138094D01*
X124591723Y-73138094D02*
X124401247Y-73185713D01*
X124401247Y-73185713D02*
X124258390Y-73185713D01*
X124258390Y-73185713D02*
X124067914Y-73138094D01*
X124067914Y-73138094D02*
X123972676Y-73090475D01*
X123972676Y-73090475D02*
X123877438Y-72995237D01*
X123877438Y-72995237D02*
X123829819Y-72852380D01*
X123829819Y-72852380D02*
X123829819Y-72757142D01*
X123829819Y-72757142D02*
X123877438Y-72614285D01*
X123877438Y-72614285D02*
X123925057Y-72566666D01*
X124829819Y-71614285D02*
X124829819Y-72185713D01*
X124829819Y-71899999D02*
X123829819Y-71899999D01*
X123829819Y-71899999D02*
X123972676Y-71995237D01*
X123972676Y-71995237D02*
X124067914Y-72090475D01*
X124067914Y-72090475D02*
X124115533Y-72185713D01*
X102834819Y-99731666D02*
X102358628Y-100064999D01*
X102834819Y-100303094D02*
X101834819Y-100303094D01*
X101834819Y-100303094D02*
X101834819Y-99922142D01*
X101834819Y-99922142D02*
X101882438Y-99826904D01*
X101882438Y-99826904D02*
X101930057Y-99779285D01*
X101930057Y-99779285D02*
X102025295Y-99731666D01*
X102025295Y-99731666D02*
X102168152Y-99731666D01*
X102168152Y-99731666D02*
X102263390Y-99779285D01*
X102263390Y-99779285D02*
X102311009Y-99826904D01*
X102311009Y-99826904D02*
X102358628Y-99922142D01*
X102358628Y-99922142D02*
X102358628Y-100303094D01*
X101930057Y-99350713D02*
X101882438Y-99303094D01*
X101882438Y-99303094D02*
X101834819Y-99207856D01*
X101834819Y-99207856D02*
X101834819Y-98969761D01*
X101834819Y-98969761D02*
X101882438Y-98874523D01*
X101882438Y-98874523D02*
X101930057Y-98826904D01*
X101930057Y-98826904D02*
X102025295Y-98779285D01*
X102025295Y-98779285D02*
X102120533Y-98779285D01*
X102120533Y-98779285D02*
X102263390Y-98826904D01*
X102263390Y-98826904D02*
X102834819Y-99398332D01*
X102834819Y-99398332D02*
X102834819Y-98779285D01*
X108384819Y-99706666D02*
X107908628Y-100039999D01*
X108384819Y-100278094D02*
X107384819Y-100278094D01*
X107384819Y-100278094D02*
X107384819Y-99897142D01*
X107384819Y-99897142D02*
X107432438Y-99801904D01*
X107432438Y-99801904D02*
X107480057Y-99754285D01*
X107480057Y-99754285D02*
X107575295Y-99706666D01*
X107575295Y-99706666D02*
X107718152Y-99706666D01*
X107718152Y-99706666D02*
X107813390Y-99754285D01*
X107813390Y-99754285D02*
X107861009Y-99801904D01*
X107861009Y-99801904D02*
X107908628Y-99897142D01*
X107908628Y-99897142D02*
X107908628Y-100278094D01*
X108384819Y-98754285D02*
X108384819Y-99325713D01*
X108384819Y-99039999D02*
X107384819Y-99039999D01*
X107384819Y-99039999D02*
X107527676Y-99135237D01*
X107527676Y-99135237D02*
X107622914Y-99230475D01*
X107622914Y-99230475D02*
X107670533Y-99325713D01*
X97736905Y-78729819D02*
X97736905Y-77729819D01*
X97736905Y-77729819D02*
X98117857Y-77729819D01*
X98117857Y-77729819D02*
X98213095Y-77777438D01*
X98213095Y-77777438D02*
X98260714Y-77825057D01*
X98260714Y-77825057D02*
X98308333Y-77920295D01*
X98308333Y-77920295D02*
X98308333Y-78063152D01*
X98308333Y-78063152D02*
X98260714Y-78158390D01*
X98260714Y-78158390D02*
X98213095Y-78206009D01*
X98213095Y-78206009D02*
X98117857Y-78253628D01*
X98117857Y-78253628D02*
X97736905Y-78253628D01*
X98927381Y-77729819D02*
X99117857Y-77729819D01*
X99117857Y-77729819D02*
X99213095Y-77777438D01*
X99213095Y-77777438D02*
X99308333Y-77872676D01*
X99308333Y-77872676D02*
X99355952Y-78063152D01*
X99355952Y-78063152D02*
X99355952Y-78396485D01*
X99355952Y-78396485D02*
X99308333Y-78586961D01*
X99308333Y-78586961D02*
X99213095Y-78682200D01*
X99213095Y-78682200D02*
X99117857Y-78729819D01*
X99117857Y-78729819D02*
X98927381Y-78729819D01*
X98927381Y-78729819D02*
X98832143Y-78682200D01*
X98832143Y-78682200D02*
X98736905Y-78586961D01*
X98736905Y-78586961D02*
X98689286Y-78396485D01*
X98689286Y-78396485D02*
X98689286Y-78063152D01*
X98689286Y-78063152D02*
X98736905Y-77872676D01*
X98736905Y-77872676D02*
X98832143Y-77777438D01*
X98832143Y-77777438D02*
X98927381Y-77729819D01*
X99689286Y-77729819D02*
X99927381Y-78729819D01*
X99927381Y-78729819D02*
X100117857Y-78015533D01*
X100117857Y-78015533D02*
X100308333Y-78729819D01*
X100308333Y-78729819D02*
X100546429Y-77729819D01*
X100927381Y-78206009D02*
X101260714Y-78206009D01*
X101403571Y-78729819D02*
X100927381Y-78729819D01*
X100927381Y-78729819D02*
X100927381Y-77729819D01*
X100927381Y-77729819D02*
X101403571Y-77729819D01*
X102403571Y-78729819D02*
X102070238Y-78253628D01*
X101832143Y-78729819D02*
X101832143Y-77729819D01*
X101832143Y-77729819D02*
X102213095Y-77729819D01*
X102213095Y-77729819D02*
X102308333Y-77777438D01*
X102308333Y-77777438D02*
X102355952Y-77825057D01*
X102355952Y-77825057D02*
X102403571Y-77920295D01*
X102403571Y-77920295D02*
X102403571Y-78063152D01*
X102403571Y-78063152D02*
X102355952Y-78158390D01*
X102355952Y-78158390D02*
X102308333Y-78206009D01*
X102308333Y-78206009D02*
X102213095Y-78253628D01*
X102213095Y-78253628D02*
X101832143Y-78253628D01*
X102594048Y-78825057D02*
X103355952Y-78825057D01*
X104165476Y-78729819D02*
X103832143Y-78253628D01*
X103594048Y-78729819D02*
X103594048Y-77729819D01*
X103594048Y-77729819D02*
X103975000Y-77729819D01*
X103975000Y-77729819D02*
X104070238Y-77777438D01*
X104070238Y-77777438D02*
X104117857Y-77825057D01*
X104117857Y-77825057D02*
X104165476Y-77920295D01*
X104165476Y-77920295D02*
X104165476Y-78063152D01*
X104165476Y-78063152D02*
X104117857Y-78158390D01*
X104117857Y-78158390D02*
X104070238Y-78206009D01*
X104070238Y-78206009D02*
X103975000Y-78253628D01*
X103975000Y-78253628D02*
X103594048Y-78253628D01*
X104546429Y-78444104D02*
X105022619Y-78444104D01*
X104451191Y-78729819D02*
X104784524Y-77729819D01*
X104784524Y-77729819D02*
X105117857Y-78729819D01*
X105451191Y-78729819D02*
X105451191Y-77729819D01*
X106403571Y-78729819D02*
X105927381Y-78729819D01*
X105927381Y-78729819D02*
X105927381Y-77729819D01*
X107260714Y-78729819D02*
X106689286Y-78729819D01*
X106975000Y-78729819D02*
X106975000Y-77729819D01*
X106975000Y-77729819D02*
X106879762Y-77872676D01*
X106879762Y-77872676D02*
X106784524Y-77967914D01*
X106784524Y-77967914D02*
X106689286Y-78015533D01*
X168145833Y-87442319D02*
X168717261Y-87442319D01*
X168431547Y-88442319D02*
X168431547Y-87442319D01*
X169050595Y-88442319D02*
X169050595Y-87442319D01*
X169050595Y-87442319D02*
X169431547Y-87442319D01*
X169431547Y-87442319D02*
X169526785Y-87489938D01*
X169526785Y-87489938D02*
X169574404Y-87537557D01*
X169574404Y-87537557D02*
X169622023Y-87632795D01*
X169622023Y-87632795D02*
X169622023Y-87775652D01*
X169622023Y-87775652D02*
X169574404Y-87870890D01*
X169574404Y-87870890D02*
X169526785Y-87918509D01*
X169526785Y-87918509D02*
X169431547Y-87966128D01*
X169431547Y-87966128D02*
X169050595Y-87966128D01*
X170479166Y-87775652D02*
X170479166Y-88442319D01*
X170241071Y-87394700D02*
X170002976Y-88108985D01*
X170002976Y-88108985D02*
X170622023Y-88108985D01*
X171193452Y-87442319D02*
X171288690Y-87442319D01*
X171288690Y-87442319D02*
X171383928Y-87489938D01*
X171383928Y-87489938D02*
X171431547Y-87537557D01*
X171431547Y-87537557D02*
X171479166Y-87632795D01*
X171479166Y-87632795D02*
X171526785Y-87823271D01*
X171526785Y-87823271D02*
X171526785Y-88061366D01*
X171526785Y-88061366D02*
X171479166Y-88251842D01*
X171479166Y-88251842D02*
X171431547Y-88347080D01*
X171431547Y-88347080D02*
X171383928Y-88394700D01*
X171383928Y-88394700D02*
X171288690Y-88442319D01*
X171288690Y-88442319D02*
X171193452Y-88442319D01*
X171193452Y-88442319D02*
X171098214Y-88394700D01*
X171098214Y-88394700D02*
X171050595Y-88347080D01*
X171050595Y-88347080D02*
X171002976Y-88251842D01*
X171002976Y-88251842D02*
X170955357Y-88061366D01*
X170955357Y-88061366D02*
X170955357Y-87823271D01*
X170955357Y-87823271D02*
X171002976Y-87632795D01*
X171002976Y-87632795D02*
X171050595Y-87537557D01*
X171050595Y-87537557D02*
X171098214Y-87489938D01*
X171098214Y-87489938D02*
X171193452Y-87442319D01*
X172431547Y-87442319D02*
X171955357Y-87442319D01*
X171955357Y-87442319D02*
X171907738Y-87918509D01*
X171907738Y-87918509D02*
X171955357Y-87870890D01*
X171955357Y-87870890D02*
X172050595Y-87823271D01*
X172050595Y-87823271D02*
X172288690Y-87823271D01*
X172288690Y-87823271D02*
X172383928Y-87870890D01*
X172383928Y-87870890D02*
X172431547Y-87918509D01*
X172431547Y-87918509D02*
X172479166Y-88013747D01*
X172479166Y-88013747D02*
X172479166Y-88251842D01*
X172479166Y-88251842D02*
X172431547Y-88347080D01*
X172431547Y-88347080D02*
X172383928Y-88394700D01*
X172383928Y-88394700D02*
X172288690Y-88442319D01*
X172288690Y-88442319D02*
X172050595Y-88442319D01*
X172050595Y-88442319D02*
X171955357Y-88394700D01*
X171955357Y-88394700D02*
X171907738Y-88347080D01*
X173336309Y-87442319D02*
X173145833Y-87442319D01*
X173145833Y-87442319D02*
X173050595Y-87489938D01*
X173050595Y-87489938D02*
X173002976Y-87537557D01*
X173002976Y-87537557D02*
X172907738Y-87680414D01*
X172907738Y-87680414D02*
X172860119Y-87870890D01*
X172860119Y-87870890D02*
X172860119Y-88251842D01*
X172860119Y-88251842D02*
X172907738Y-88347080D01*
X172907738Y-88347080D02*
X172955357Y-88394700D01*
X172955357Y-88394700D02*
X173050595Y-88442319D01*
X173050595Y-88442319D02*
X173241071Y-88442319D01*
X173241071Y-88442319D02*
X173336309Y-88394700D01*
X173336309Y-88394700D02*
X173383928Y-88347080D01*
X173383928Y-88347080D02*
X173431547Y-88251842D01*
X173431547Y-88251842D02*
X173431547Y-88013747D01*
X173431547Y-88013747D02*
X173383928Y-87918509D01*
X173383928Y-87918509D02*
X173336309Y-87870890D01*
X173336309Y-87870890D02*
X173241071Y-87823271D01*
X173241071Y-87823271D02*
X173050595Y-87823271D01*
X173050595Y-87823271D02*
X172955357Y-87870890D01*
X172955357Y-87870890D02*
X172907738Y-87918509D01*
X172907738Y-87918509D02*
X172860119Y-88013747D01*
X173622024Y-88537557D02*
X174383928Y-88537557D01*
X174622024Y-88442319D02*
X174622024Y-87442319D01*
X174622024Y-87442319D02*
X174955357Y-88156604D01*
X174955357Y-88156604D02*
X175288690Y-87442319D01*
X175288690Y-87442319D02*
X175288690Y-88442319D01*
X175907738Y-88442319D02*
X175812500Y-88394700D01*
X175812500Y-88394700D02*
X175764881Y-88347080D01*
X175764881Y-88347080D02*
X175717262Y-88251842D01*
X175717262Y-88251842D02*
X175717262Y-87966128D01*
X175717262Y-87966128D02*
X175764881Y-87870890D01*
X175764881Y-87870890D02*
X175812500Y-87823271D01*
X175812500Y-87823271D02*
X175907738Y-87775652D01*
X175907738Y-87775652D02*
X176050595Y-87775652D01*
X176050595Y-87775652D02*
X176145833Y-87823271D01*
X176145833Y-87823271D02*
X176193452Y-87870890D01*
X176193452Y-87870890D02*
X176241071Y-87966128D01*
X176241071Y-87966128D02*
X176241071Y-88251842D01*
X176241071Y-88251842D02*
X176193452Y-88347080D01*
X176193452Y-88347080D02*
X176145833Y-88394700D01*
X176145833Y-88394700D02*
X176050595Y-88442319D01*
X176050595Y-88442319D02*
X175907738Y-88442319D01*
X177098214Y-88442319D02*
X177098214Y-87442319D01*
X177098214Y-88394700D02*
X177002976Y-88442319D01*
X177002976Y-88442319D02*
X176812500Y-88442319D01*
X176812500Y-88442319D02*
X176717262Y-88394700D01*
X176717262Y-88394700D02*
X176669643Y-88347080D01*
X176669643Y-88347080D02*
X176622024Y-88251842D01*
X176622024Y-88251842D02*
X176622024Y-87966128D01*
X176622024Y-87966128D02*
X176669643Y-87870890D01*
X176669643Y-87870890D02*
X176717262Y-87823271D01*
X176717262Y-87823271D02*
X176812500Y-87775652D01*
X176812500Y-87775652D02*
X177002976Y-87775652D01*
X177002976Y-87775652D02*
X177098214Y-87823271D01*
X178002976Y-87775652D02*
X178002976Y-88442319D01*
X177574405Y-87775652D02*
X177574405Y-88299461D01*
X177574405Y-88299461D02*
X177622024Y-88394700D01*
X177622024Y-88394700D02*
X177717262Y-88442319D01*
X177717262Y-88442319D02*
X177860119Y-88442319D01*
X177860119Y-88442319D02*
X177955357Y-88394700D01*
X177955357Y-88394700D02*
X178002976Y-88347080D01*
X178622024Y-88442319D02*
X178526786Y-88394700D01*
X178526786Y-88394700D02*
X178479167Y-88299461D01*
X178479167Y-88299461D02*
X178479167Y-87442319D01*
X179383929Y-88394700D02*
X179288691Y-88442319D01*
X179288691Y-88442319D02*
X179098215Y-88442319D01*
X179098215Y-88442319D02*
X179002977Y-88394700D01*
X179002977Y-88394700D02*
X178955358Y-88299461D01*
X178955358Y-88299461D02*
X178955358Y-87918509D01*
X178955358Y-87918509D02*
X179002977Y-87823271D01*
X179002977Y-87823271D02*
X179098215Y-87775652D01*
X179098215Y-87775652D02*
X179288691Y-87775652D01*
X179288691Y-87775652D02*
X179383929Y-87823271D01*
X179383929Y-87823271D02*
X179431548Y-87918509D01*
X179431548Y-87918509D02*
X179431548Y-88013747D01*
X179431548Y-88013747D02*
X178955358Y-88108985D01*
X180383929Y-88442319D02*
X179812501Y-88442319D01*
X180098215Y-88442319D02*
X180098215Y-87442319D01*
X180098215Y-87442319D02*
X180002977Y-87585176D01*
X180002977Y-87585176D02*
X179907739Y-87680414D01*
X179907739Y-87680414D02*
X179812501Y-87728033D01*
X164072619Y-84154819D02*
X164263095Y-84154819D01*
X164263095Y-84154819D02*
X164358333Y-84202438D01*
X164358333Y-84202438D02*
X164453571Y-84297676D01*
X164453571Y-84297676D02*
X164501190Y-84488152D01*
X164501190Y-84488152D02*
X164501190Y-84821485D01*
X164501190Y-84821485D02*
X164453571Y-85011961D01*
X164453571Y-85011961D02*
X164358333Y-85107200D01*
X164358333Y-85107200D02*
X164263095Y-85154819D01*
X164263095Y-85154819D02*
X164072619Y-85154819D01*
X164072619Y-85154819D02*
X163977381Y-85107200D01*
X163977381Y-85107200D02*
X163882143Y-85011961D01*
X163882143Y-85011961D02*
X163834524Y-84821485D01*
X163834524Y-84821485D02*
X163834524Y-84488152D01*
X163834524Y-84488152D02*
X163882143Y-84297676D01*
X163882143Y-84297676D02*
X163977381Y-84202438D01*
X163977381Y-84202438D02*
X164072619Y-84154819D01*
X165358333Y-84488152D02*
X165358333Y-85154819D01*
X164929762Y-84488152D02*
X164929762Y-85011961D01*
X164929762Y-85011961D02*
X164977381Y-85107200D01*
X164977381Y-85107200D02*
X165072619Y-85154819D01*
X165072619Y-85154819D02*
X165215476Y-85154819D01*
X165215476Y-85154819D02*
X165310714Y-85107200D01*
X165310714Y-85107200D02*
X165358333Y-85059580D01*
X165691667Y-84488152D02*
X166072619Y-84488152D01*
X165834524Y-84154819D02*
X165834524Y-85011961D01*
X165834524Y-85011961D02*
X165882143Y-85107200D01*
X165882143Y-85107200D02*
X165977381Y-85154819D01*
X165977381Y-85154819D02*
X166072619Y-85154819D01*
X166405953Y-84773866D02*
X167167858Y-84773866D01*
X184279819Y-93061904D02*
X185089342Y-93061904D01*
X185089342Y-93061904D02*
X185184580Y-93014285D01*
X185184580Y-93014285D02*
X185232200Y-92966666D01*
X185232200Y-92966666D02*
X185279819Y-92871428D01*
X185279819Y-92871428D02*
X185279819Y-92680952D01*
X185279819Y-92680952D02*
X185232200Y-92585714D01*
X185232200Y-92585714D02*
X185184580Y-92538095D01*
X185184580Y-92538095D02*
X185089342Y-92490476D01*
X185089342Y-92490476D02*
X184279819Y-92490476D01*
X185232200Y-92061904D02*
X185279819Y-91919047D01*
X185279819Y-91919047D02*
X185279819Y-91680952D01*
X185279819Y-91680952D02*
X185232200Y-91585714D01*
X185232200Y-91585714D02*
X185184580Y-91538095D01*
X185184580Y-91538095D02*
X185089342Y-91490476D01*
X185089342Y-91490476D02*
X184994104Y-91490476D01*
X184994104Y-91490476D02*
X184898866Y-91538095D01*
X184898866Y-91538095D02*
X184851247Y-91585714D01*
X184851247Y-91585714D02*
X184803628Y-91680952D01*
X184803628Y-91680952D02*
X184756009Y-91871428D01*
X184756009Y-91871428D02*
X184708390Y-91966666D01*
X184708390Y-91966666D02*
X184660771Y-92014285D01*
X184660771Y-92014285D02*
X184565533Y-92061904D01*
X184565533Y-92061904D02*
X184470295Y-92061904D01*
X184470295Y-92061904D02*
X184375057Y-92014285D01*
X184375057Y-92014285D02*
X184327438Y-91966666D01*
X184327438Y-91966666D02*
X184279819Y-91871428D01*
X184279819Y-91871428D02*
X184279819Y-91633333D01*
X184279819Y-91633333D02*
X184327438Y-91490476D01*
X184756009Y-90728571D02*
X184803628Y-90585714D01*
X184803628Y-90585714D02*
X184851247Y-90538095D01*
X184851247Y-90538095D02*
X184946485Y-90490476D01*
X184946485Y-90490476D02*
X185089342Y-90490476D01*
X185089342Y-90490476D02*
X185184580Y-90538095D01*
X185184580Y-90538095D02*
X185232200Y-90585714D01*
X185232200Y-90585714D02*
X185279819Y-90680952D01*
X185279819Y-90680952D02*
X185279819Y-91061904D01*
X185279819Y-91061904D02*
X184279819Y-91061904D01*
X184279819Y-91061904D02*
X184279819Y-90728571D01*
X184279819Y-90728571D02*
X184327438Y-90633333D01*
X184327438Y-90633333D02*
X184375057Y-90585714D01*
X184375057Y-90585714D02*
X184470295Y-90538095D01*
X184470295Y-90538095D02*
X184565533Y-90538095D01*
X184565533Y-90538095D02*
X184660771Y-90585714D01*
X184660771Y-90585714D02*
X184708390Y-90633333D01*
X184708390Y-90633333D02*
X184756009Y-90728571D01*
X184756009Y-90728571D02*
X184756009Y-91061904D01*
X182144048Y-99373866D02*
X182905953Y-99373866D01*
X182525000Y-99754819D02*
X182525000Y-98992914D01*
X184582142Y-96254819D02*
X184105952Y-96254819D01*
X184105952Y-96254819D02*
X184058333Y-96731009D01*
X184058333Y-96731009D02*
X184105952Y-96683390D01*
X184105952Y-96683390D02*
X184201190Y-96635771D01*
X184201190Y-96635771D02*
X184439285Y-96635771D01*
X184439285Y-96635771D02*
X184534523Y-96683390D01*
X184534523Y-96683390D02*
X184582142Y-96731009D01*
X184582142Y-96731009D02*
X184629761Y-96826247D01*
X184629761Y-96826247D02*
X184629761Y-97064342D01*
X184629761Y-97064342D02*
X184582142Y-97159580D01*
X184582142Y-97159580D02*
X184534523Y-97207200D01*
X184534523Y-97207200D02*
X184439285Y-97254819D01*
X184439285Y-97254819D02*
X184201190Y-97254819D01*
X184201190Y-97254819D02*
X184105952Y-97207200D01*
X184105952Y-97207200D02*
X184058333Y-97159580D01*
X184963095Y-96588152D02*
X185201190Y-97254819D01*
X185201190Y-97254819D02*
X185439285Y-96588152D01*
X164072619Y-98754819D02*
X164263095Y-98754819D01*
X164263095Y-98754819D02*
X164358333Y-98802438D01*
X164358333Y-98802438D02*
X164453571Y-98897676D01*
X164453571Y-98897676D02*
X164501190Y-99088152D01*
X164501190Y-99088152D02*
X164501190Y-99421485D01*
X164501190Y-99421485D02*
X164453571Y-99611961D01*
X164453571Y-99611961D02*
X164358333Y-99707200D01*
X164358333Y-99707200D02*
X164263095Y-99754819D01*
X164263095Y-99754819D02*
X164072619Y-99754819D01*
X164072619Y-99754819D02*
X163977381Y-99707200D01*
X163977381Y-99707200D02*
X163882143Y-99611961D01*
X163882143Y-99611961D02*
X163834524Y-99421485D01*
X163834524Y-99421485D02*
X163834524Y-99088152D01*
X163834524Y-99088152D02*
X163882143Y-98897676D01*
X163882143Y-98897676D02*
X163977381Y-98802438D01*
X163977381Y-98802438D02*
X164072619Y-98754819D01*
X165358333Y-99088152D02*
X165358333Y-99754819D01*
X164929762Y-99088152D02*
X164929762Y-99611961D01*
X164929762Y-99611961D02*
X164977381Y-99707200D01*
X164977381Y-99707200D02*
X165072619Y-99754819D01*
X165072619Y-99754819D02*
X165215476Y-99754819D01*
X165215476Y-99754819D02*
X165310714Y-99707200D01*
X165310714Y-99707200D02*
X165358333Y-99659580D01*
X165691667Y-99088152D02*
X166072619Y-99088152D01*
X165834524Y-98754819D02*
X165834524Y-99611961D01*
X165834524Y-99611961D02*
X165882143Y-99707200D01*
X165882143Y-99707200D02*
X165977381Y-99754819D01*
X165977381Y-99754819D02*
X166072619Y-99754819D01*
X166405953Y-99373866D02*
X167167858Y-99373866D01*
X166786905Y-99754819D02*
X166786905Y-98992914D01*
X182044048Y-84173866D02*
X182805953Y-84173866D01*
X164177381Y-95731009D02*
X164320238Y-95778628D01*
X164320238Y-95778628D02*
X164367857Y-95826247D01*
X164367857Y-95826247D02*
X164415476Y-95921485D01*
X164415476Y-95921485D02*
X164415476Y-96064342D01*
X164415476Y-96064342D02*
X164367857Y-96159580D01*
X164367857Y-96159580D02*
X164320238Y-96207200D01*
X164320238Y-96207200D02*
X164225000Y-96254819D01*
X164225000Y-96254819D02*
X163844048Y-96254819D01*
X163844048Y-96254819D02*
X163844048Y-95254819D01*
X163844048Y-95254819D02*
X164177381Y-95254819D01*
X164177381Y-95254819D02*
X164272619Y-95302438D01*
X164272619Y-95302438D02*
X164320238Y-95350057D01*
X164320238Y-95350057D02*
X164367857Y-95445295D01*
X164367857Y-95445295D02*
X164367857Y-95540533D01*
X164367857Y-95540533D02*
X164320238Y-95635771D01*
X164320238Y-95635771D02*
X164272619Y-95683390D01*
X164272619Y-95683390D02*
X164177381Y-95731009D01*
X164177381Y-95731009D02*
X163844048Y-95731009D01*
X164844048Y-95873866D02*
X165605953Y-95873866D01*
X165225000Y-96254819D02*
X165225000Y-95492914D01*
X164177381Y-88131009D02*
X164320238Y-88178628D01*
X164320238Y-88178628D02*
X164367857Y-88226247D01*
X164367857Y-88226247D02*
X164415476Y-88321485D01*
X164415476Y-88321485D02*
X164415476Y-88464342D01*
X164415476Y-88464342D02*
X164367857Y-88559580D01*
X164367857Y-88559580D02*
X164320238Y-88607200D01*
X164320238Y-88607200D02*
X164225000Y-88654819D01*
X164225000Y-88654819D02*
X163844048Y-88654819D01*
X163844048Y-88654819D02*
X163844048Y-87654819D01*
X163844048Y-87654819D02*
X164177381Y-87654819D01*
X164177381Y-87654819D02*
X164272619Y-87702438D01*
X164272619Y-87702438D02*
X164320238Y-87750057D01*
X164320238Y-87750057D02*
X164367857Y-87845295D01*
X164367857Y-87845295D02*
X164367857Y-87940533D01*
X164367857Y-87940533D02*
X164320238Y-88035771D01*
X164320238Y-88035771D02*
X164272619Y-88083390D01*
X164272619Y-88083390D02*
X164177381Y-88131009D01*
X164177381Y-88131009D02*
X163844048Y-88131009D01*
X164844048Y-88273866D02*
X165605953Y-88273866D01*
X183863095Y-86702438D02*
X183767857Y-86654819D01*
X183767857Y-86654819D02*
X183625000Y-86654819D01*
X183625000Y-86654819D02*
X183482143Y-86702438D01*
X183482143Y-86702438D02*
X183386905Y-86797676D01*
X183386905Y-86797676D02*
X183339286Y-86892914D01*
X183339286Y-86892914D02*
X183291667Y-87083390D01*
X183291667Y-87083390D02*
X183291667Y-87226247D01*
X183291667Y-87226247D02*
X183339286Y-87416723D01*
X183339286Y-87416723D02*
X183386905Y-87511961D01*
X183386905Y-87511961D02*
X183482143Y-87607200D01*
X183482143Y-87607200D02*
X183625000Y-87654819D01*
X183625000Y-87654819D02*
X183720238Y-87654819D01*
X183720238Y-87654819D02*
X183863095Y-87607200D01*
X183863095Y-87607200D02*
X183910714Y-87559580D01*
X183910714Y-87559580D02*
X183910714Y-87226247D01*
X183910714Y-87226247D02*
X183720238Y-87226247D01*
X184339286Y-87654819D02*
X184339286Y-86654819D01*
X184339286Y-86654819D02*
X184910714Y-87654819D01*
X184910714Y-87654819D02*
X184910714Y-86654819D01*
X185386905Y-87654819D02*
X185386905Y-86654819D01*
X185386905Y-86654819D02*
X185625000Y-86654819D01*
X185625000Y-86654819D02*
X185767857Y-86702438D01*
X185767857Y-86702438D02*
X185863095Y-86797676D01*
X185863095Y-86797676D02*
X185910714Y-86892914D01*
X185910714Y-86892914D02*
X185958333Y-87083390D01*
X185958333Y-87083390D02*
X185958333Y-87226247D01*
X185958333Y-87226247D02*
X185910714Y-87416723D01*
X185910714Y-87416723D02*
X185863095Y-87511961D01*
X185863095Y-87511961D02*
X185767857Y-87607200D01*
X185767857Y-87607200D02*
X185625000Y-87654819D01*
X185625000Y-87654819D02*
X185386905Y-87654819D01*
X167082141Y-91931009D02*
X167224998Y-91978628D01*
X167224998Y-91978628D02*
X167272617Y-92026247D01*
X167272617Y-92026247D02*
X167320236Y-92121485D01*
X167320236Y-92121485D02*
X167320236Y-92264342D01*
X167320236Y-92264342D02*
X167272617Y-92359580D01*
X167272617Y-92359580D02*
X167224998Y-92407200D01*
X167224998Y-92407200D02*
X167129760Y-92454819D01*
X167129760Y-92454819D02*
X166748808Y-92454819D01*
X166748808Y-92454819D02*
X166748808Y-91454819D01*
X166748808Y-91454819D02*
X167082141Y-91454819D01*
X167082141Y-91454819D02*
X167177379Y-91502438D01*
X167177379Y-91502438D02*
X167224998Y-91550057D01*
X167224998Y-91550057D02*
X167272617Y-91645295D01*
X167272617Y-91645295D02*
X167272617Y-91740533D01*
X167272617Y-91740533D02*
X167224998Y-91835771D01*
X167224998Y-91835771D02*
X167177379Y-91883390D01*
X167177379Y-91883390D02*
X167082141Y-91931009D01*
X167082141Y-91931009D02*
X166748808Y-91931009D01*
X168177379Y-92454819D02*
X168177379Y-91931009D01*
X168177379Y-91931009D02*
X168129760Y-91835771D01*
X168129760Y-91835771D02*
X168034522Y-91788152D01*
X168034522Y-91788152D02*
X167844046Y-91788152D01*
X167844046Y-91788152D02*
X167748808Y-91835771D01*
X168177379Y-92407200D02*
X168082141Y-92454819D01*
X168082141Y-92454819D02*
X167844046Y-92454819D01*
X167844046Y-92454819D02*
X167748808Y-92407200D01*
X167748808Y-92407200D02*
X167701189Y-92311961D01*
X167701189Y-92311961D02*
X167701189Y-92216723D01*
X167701189Y-92216723D02*
X167748808Y-92121485D01*
X167748808Y-92121485D02*
X167844046Y-92073866D01*
X167844046Y-92073866D02*
X168082141Y-92073866D01*
X168082141Y-92073866D02*
X168177379Y-92026247D01*
X168510713Y-91788152D02*
X168891665Y-91788152D01*
X168653570Y-91454819D02*
X168653570Y-92311961D01*
X168653570Y-92311961D02*
X168701189Y-92407200D01*
X168701189Y-92407200D02*
X168796427Y-92454819D01*
X168796427Y-92454819D02*
X168891665Y-92454819D01*
X169082142Y-91788152D02*
X169463094Y-91788152D01*
X169224999Y-91454819D02*
X169224999Y-92311961D01*
X169224999Y-92311961D02*
X169272618Y-92407200D01*
X169272618Y-92407200D02*
X169367856Y-92454819D01*
X169367856Y-92454819D02*
X169463094Y-92454819D01*
X170177380Y-92407200D02*
X170082142Y-92454819D01*
X170082142Y-92454819D02*
X169891666Y-92454819D01*
X169891666Y-92454819D02*
X169796428Y-92407200D01*
X169796428Y-92407200D02*
X169748809Y-92311961D01*
X169748809Y-92311961D02*
X169748809Y-91931009D01*
X169748809Y-91931009D02*
X169796428Y-91835771D01*
X169796428Y-91835771D02*
X169891666Y-91788152D01*
X169891666Y-91788152D02*
X170082142Y-91788152D01*
X170082142Y-91788152D02*
X170177380Y-91835771D01*
X170177380Y-91835771D02*
X170224999Y-91931009D01*
X170224999Y-91931009D02*
X170224999Y-92026247D01*
X170224999Y-92026247D02*
X169748809Y-92121485D01*
X170653571Y-92454819D02*
X170653571Y-91788152D01*
X170653571Y-91978628D02*
X170701190Y-91883390D01*
X170701190Y-91883390D02*
X170748809Y-91835771D01*
X170748809Y-91835771D02*
X170844047Y-91788152D01*
X170844047Y-91788152D02*
X170939285Y-91788152D01*
X171177381Y-91788152D02*
X171415476Y-92454819D01*
X171653571Y-91788152D02*
X171415476Y-92454819D01*
X171415476Y-92454819D02*
X171320238Y-92692914D01*
X171320238Y-92692914D02*
X171272619Y-92740533D01*
X171272619Y-92740533D02*
X171177381Y-92788152D01*
X173367857Y-92359580D02*
X173320238Y-92407200D01*
X173320238Y-92407200D02*
X173177381Y-92454819D01*
X173177381Y-92454819D02*
X173082143Y-92454819D01*
X173082143Y-92454819D02*
X172939286Y-92407200D01*
X172939286Y-92407200D02*
X172844048Y-92311961D01*
X172844048Y-92311961D02*
X172796429Y-92216723D01*
X172796429Y-92216723D02*
X172748810Y-92026247D01*
X172748810Y-92026247D02*
X172748810Y-91883390D01*
X172748810Y-91883390D02*
X172796429Y-91692914D01*
X172796429Y-91692914D02*
X172844048Y-91597676D01*
X172844048Y-91597676D02*
X172939286Y-91502438D01*
X172939286Y-91502438D02*
X173082143Y-91454819D01*
X173082143Y-91454819D02*
X173177381Y-91454819D01*
X173177381Y-91454819D02*
X173320238Y-91502438D01*
X173320238Y-91502438D02*
X173367857Y-91550057D01*
X173796429Y-92454819D02*
X173796429Y-91454819D01*
X174225000Y-92454819D02*
X174225000Y-91931009D01*
X174225000Y-91931009D02*
X174177381Y-91835771D01*
X174177381Y-91835771D02*
X174082143Y-91788152D01*
X174082143Y-91788152D02*
X173939286Y-91788152D01*
X173939286Y-91788152D02*
X173844048Y-91835771D01*
X173844048Y-91835771D02*
X173796429Y-91883390D01*
X175129762Y-92454819D02*
X175129762Y-91931009D01*
X175129762Y-91931009D02*
X175082143Y-91835771D01*
X175082143Y-91835771D02*
X174986905Y-91788152D01*
X174986905Y-91788152D02*
X174796429Y-91788152D01*
X174796429Y-91788152D02*
X174701191Y-91835771D01*
X175129762Y-92407200D02*
X175034524Y-92454819D01*
X175034524Y-92454819D02*
X174796429Y-92454819D01*
X174796429Y-92454819D02*
X174701191Y-92407200D01*
X174701191Y-92407200D02*
X174653572Y-92311961D01*
X174653572Y-92311961D02*
X174653572Y-92216723D01*
X174653572Y-92216723D02*
X174701191Y-92121485D01*
X174701191Y-92121485D02*
X174796429Y-92073866D01*
X174796429Y-92073866D02*
X175034524Y-92073866D01*
X175034524Y-92073866D02*
X175129762Y-92026247D01*
X175605953Y-92454819D02*
X175605953Y-91788152D01*
X175605953Y-91978628D02*
X175653572Y-91883390D01*
X175653572Y-91883390D02*
X175701191Y-91835771D01*
X175701191Y-91835771D02*
X175796429Y-91788152D01*
X175796429Y-91788152D02*
X175891667Y-91788152D01*
X176653572Y-91788152D02*
X176653572Y-92597676D01*
X176653572Y-92597676D02*
X176605953Y-92692914D01*
X176605953Y-92692914D02*
X176558334Y-92740533D01*
X176558334Y-92740533D02*
X176463096Y-92788152D01*
X176463096Y-92788152D02*
X176320239Y-92788152D01*
X176320239Y-92788152D02*
X176225001Y-92740533D01*
X176653572Y-92407200D02*
X176558334Y-92454819D01*
X176558334Y-92454819D02*
X176367858Y-92454819D01*
X176367858Y-92454819D02*
X176272620Y-92407200D01*
X176272620Y-92407200D02*
X176225001Y-92359580D01*
X176225001Y-92359580D02*
X176177382Y-92264342D01*
X176177382Y-92264342D02*
X176177382Y-91978628D01*
X176177382Y-91978628D02*
X176225001Y-91883390D01*
X176225001Y-91883390D02*
X176272620Y-91835771D01*
X176272620Y-91835771D02*
X176367858Y-91788152D01*
X176367858Y-91788152D02*
X176558334Y-91788152D01*
X176558334Y-91788152D02*
X176653572Y-91835771D01*
X177510715Y-92407200D02*
X177415477Y-92454819D01*
X177415477Y-92454819D02*
X177225001Y-92454819D01*
X177225001Y-92454819D02*
X177129763Y-92407200D01*
X177129763Y-92407200D02*
X177082144Y-92311961D01*
X177082144Y-92311961D02*
X177082144Y-91931009D01*
X177082144Y-91931009D02*
X177129763Y-91835771D01*
X177129763Y-91835771D02*
X177225001Y-91788152D01*
X177225001Y-91788152D02*
X177415477Y-91788152D01*
X177415477Y-91788152D02*
X177510715Y-91835771D01*
X177510715Y-91835771D02*
X177558334Y-91931009D01*
X177558334Y-91931009D02*
X177558334Y-92026247D01*
X177558334Y-92026247D02*
X177082144Y-92121485D01*
X177986906Y-92454819D02*
X177986906Y-91788152D01*
X177986906Y-91978628D02*
X178034525Y-91883390D01*
X178034525Y-91883390D02*
X178082144Y-91835771D01*
X178082144Y-91835771D02*
X178177382Y-91788152D01*
X178177382Y-91788152D02*
X178272620Y-91788152D01*
X179891668Y-92454819D02*
X179320240Y-92454819D01*
X179605954Y-92454819D02*
X179605954Y-91454819D01*
X179605954Y-91454819D02*
X179510716Y-91597676D01*
X179510716Y-91597676D02*
X179415478Y-91692914D01*
X179415478Y-91692914D02*
X179320240Y-91740533D01*
X180272621Y-92169104D02*
X180748811Y-92169104D01*
X180177383Y-92454819D02*
X180510716Y-91454819D01*
X180510716Y-91454819D02*
X180844049Y-92454819D01*
X113571427Y-123779819D02*
X113095237Y-123779819D01*
X113095237Y-123779819D02*
X113095237Y-122779819D01*
X113904761Y-123779819D02*
X113904761Y-123113152D01*
X113904761Y-122779819D02*
X113857142Y-122827438D01*
X113857142Y-122827438D02*
X113904761Y-122875057D01*
X113904761Y-122875057D02*
X113952380Y-122827438D01*
X113952380Y-122827438D02*
X113904761Y-122779819D01*
X113904761Y-122779819D02*
X113904761Y-122875057D01*
X114380951Y-123398866D02*
X115142856Y-123398866D01*
X115619046Y-123779819D02*
X115619046Y-123113152D01*
X115619046Y-122779819D02*
X115571427Y-122827438D01*
X115571427Y-122827438D02*
X115619046Y-122875057D01*
X115619046Y-122875057D02*
X115666665Y-122827438D01*
X115666665Y-122827438D02*
X115619046Y-122779819D01*
X115619046Y-122779819D02*
X115619046Y-122875057D01*
X116238093Y-123779819D02*
X116142855Y-123732200D01*
X116142855Y-123732200D02*
X116095236Y-123684580D01*
X116095236Y-123684580D02*
X116047617Y-123589342D01*
X116047617Y-123589342D02*
X116047617Y-123303628D01*
X116047617Y-123303628D02*
X116095236Y-123208390D01*
X116095236Y-123208390D02*
X116142855Y-123160771D01*
X116142855Y-123160771D02*
X116238093Y-123113152D01*
X116238093Y-123113152D02*
X116380950Y-123113152D01*
X116380950Y-123113152D02*
X116476188Y-123160771D01*
X116476188Y-123160771D02*
X116523807Y-123208390D01*
X116523807Y-123208390D02*
X116571426Y-123303628D01*
X116571426Y-123303628D02*
X116571426Y-123589342D01*
X116571426Y-123589342D02*
X116523807Y-123684580D01*
X116523807Y-123684580D02*
X116476188Y-123732200D01*
X116476188Y-123732200D02*
X116380950Y-123779819D01*
X116380950Y-123779819D02*
X116238093Y-123779819D01*
X116999998Y-123113152D02*
X116999998Y-123779819D01*
X116999998Y-123208390D02*
X117047617Y-123160771D01*
X117047617Y-123160771D02*
X117142855Y-123113152D01*
X117142855Y-123113152D02*
X117285712Y-123113152D01*
X117285712Y-123113152D02*
X117380950Y-123160771D01*
X117380950Y-123160771D02*
X117428569Y-123256009D01*
X117428569Y-123256009D02*
X117428569Y-123779819D01*
X119238093Y-123779819D02*
X118904760Y-123303628D01*
X118666665Y-123779819D02*
X118666665Y-122779819D01*
X118666665Y-122779819D02*
X119047617Y-122779819D01*
X119047617Y-122779819D02*
X119142855Y-122827438D01*
X119142855Y-122827438D02*
X119190474Y-122875057D01*
X119190474Y-122875057D02*
X119238093Y-122970295D01*
X119238093Y-122970295D02*
X119238093Y-123113152D01*
X119238093Y-123113152D02*
X119190474Y-123208390D01*
X119190474Y-123208390D02*
X119142855Y-123256009D01*
X119142855Y-123256009D02*
X119047617Y-123303628D01*
X119047617Y-123303628D02*
X118666665Y-123303628D01*
X120047617Y-123732200D02*
X119952379Y-123779819D01*
X119952379Y-123779819D02*
X119761903Y-123779819D01*
X119761903Y-123779819D02*
X119666665Y-123732200D01*
X119666665Y-123732200D02*
X119619046Y-123636961D01*
X119619046Y-123636961D02*
X119619046Y-123256009D01*
X119619046Y-123256009D02*
X119666665Y-123160771D01*
X119666665Y-123160771D02*
X119761903Y-123113152D01*
X119761903Y-123113152D02*
X119952379Y-123113152D01*
X119952379Y-123113152D02*
X120047617Y-123160771D01*
X120047617Y-123160771D02*
X120095236Y-123256009D01*
X120095236Y-123256009D02*
X120095236Y-123351247D01*
X120095236Y-123351247D02*
X119619046Y-123446485D01*
X120952379Y-123732200D02*
X120857141Y-123779819D01*
X120857141Y-123779819D02*
X120666665Y-123779819D01*
X120666665Y-123779819D02*
X120571427Y-123732200D01*
X120571427Y-123732200D02*
X120523808Y-123684580D01*
X120523808Y-123684580D02*
X120476189Y-123589342D01*
X120476189Y-123589342D02*
X120476189Y-123303628D01*
X120476189Y-123303628D02*
X120523808Y-123208390D01*
X120523808Y-123208390D02*
X120571427Y-123160771D01*
X120571427Y-123160771D02*
X120666665Y-123113152D01*
X120666665Y-123113152D02*
X120857141Y-123113152D01*
X120857141Y-123113152D02*
X120952379Y-123160771D01*
X121380951Y-123779819D02*
X121380951Y-122779819D01*
X121809522Y-123779819D02*
X121809522Y-123256009D01*
X121809522Y-123256009D02*
X121761903Y-123160771D01*
X121761903Y-123160771D02*
X121666665Y-123113152D01*
X121666665Y-123113152D02*
X121523808Y-123113152D01*
X121523808Y-123113152D02*
X121428570Y-123160771D01*
X121428570Y-123160771D02*
X121380951Y-123208390D01*
X122714284Y-123779819D02*
X122714284Y-123256009D01*
X122714284Y-123256009D02*
X122666665Y-123160771D01*
X122666665Y-123160771D02*
X122571427Y-123113152D01*
X122571427Y-123113152D02*
X122380951Y-123113152D01*
X122380951Y-123113152D02*
X122285713Y-123160771D01*
X122714284Y-123732200D02*
X122619046Y-123779819D01*
X122619046Y-123779819D02*
X122380951Y-123779819D01*
X122380951Y-123779819D02*
X122285713Y-123732200D01*
X122285713Y-123732200D02*
X122238094Y-123636961D01*
X122238094Y-123636961D02*
X122238094Y-123541723D01*
X122238094Y-123541723D02*
X122285713Y-123446485D01*
X122285713Y-123446485D02*
X122380951Y-123398866D01*
X122380951Y-123398866D02*
X122619046Y-123398866D01*
X122619046Y-123398866D02*
X122714284Y-123351247D01*
X123190475Y-123779819D02*
X123190475Y-123113152D01*
X123190475Y-123303628D02*
X123238094Y-123208390D01*
X123238094Y-123208390D02*
X123285713Y-123160771D01*
X123285713Y-123160771D02*
X123380951Y-123113152D01*
X123380951Y-123113152D02*
X123476189Y-123113152D01*
X124238094Y-123113152D02*
X124238094Y-123922676D01*
X124238094Y-123922676D02*
X124190475Y-124017914D01*
X124190475Y-124017914D02*
X124142856Y-124065533D01*
X124142856Y-124065533D02*
X124047618Y-124113152D01*
X124047618Y-124113152D02*
X123904761Y-124113152D01*
X123904761Y-124113152D02*
X123809523Y-124065533D01*
X124238094Y-123732200D02*
X124142856Y-123779819D01*
X124142856Y-123779819D02*
X123952380Y-123779819D01*
X123952380Y-123779819D02*
X123857142Y-123732200D01*
X123857142Y-123732200D02*
X123809523Y-123684580D01*
X123809523Y-123684580D02*
X123761904Y-123589342D01*
X123761904Y-123589342D02*
X123761904Y-123303628D01*
X123761904Y-123303628D02*
X123809523Y-123208390D01*
X123809523Y-123208390D02*
X123857142Y-123160771D01*
X123857142Y-123160771D02*
X123952380Y-123113152D01*
X123952380Y-123113152D02*
X124142856Y-123113152D01*
X124142856Y-123113152D02*
X124238094Y-123160771D01*
X125142856Y-123779819D02*
X125142856Y-123256009D01*
X125142856Y-123256009D02*
X125095237Y-123160771D01*
X125095237Y-123160771D02*
X124999999Y-123113152D01*
X124999999Y-123113152D02*
X124809523Y-123113152D01*
X124809523Y-123113152D02*
X124714285Y-123160771D01*
X125142856Y-123732200D02*
X125047618Y-123779819D01*
X125047618Y-123779819D02*
X124809523Y-123779819D01*
X124809523Y-123779819D02*
X124714285Y-123732200D01*
X124714285Y-123732200D02*
X124666666Y-123636961D01*
X124666666Y-123636961D02*
X124666666Y-123541723D01*
X124666666Y-123541723D02*
X124714285Y-123446485D01*
X124714285Y-123446485D02*
X124809523Y-123398866D01*
X124809523Y-123398866D02*
X125047618Y-123398866D01*
X125047618Y-123398866D02*
X125142856Y-123351247D01*
X125619047Y-123779819D02*
X125619047Y-122779819D01*
X125619047Y-123160771D02*
X125714285Y-123113152D01*
X125714285Y-123113152D02*
X125904761Y-123113152D01*
X125904761Y-123113152D02*
X125999999Y-123160771D01*
X125999999Y-123160771D02*
X126047618Y-123208390D01*
X126047618Y-123208390D02*
X126095237Y-123303628D01*
X126095237Y-123303628D02*
X126095237Y-123589342D01*
X126095237Y-123589342D02*
X126047618Y-123684580D01*
X126047618Y-123684580D02*
X125999999Y-123732200D01*
X125999999Y-123732200D02*
X125904761Y-123779819D01*
X125904761Y-123779819D02*
X125714285Y-123779819D01*
X125714285Y-123779819D02*
X125619047Y-123732200D01*
X126666666Y-123779819D02*
X126571428Y-123732200D01*
X126571428Y-123732200D02*
X126523809Y-123636961D01*
X126523809Y-123636961D02*
X126523809Y-122779819D01*
X127428571Y-123732200D02*
X127333333Y-123779819D01*
X127333333Y-123779819D02*
X127142857Y-123779819D01*
X127142857Y-123779819D02*
X127047619Y-123732200D01*
X127047619Y-123732200D02*
X127000000Y-123636961D01*
X127000000Y-123636961D02*
X127000000Y-123256009D01*
X127000000Y-123256009D02*
X127047619Y-123160771D01*
X127047619Y-123160771D02*
X127142857Y-123113152D01*
X127142857Y-123113152D02*
X127333333Y-123113152D01*
X127333333Y-123113152D02*
X127428571Y-123160771D01*
X127428571Y-123160771D02*
X127476190Y-123256009D01*
X127476190Y-123256009D02*
X127476190Y-123351247D01*
X127476190Y-123351247D02*
X127000000Y-123446485D01*
X129000000Y-123256009D02*
X129142857Y-123303628D01*
X129142857Y-123303628D02*
X129190476Y-123351247D01*
X129190476Y-123351247D02*
X129238095Y-123446485D01*
X129238095Y-123446485D02*
X129238095Y-123589342D01*
X129238095Y-123589342D02*
X129190476Y-123684580D01*
X129190476Y-123684580D02*
X129142857Y-123732200D01*
X129142857Y-123732200D02*
X129047619Y-123779819D01*
X129047619Y-123779819D02*
X128666667Y-123779819D01*
X128666667Y-123779819D02*
X128666667Y-122779819D01*
X128666667Y-122779819D02*
X129000000Y-122779819D01*
X129000000Y-122779819D02*
X129095238Y-122827438D01*
X129095238Y-122827438D02*
X129142857Y-122875057D01*
X129142857Y-122875057D02*
X129190476Y-122970295D01*
X129190476Y-122970295D02*
X129190476Y-123065533D01*
X129190476Y-123065533D02*
X129142857Y-123160771D01*
X129142857Y-123160771D02*
X129095238Y-123208390D01*
X129095238Y-123208390D02*
X129000000Y-123256009D01*
X129000000Y-123256009D02*
X128666667Y-123256009D01*
X129523810Y-122779819D02*
X130095238Y-122779819D01*
X129809524Y-123779819D02*
X129809524Y-122779819D01*
X130952381Y-123779819D02*
X130380953Y-123779819D01*
X130666667Y-123779819D02*
X130666667Y-122779819D01*
X130666667Y-122779819D02*
X130571429Y-122922676D01*
X130571429Y-122922676D02*
X130476191Y-123017914D01*
X130476191Y-123017914D02*
X130380953Y-123065533D01*
X100357142Y-117612200D02*
X102642857Y-117612200D01*
X101499999Y-118755057D02*
X101499999Y-116469342D01*
X120631905Y-80859819D02*
X120631905Y-79859819D01*
X120631905Y-79859819D02*
X120870000Y-79859819D01*
X120870000Y-79859819D02*
X121012857Y-79907438D01*
X121012857Y-79907438D02*
X121108095Y-80002676D01*
X121108095Y-80002676D02*
X121155714Y-80097914D01*
X121155714Y-80097914D02*
X121203333Y-80288390D01*
X121203333Y-80288390D02*
X121203333Y-80431247D01*
X121203333Y-80431247D02*
X121155714Y-80621723D01*
X121155714Y-80621723D02*
X121108095Y-80716961D01*
X121108095Y-80716961D02*
X121012857Y-80812200D01*
X121012857Y-80812200D02*
X120870000Y-80859819D01*
X120870000Y-80859819D02*
X120631905Y-80859819D01*
X122155714Y-80859819D02*
X121584286Y-80859819D01*
X121870000Y-80859819D02*
X121870000Y-79859819D01*
X121870000Y-79859819D02*
X121774762Y-80002676D01*
X121774762Y-80002676D02*
X121679524Y-80097914D01*
X121679524Y-80097914D02*
X121584286Y-80145533D01*
X116028095Y-81229819D02*
X116028095Y-80229819D01*
X116599523Y-81229819D02*
X116170952Y-80658390D01*
X116599523Y-80229819D02*
X116028095Y-80801247D01*
D11*
%TO.C,MT3608_Module1*%
X152200000Y-102050000D02*
X151200000Y-103050000D01*
X152200000Y-87050000D02*
X152200000Y-102050000D01*
X152200000Y-87050000D02*
X151200000Y-86050000D01*
X151200000Y-103050000D02*
X116200000Y-103050000D01*
X151200000Y-86050000D02*
X116200000Y-86050000D01*
X116200000Y-86050000D02*
X115200000Y-87050000D01*
X115200000Y-102050000D02*
X116200000Y-103050000D01*
X115200000Y-87050000D02*
X115200000Y-102050000D01*
%TO.C,OnOff_SlidingSW1*%
X160925000Y-75165000D02*
X171145000Y-75165000D01*
X171145000Y-77885000D01*
X160925000Y-77885000D01*
X160925000Y-75165000D01*
%TO.C,PWROFF_IND1*%
X176395000Y-73755000D02*
X177775000Y-73755000D01*
X176395000Y-75135000D02*
X176395000Y-73755000D01*
X176395000Y-76405000D02*
X176395000Y-79055000D01*
X176395000Y-76405000D02*
X179155000Y-76405000D01*
X176395000Y-79055000D02*
X179155000Y-79055000D01*
X179155000Y-76405000D02*
X179155000Y-79055000D01*
%TO.C,AMS1117_VOUTGND1*%
X128145000Y-74230000D02*
X128145000Y-76830000D01*
X128145000Y-74230000D02*
X130805000Y-74230000D01*
X128145000Y-76830000D02*
X130805000Y-76830000D01*
X129475000Y-71630000D02*
X130805000Y-71630000D01*
X130805000Y-71630000D02*
X130805000Y-72960000D01*
X130805000Y-74230000D02*
X130805000Y-76830000D01*
%TO.C,AMS1117_VINGND1*%
X149645000Y-74230000D02*
X149645000Y-76830000D01*
X149645000Y-74230000D02*
X152305000Y-74230000D01*
X149645000Y-76830000D02*
X152305000Y-76830000D01*
X150975000Y-71630000D02*
X152305000Y-71630000D01*
X152305000Y-71630000D02*
X152305000Y-72960000D01*
X152305000Y-74230000D02*
X152305000Y-76830000D01*
%TO.C,C1*%
X122320000Y-70130199D02*
X122320000Y-70530199D01*
X122520000Y-70330199D02*
X122120000Y-70330199D01*
X123205000Y-72400000D02*
X119045000Y-72400000D01*
X123205000Y-72440000D02*
X119045000Y-72440000D01*
X123203000Y-72480000D02*
X119047000Y-72480000D01*
X123202000Y-72520000D02*
X119048000Y-72520000D01*
X123199000Y-72560000D02*
X119051000Y-72560000D01*
X123196000Y-72600000D02*
X121965000Y-72600000D01*
X120285000Y-72600000D02*
X119054000Y-72600000D01*
X123191000Y-72640000D02*
X121965000Y-72640000D01*
X120285000Y-72640000D02*
X119059000Y-72640000D01*
X123186000Y-72680000D02*
X121965000Y-72680000D01*
X120285000Y-72680000D02*
X119064000Y-72680000D01*
X123181000Y-72720000D02*
X121965000Y-72720000D01*
X120285000Y-72720000D02*
X119069000Y-72720000D01*
X123174000Y-72760000D02*
X121965000Y-72760000D01*
X120285000Y-72760000D02*
X119076000Y-72760000D01*
X123167000Y-72800000D02*
X121965000Y-72800000D01*
X120285000Y-72800000D02*
X119083000Y-72800000D01*
X123159000Y-72840000D02*
X121965000Y-72840000D01*
X120285000Y-72840000D02*
X119091000Y-72840000D01*
X123150000Y-72880000D02*
X121965000Y-72880000D01*
X120285000Y-72880000D02*
X119100000Y-72880000D01*
X123140000Y-72920000D02*
X121965000Y-72920000D01*
X120285000Y-72920000D02*
X119110000Y-72920000D01*
X123130000Y-72960000D02*
X121965000Y-72960000D01*
X120285000Y-72960000D02*
X119120000Y-72960000D01*
X123118000Y-73000000D02*
X121965000Y-73000000D01*
X120285000Y-73000000D02*
X119132000Y-73000000D01*
X123106000Y-73040000D02*
X121965000Y-73040000D01*
X120285000Y-73040000D02*
X119144000Y-73040000D01*
X123093000Y-73080000D02*
X121965000Y-73080000D01*
X120285000Y-73080000D02*
X119157000Y-73080000D01*
X123079000Y-73120000D02*
X121965000Y-73120000D01*
X120285000Y-73120000D02*
X119171000Y-73120000D01*
X123064000Y-73160000D02*
X121965000Y-73160000D01*
X120285000Y-73160000D02*
X119186000Y-73160000D01*
X123048000Y-73200000D02*
X121965000Y-73200000D01*
X120285000Y-73200000D02*
X119202000Y-73200000D01*
X123031000Y-73240000D02*
X121965000Y-73240000D01*
X120285000Y-73240000D02*
X119219000Y-73240000D01*
X123014000Y-73280000D02*
X121965000Y-73280000D01*
X120285000Y-73280000D02*
X119236000Y-73280000D01*
X122995000Y-73320000D02*
X121965000Y-73320000D01*
X120285000Y-73320000D02*
X119255000Y-73320000D01*
X122975000Y-73360000D02*
X121965000Y-73360000D01*
X120285000Y-73360000D02*
X119275000Y-73360000D01*
X122954000Y-73400000D02*
X121965000Y-73400000D01*
X120285000Y-73400000D02*
X119296000Y-73400000D01*
X122932000Y-73440000D02*
X121965000Y-73440000D01*
X120285000Y-73440000D02*
X119318000Y-73440000D01*
X122909000Y-73480000D02*
X121965000Y-73480000D01*
X120285000Y-73480000D02*
X119341000Y-73480000D01*
X122885000Y-73520000D02*
X121965000Y-73520000D01*
X120285000Y-73520000D02*
X119365000Y-73520000D01*
X122859000Y-73560000D02*
X121965000Y-73560000D01*
X120285000Y-73560000D02*
X119391000Y-73560000D01*
X122833000Y-73600000D02*
X121965000Y-73600000D01*
X120285000Y-73600000D02*
X119417000Y-73600000D01*
X122805000Y-73640000D02*
X121965000Y-73640000D01*
X120285000Y-73640000D02*
X119445000Y-73640000D01*
X122775000Y-73680000D02*
X121965000Y-73680000D01*
X120285000Y-73680000D02*
X119475000Y-73680000D01*
X122744000Y-73720000D02*
X121965000Y-73720000D01*
X120285000Y-73720000D02*
X119506000Y-73720000D01*
X122711000Y-73760000D02*
X121965000Y-73760000D01*
X120285000Y-73760000D02*
X119539000Y-73760000D01*
X122677000Y-73800000D02*
X121965000Y-73800000D01*
X120285000Y-73800000D02*
X119573000Y-73800000D01*
X122641000Y-73840000D02*
X121965000Y-73840000D01*
X120285000Y-73840000D02*
X119609000Y-73840000D01*
X122603000Y-73880000D02*
X121965000Y-73880000D01*
X120285000Y-73880000D02*
X119647000Y-73880000D01*
X122563000Y-73920000D02*
X121965000Y-73920000D01*
X120285000Y-73920000D02*
X119687000Y-73920000D01*
X122521000Y-73960000D02*
X121965000Y-73960000D01*
X120285000Y-73960000D02*
X119729000Y-73960000D01*
X122476000Y-74000000D02*
X121965000Y-74000000D01*
X120285000Y-74000000D02*
X119774000Y-74000000D01*
X122428000Y-74040000D02*
X121965000Y-74040000D01*
X120285000Y-74040000D02*
X119822000Y-74040000D01*
X122378000Y-74080000D02*
X121965000Y-74080000D01*
X120285000Y-74080000D02*
X119872000Y-74080000D01*
X122324000Y-74120000D02*
X121965000Y-74120000D01*
X120285000Y-74120000D02*
X119926000Y-74120000D01*
X122267000Y-74160000D02*
X121965000Y-74160000D01*
X120285000Y-74160000D02*
X119983000Y-74160000D01*
X122205000Y-74200000D02*
X121965000Y-74200000D01*
X120285000Y-74200000D02*
X120045000Y-74200000D01*
X122138000Y-74240000D02*
X120112000Y-74240000D01*
X122065000Y-74280000D02*
X120185000Y-74280000D01*
X121984000Y-74320000D02*
X120266000Y-74320000D01*
X121893000Y-74360000D02*
X120357000Y-74360000D01*
X121788000Y-74400000D02*
X120462000Y-74400000D01*
X121662000Y-74440000D02*
X120588000Y-74440000D01*
X121495000Y-74480000D02*
X120755000Y-74480000D01*
X123245000Y-72400000D02*
G75*
G02*
X119005000Y-72400000I-2120000J0D01*
G01*
X119005000Y-72400000D02*
G75*
G02*
X123245000Y-72400000I2120000J0D01*
G01*
%TO.C,R2*%
X103380000Y-102835000D02*
X103380000Y-96295000D01*
X103710000Y-102835000D02*
X103380000Y-102835000D01*
X105790000Y-102835000D02*
X106120000Y-102835000D01*
X106120000Y-102835000D02*
X106120000Y-96295000D01*
X103380000Y-96295000D02*
X103710000Y-96295000D01*
X106120000Y-96295000D02*
X105790000Y-96295000D01*
%TO.C,R1*%
X108930000Y-102810000D02*
X108930000Y-96270000D01*
X109260000Y-102810000D02*
X108930000Y-102810000D01*
X111340000Y-102810000D02*
X111670000Y-102810000D01*
X111670000Y-102810000D02*
X111670000Y-96270000D01*
X108930000Y-96270000D02*
X109260000Y-96270000D01*
X111670000Y-96270000D02*
X111340000Y-96270000D01*
%TO.C,POWER_RAIL1*%
X101095000Y-79275000D02*
X102475000Y-79275000D01*
X101095000Y-80655000D02*
X101095000Y-79275000D01*
X101095000Y-81925000D02*
X101095000Y-89655000D01*
X101095000Y-81925000D02*
X103855000Y-81925000D01*
X101095000Y-89655000D02*
X103855000Y-89655000D01*
X103855000Y-81925000D02*
X103855000Y-89655000D01*
D10*
%TO.C,TP4056_Module1*%
X158025000Y-83100000D02*
X186425000Y-83100000D01*
X158025000Y-85200000D02*
X158025000Y-83100000D01*
X158025000Y-85500000D02*
X158025000Y-85200000D01*
X158025000Y-98400000D02*
X160325000Y-98400000D01*
X158025000Y-100900000D02*
X158025000Y-98400000D01*
X160125000Y-85500000D02*
X158025000Y-85500000D01*
X160125000Y-100900000D02*
X158025000Y-100900000D01*
X160325000Y-85500000D02*
X160025000Y-85500000D01*
X160325000Y-98400000D02*
X160325000Y-85500000D01*
X183525000Y-89900000D02*
X186025000Y-89900000D01*
X183525000Y-93700000D02*
X183525000Y-89900000D01*
X186025000Y-89900000D02*
X186025000Y-93600000D01*
X186025000Y-93700000D02*
X183525000Y-93700000D01*
X186425000Y-83100000D02*
X186425000Y-100900000D01*
X186425000Y-100900000D02*
X160125000Y-100900000D01*
D11*
%TO.C,Li-ion Rechargable BT1*%
X181340000Y-128425000D02*
X103160000Y-128425000D01*
X181340000Y-106225000D02*
X181340000Y-128425000D01*
X103160000Y-128425000D02*
X103160000Y-106225000D01*
X103160000Y-106225000D02*
X181340000Y-106225000D01*
%TO.C,D1*%
X117630000Y-82875000D02*
X118650000Y-82875000D01*
X119430000Y-81405000D02*
X119430000Y-84345000D01*
X119550000Y-81405000D02*
X119550000Y-84345000D01*
X119670000Y-81405000D02*
X119670000Y-84345000D01*
X125110000Y-82875000D02*
X124090000Y-82875000D01*
X118650000Y-81405000D02*
X124090000Y-81405000D01*
X124090000Y-84345000D01*
X118650000Y-84345000D01*
X118650000Y-81405000D01*
%TD*%
M02*
