%TF.GenerationSoftware,KiCad,Pcbnew,9.0.6*%
%TF.CreationDate,2026-01-16T16:59:01+03:00*%
%TF.ProjectId,RegulatedPowerSupply3.3V5V,52656775-6c61-4746-9564-506f77657253,rev?*%
%TF.SameCoordinates,Original*%
%TF.FileFunction,Copper,L2,Bot*%
%TF.FilePolarity,Positive*%
%FSLAX46Y46*%
G04 Gerber Fmt 4.6, Leading zero omitted, Abs format (unit mm)*
G04 Created by KiCad (PCBNEW 9.0.6) date 2026-01-16 16:59:01*
%MOMM*%
%LPD*%
G01*
G04 APERTURE LIST*
G04 Aperture macros list*
%AMRoundRect*
0 Rectangle with rounded corners*
0 $1 Rounding radius*
0 $2 $3 $4 $5 $6 $7 $8 $9 X,Y pos of 4 corners*
0 Add a 4 corners polygon primitive as box body*
4,1,4,$2,$3,$4,$5,$6,$7,$8,$9,$2,$3,0*
0 Add four circle primitives for the rounded corners*
1,1,$1+$1,$2,$3*
1,1,$1+$1,$4,$5*
1,1,$1+$1,$6,$7*
1,1,$1+$1,$8,$9*
0 Add four rect primitives between the rounded corners*
20,1,$1+$1,$2,$3,$4,$5,0*
20,1,$1+$1,$4,$5,$6,$7,0*
20,1,$1+$1,$6,$7,$8,$9,0*
20,1,$1+$1,$8,$9,$2,$3,0*%
G04 Aperture macros list end*
%TA.AperFunction,ComponentPad*%
%ADD10RoundRect,0.750000X1.750000X0.750000X-1.750000X0.750000X-1.750000X-0.750000X1.750000X-0.750000X0*%
%TD*%
%TA.AperFunction,ComponentPad*%
%ADD11C,1.600000*%
%TD*%
%TA.AperFunction,ComponentPad*%
%ADD12R,1.500000X1.500000*%
%TD*%
%TA.AperFunction,ComponentPad*%
%ADD13R,1.700000X1.700000*%
%TD*%
%TA.AperFunction,ComponentPad*%
%ADD14C,1.700000*%
%TD*%
%TA.AperFunction,ComponentPad*%
%ADD15RoundRect,0.250000X-0.350000X0.350000X-0.350000X-0.350000X0.350000X-0.350000X0.350000X0.350000X0*%
%TD*%
%TA.AperFunction,ComponentPad*%
%ADD16C,1.200000*%
%TD*%
%TA.AperFunction,ComponentPad*%
%ADD17R,2.800000X2.800000*%
%TD*%
%TA.AperFunction,ComponentPad*%
%ADD18RoundRect,0.249999X-1.250001X-1.250001X1.250001X-1.250001X1.250001X1.250001X-1.250001X1.250001X0*%
%TD*%
%TA.AperFunction,ComponentPad*%
%ADD19C,3.000000*%
%TD*%
%TA.AperFunction,ComponentPad*%
%ADD20RoundRect,0.249999X-0.850001X-0.850001X0.850001X-0.850001X0.850001X0.850001X-0.850001X0.850001X0*%
%TD*%
%TA.AperFunction,ComponentPad*%
%ADD21C,2.200000*%
%TD*%
%TA.AperFunction,Conductor*%
%ADD22C,0.500000*%
%TD*%
%TA.AperFunction,Conductor*%
%ADD23C,0.250000*%
%TD*%
G04 APERTURE END LIST*
D10*
%TO.P,MT3608_Module1,1,VIN+*%
%TO.N,/TP4056+*%
X148900000Y-91150000D03*
%TO.P,MT3608_Module1,2,VIN-*%
%TO.N,GND*%
X148900000Y-97950000D03*
%TO.P,MT3608_Module1,3,VOUT-*%
X118400000Y-97950000D03*
%TO.P,MT3608_Module1,4,VOUT+*%
%TO.N,/5V*%
X118400000Y-91150000D03*
%TD*%
D11*
%TO.P,OnOff_SlidingSW1,3,A*%
%TO.N,Net-(OnOff_SlidingSW1-A)*%
X168575000Y-76525000D03*
%TO.P,OnOff_SlidingSW1,2,C*%
%TO.N,/TP4056+*%
X163495000Y-76525000D03*
D12*
%TO.P,OnOff_SlidingSW1,1,B*%
X166035000Y-76525000D03*
%TD*%
D13*
%TO.P,PWROFF_IND1,1,Pin_1*%
%TO.N,Net-(OnOff_SlidingSW1-A)*%
X177775000Y-75135000D03*
D14*
%TO.P,PWROFF_IND1,2,Pin_2*%
%TO.N,GND*%
X177775000Y-77675000D03*
%TD*%
D13*
%TO.P,AMS1117_VOUTGND1,1,Pin_1*%
%TO.N,GND*%
X129475000Y-72960000D03*
D14*
%TO.P,AMS1117_VOUTGND1,2,Pin_2*%
%TO.N,/3.3V*%
X129475000Y-75500000D03*
%TD*%
D13*
%TO.P,AMS1117_VINGND1,1,Pin_1*%
%TO.N,GND*%
X150975000Y-72960000D03*
D14*
%TO.P,AMS1117_VINGND1,2,Pin_2*%
%TO.N,/5V*%
X150975000Y-75500000D03*
%TD*%
D15*
%TO.P,C1,1*%
%TO.N,/3.3V*%
X121125000Y-71400000D03*
D16*
%TO.P,C1,2*%
%TO.N,GND*%
X121125000Y-73400000D03*
%TD*%
D11*
%TO.P,R2,1*%
%TO.N,/BATT+*%
X104750000Y-103375000D03*
%TO.P,R2,2*%
X104750000Y-95755000D03*
%TD*%
%TO.P,R1,1*%
%TO.N,GND*%
X110300000Y-103350000D03*
%TO.P,R1,2*%
%TO.N,/BATT+*%
X110300000Y-95730000D03*
%TD*%
D13*
%TO.P,POWER_RAIL1,1,Pin_1*%
%TO.N,/3.3V*%
X102475000Y-80655000D03*
D14*
%TO.P,POWER_RAIL1,2,Pin_2*%
%TO.N,/5V*%
X102475000Y-83195000D03*
%TO.P,POWER_RAIL1,3,Pin_3*%
%TO.N,/BATT+*%
X102475000Y-85735000D03*
%TO.P,POWER_RAIL1,4,Pin_4*%
%TO.N,GND*%
X102475000Y-88275000D03*
%TD*%
D17*
%TO.P,TP4056_Module1,1,5V_IN+*%
%TO.N,unconnected-(TP4056_Module1-5V_IN+-Pad1)*%
X184725000Y-99200000D03*
%TO.P,TP4056_Module1,2,GND*%
%TO.N,unconnected-(TP4056_Module1-GND-Pad2)*%
X184725000Y-85000000D03*
%TO.P,TP4056_Module1,3,OUT+*%
%TO.N,/TP4056+*%
X161825000Y-99200000D03*
%TO.P,TP4056_Module1,4,OUT-*%
%TO.N,GND*%
X161825000Y-84700000D03*
%TO.P,TP4056_Module1,5,BAT+*%
%TO.N,/BATT+*%
X161825000Y-95700000D03*
%TO.P,TP4056_Module1,6,BAT-*%
%TO.N,/BATT-*%
X161825000Y-88100000D03*
%TD*%
D18*
%TO.P,Li-ion Rechargable BT1,1,+*%
%TO.N,/BATT+*%
X106000000Y-117325000D03*
D19*
%TO.P,Li-ion Rechargable BT1,2,-*%
%TO.N,/BATT-*%
X178900000Y-117325000D03*
%TD*%
D20*
%TO.P,D1,1,K*%
%TO.N,/5V*%
X116290000Y-82875000D03*
D21*
%TO.P,D1,2,A*%
X126450000Y-82875000D03*
%TD*%
D22*
%TO.N,/BATT+*%
X169925000Y-99900000D02*
X169925000Y-111500000D01*
X106000000Y-117325000D02*
X109325000Y-114000000D01*
X167425000Y-114000000D02*
X169925000Y-111500000D01*
X109325000Y-114000000D02*
X167425000Y-114000000D01*
X161825000Y-95700000D02*
X165725000Y-95700000D01*
X165725000Y-95700000D02*
X169925000Y-99900000D01*
X169925000Y-111500000D02*
X169925000Y-111700000D01*
%TO.N,/5V*%
X116290000Y-81235000D02*
X118100000Y-79425000D01*
X118100000Y-79425000D02*
X147050000Y-79425000D01*
X116290000Y-82875000D02*
X116290000Y-81235000D01*
X147050000Y-79425000D02*
X150975000Y-75500000D01*
X116290000Y-82875000D02*
X102795000Y-82875000D01*
D23*
X102795000Y-82875000D02*
X102475000Y-83195000D01*
D22*
X125200000Y-91150000D02*
X126450000Y-89900000D01*
X126450000Y-89900000D02*
X126450000Y-82875000D01*
D23*
%TO.N,/BATT+*%
X110300000Y-95730000D02*
X110300000Y-93560000D01*
X110300000Y-93560000D02*
X102475000Y-85735000D01*
D22*
%TO.N,/3.3V*%
X121125000Y-71400000D02*
X114030000Y-71400000D01*
X114030000Y-71400000D02*
X104775000Y-80655000D01*
X104775000Y-80655000D02*
X102475000Y-80655000D01*
D23*
%TO.N,/BATT+*%
X104750000Y-95755000D02*
X110275000Y-95755000D01*
X110275000Y-95755000D02*
X110300000Y-95730000D01*
X104750000Y-103375000D02*
X104750000Y-116075000D01*
X104750000Y-116075000D02*
X106000000Y-117325000D01*
D22*
%TO.N,/3.3V*%
X129475000Y-75500000D02*
X125375000Y-71400000D01*
X125375000Y-71400000D02*
X121125000Y-71400000D01*
%TO.N,/5V*%
X118400000Y-91150000D02*
X125200000Y-91150000D01*
%TO.N,/TP4056+*%
X158975000Y-81075000D02*
X158975000Y-81045000D01*
X158975000Y-81045000D02*
X163495000Y-76525000D01*
X158975000Y-81075000D02*
X148900000Y-91150000D01*
X165625000Y-76525000D02*
X155525000Y-86625000D01*
X166035000Y-76525000D02*
X165625000Y-76525000D01*
X155575000Y-97425000D02*
X155525000Y-97375000D01*
X155525000Y-97375000D02*
X155525000Y-86625000D01*
X161825000Y-99200000D02*
X157350000Y-99200000D01*
X157350000Y-99200000D02*
X155575000Y-97425000D01*
%TO.N,/BATT-*%
X164850000Y-88100000D02*
X174275000Y-97525000D01*
X161825000Y-88100000D02*
X164850000Y-88100000D01*
X174275000Y-97525000D02*
X174275000Y-112700000D01*
X174275000Y-112700000D02*
X178900000Y-117325000D01*
%TO.N,Net-(OnOff_SlidingSW1-A)*%
X177775000Y-75135000D02*
X173915000Y-75135000D01*
X173915000Y-75135000D02*
X172525000Y-76525000D01*
X168575000Y-76525000D02*
X172525000Y-76525000D01*
%TD*%
%TA.AperFunction,Conductor*%
%TO.N,GND*%
G36*
X186917539Y-69270185D02*
G01*
X186963294Y-69322989D01*
X186974500Y-69374500D01*
X186974500Y-128125500D01*
X186954815Y-128192539D01*
X186902011Y-128238294D01*
X186850500Y-128249500D01*
X98099500Y-128249500D01*
X98032461Y-128229815D01*
X97986706Y-128177011D01*
X97975500Y-128125500D01*
X97975500Y-125524038D01*
X99249500Y-125524038D01*
X99249500Y-125775961D01*
X99288910Y-126024785D01*
X99366760Y-126264383D01*
X99481132Y-126488848D01*
X99629201Y-126692649D01*
X99629205Y-126692654D01*
X99807345Y-126870794D01*
X99807350Y-126870798D01*
X99985117Y-126999952D01*
X100011155Y-127018870D01*
X100154184Y-127091747D01*
X100235616Y-127133239D01*
X100235618Y-127133239D01*
X100235621Y-127133241D01*
X100475215Y-127211090D01*
X100724038Y-127250500D01*
X100724039Y-127250500D01*
X100975961Y-127250500D01*
X100975962Y-127250500D01*
X101224785Y-127211090D01*
X101464379Y-127133241D01*
X101688845Y-127018870D01*
X101892656Y-126870793D01*
X102070793Y-126692656D01*
X102218870Y-126488845D01*
X102333241Y-126264379D01*
X102411090Y-126024785D01*
X102450500Y-125775962D01*
X102450500Y-125524038D01*
X182699500Y-125524038D01*
X182699500Y-125775961D01*
X182738910Y-126024785D01*
X182816760Y-126264383D01*
X182931132Y-126488848D01*
X183079201Y-126692649D01*
X183079205Y-126692654D01*
X183257345Y-126870794D01*
X183257350Y-126870798D01*
X183435117Y-126999952D01*
X183461155Y-127018870D01*
X183604184Y-127091747D01*
X183685616Y-127133239D01*
X183685618Y-127133239D01*
X183685621Y-127133241D01*
X183925215Y-127211090D01*
X184174038Y-127250500D01*
X184174039Y-127250500D01*
X184425961Y-127250500D01*
X184425962Y-127250500D01*
X184674785Y-127211090D01*
X184914379Y-127133241D01*
X185138845Y-127018870D01*
X185342656Y-126870793D01*
X185520793Y-126692656D01*
X185668870Y-126488845D01*
X185783241Y-126264379D01*
X185861090Y-126024785D01*
X185900500Y-125775962D01*
X185900500Y-125524038D01*
X185861090Y-125275215D01*
X185783241Y-125035621D01*
X185783239Y-125035618D01*
X185783239Y-125035616D01*
X185741747Y-124954184D01*
X185668870Y-124811155D01*
X185649952Y-124785117D01*
X185520798Y-124607350D01*
X185520794Y-124607345D01*
X185342654Y-124429205D01*
X185342649Y-124429201D01*
X185138848Y-124281132D01*
X185138847Y-124281131D01*
X185138845Y-124281130D01*
X185068747Y-124245413D01*
X184914383Y-124166760D01*
X184674785Y-124088910D01*
X184425962Y-124049500D01*
X184174038Y-124049500D01*
X184049626Y-124069205D01*
X183925214Y-124088910D01*
X183685616Y-124166760D01*
X183461151Y-124281132D01*
X183257350Y-124429201D01*
X183257345Y-124429205D01*
X183079205Y-124607345D01*
X183079201Y-124607350D01*
X182931132Y-124811151D01*
X182816760Y-125035616D01*
X182738910Y-125275214D01*
X182699500Y-125524038D01*
X102450500Y-125524038D01*
X102411090Y-125275215D01*
X102333241Y-125035621D01*
X102333239Y-125035618D01*
X102333239Y-125035616D01*
X102291747Y-124954184D01*
X102218870Y-124811155D01*
X102199952Y-124785117D01*
X102070798Y-124607350D01*
X102070794Y-124607345D01*
X101892654Y-124429205D01*
X101892649Y-124429201D01*
X101688848Y-124281132D01*
X101688847Y-124281131D01*
X101688845Y-124281130D01*
X101618747Y-124245413D01*
X101464383Y-124166760D01*
X101224785Y-124088910D01*
X100975962Y-124049500D01*
X100724038Y-124049500D01*
X100599626Y-124069205D01*
X100475214Y-124088910D01*
X100235616Y-124166760D01*
X100011151Y-124281132D01*
X99807350Y-124429201D01*
X99807345Y-124429205D01*
X99629205Y-124607345D01*
X99629201Y-124607350D01*
X99481132Y-124811151D01*
X99366760Y-125035616D01*
X99288910Y-125275214D01*
X99249500Y-125524038D01*
X97975500Y-125524038D01*
X97975500Y-103272648D01*
X103449500Y-103272648D01*
X103449500Y-103477351D01*
X103481522Y-103679534D01*
X103544781Y-103874223D01*
X103608691Y-103999653D01*
X103624842Y-104031350D01*
X103637715Y-104056613D01*
X103758028Y-104222213D01*
X103758034Y-104222219D01*
X103902781Y-104366966D01*
X104068390Y-104487287D01*
X104068394Y-104487289D01*
X104072332Y-104490150D01*
X104071111Y-104491829D01*
X104112155Y-104537177D01*
X104124500Y-104591114D01*
X104124500Y-115624335D01*
X104106039Y-115689431D01*
X104065189Y-115755658D01*
X104065186Y-115755665D01*
X104010001Y-115922202D01*
X104010001Y-115922203D01*
X104010000Y-115922203D01*
X103999500Y-116024982D01*
X103999500Y-118625017D01*
X104010000Y-118727796D01*
X104056107Y-118866936D01*
X104065186Y-118894335D01*
X104157288Y-119043656D01*
X104281344Y-119167712D01*
X104430665Y-119259814D01*
X104597202Y-119314999D01*
X104699990Y-119325500D01*
X104699995Y-119325500D01*
X107300005Y-119325500D01*
X107300010Y-119325500D01*
X107402798Y-119314999D01*
X107569335Y-119259814D01*
X107718656Y-119167712D01*
X107842712Y-119043656D01*
X107934814Y-118894335D01*
X107989999Y-118727798D01*
X108000500Y-118625010D01*
X108000500Y-117203711D01*
X112594500Y-117203711D01*
X112594500Y-117446288D01*
X112626161Y-117686785D01*
X112688947Y-117921104D01*
X112708960Y-117969419D01*
X112781776Y-118145212D01*
X112903064Y-118355289D01*
X112903066Y-118355292D01*
X112903067Y-118355293D01*
X113050733Y-118547736D01*
X113050739Y-118547743D01*
X113222256Y-118719260D01*
X113222262Y-118719265D01*
X113414711Y-118866936D01*
X113624788Y-118988224D01*
X113848900Y-119081054D01*
X114083211Y-119143838D01*
X114263586Y-119167584D01*
X114323711Y-119175500D01*
X114323712Y-119175500D01*
X114566289Y-119175500D01*
X114625460Y-119167710D01*
X114806789Y-119143838D01*
X115041100Y-119081054D01*
X115265212Y-118988224D01*
X115475289Y-118866936D01*
X115667738Y-118719265D01*
X115839265Y-118547738D01*
X115986936Y-118355289D01*
X116108224Y-118145212D01*
X116201054Y-117921100D01*
X116263838Y-117686789D01*
X116295500Y-117446288D01*
X116295500Y-117203712D01*
X116295500Y-117203711D01*
X168204500Y-117203711D01*
X168204500Y-117446288D01*
X168236161Y-117686785D01*
X168298947Y-117921104D01*
X168318960Y-117969419D01*
X168391776Y-118145212D01*
X168513064Y-118355289D01*
X168513066Y-118355292D01*
X168513067Y-118355293D01*
X168660733Y-118547736D01*
X168660739Y-118547743D01*
X168832256Y-118719260D01*
X168832262Y-118719265D01*
X169024711Y-118866936D01*
X169234788Y-118988224D01*
X169458900Y-119081054D01*
X169693211Y-119143838D01*
X169873586Y-119167584D01*
X169933711Y-119175500D01*
X169933712Y-119175500D01*
X170176289Y-119175500D01*
X170235460Y-119167710D01*
X170416789Y-119143838D01*
X170651100Y-119081054D01*
X170875212Y-118988224D01*
X171085289Y-118866936D01*
X171277738Y-118719265D01*
X171449265Y-118547738D01*
X171596936Y-118355289D01*
X171718224Y-118145212D01*
X171811054Y-117921100D01*
X171873838Y-117686789D01*
X171905500Y-117446288D01*
X171905500Y-117203712D01*
X171904206Y-117193886D01*
X171873838Y-116963214D01*
X171873838Y-116963211D01*
X171811054Y-116728900D01*
X171718224Y-116504788D01*
X171596936Y-116294711D01*
X171449265Y-116102262D01*
X171449260Y-116102256D01*
X171277743Y-115930739D01*
X171277736Y-115930733D01*
X171085293Y-115783067D01*
X171085292Y-115783066D01*
X171085289Y-115783064D01*
X170875212Y-115661776D01*
X170869720Y-115659501D01*
X170651104Y-115568947D01*
X170416785Y-115506161D01*
X170176289Y-115474500D01*
X170176288Y-115474500D01*
X169933712Y-115474500D01*
X169933711Y-115474500D01*
X169693214Y-115506161D01*
X169458895Y-115568947D01*
X169234794Y-115661773D01*
X169234785Y-115661777D01*
X169024706Y-115783067D01*
X168832263Y-115930733D01*
X168832256Y-115930739D01*
X168660739Y-116102256D01*
X168660733Y-116102263D01*
X168513067Y-116294706D01*
X168391777Y-116504785D01*
X168391773Y-116504794D01*
X168298947Y-116728895D01*
X168236161Y-116963214D01*
X168204500Y-117203711D01*
X116295500Y-117203711D01*
X116294206Y-117193886D01*
X116263838Y-116963214D01*
X116263838Y-116963211D01*
X116201054Y-116728900D01*
X116108224Y-116504788D01*
X115986936Y-116294711D01*
X115839265Y-116102262D01*
X115839260Y-116102256D01*
X115667743Y-115930739D01*
X115667736Y-115930733D01*
X115475293Y-115783067D01*
X115475292Y-115783066D01*
X115475289Y-115783064D01*
X115265212Y-115661776D01*
X115259720Y-115659501D01*
X115041104Y-115568947D01*
X114806785Y-115506161D01*
X114566289Y-115474500D01*
X114566288Y-115474500D01*
X114323712Y-115474500D01*
X114323711Y-115474500D01*
X114083214Y-115506161D01*
X113848895Y-115568947D01*
X113624794Y-115661773D01*
X113624785Y-115661777D01*
X113414706Y-115783067D01*
X113222263Y-115930733D01*
X113222256Y-115930739D01*
X113050739Y-116102256D01*
X113050733Y-116102263D01*
X112903067Y-116294706D01*
X112781777Y-116504785D01*
X112781773Y-116504794D01*
X112688947Y-116728895D01*
X112626161Y-116963214D01*
X112594500Y-117203711D01*
X108000500Y-117203711D01*
X108000500Y-116437229D01*
X108020185Y-116370190D01*
X108036819Y-116349548D01*
X109599548Y-114786819D01*
X109660871Y-114753334D01*
X109687229Y-114750500D01*
X167498920Y-114750500D01*
X167596462Y-114731096D01*
X167643913Y-114721658D01*
X167780495Y-114665084D01*
X167829729Y-114632186D01*
X167903416Y-114582952D01*
X170018447Y-112467919D01*
X170079768Y-112434436D01*
X170081778Y-112434016D01*
X170143913Y-112421658D01*
X170280495Y-112365084D01*
X170403416Y-112282951D01*
X170507951Y-112178416D01*
X170590084Y-112055495D01*
X170646658Y-111918913D01*
X170675500Y-111773918D01*
X170675500Y-111426082D01*
X170675500Y-99826082D01*
X170675500Y-99826079D01*
X170646659Y-99681092D01*
X170646658Y-99681091D01*
X170646658Y-99681087D01*
X170590084Y-99544505D01*
X170557186Y-99495270D01*
X170557185Y-99495268D01*
X170507956Y-99421589D01*
X170507952Y-99421584D01*
X166203421Y-95117052D01*
X166203420Y-95117051D01*
X166192590Y-95109815D01*
X166100660Y-95048390D01*
X166100660Y-95048389D01*
X166080495Y-95034916D01*
X166080490Y-95034913D01*
X165943917Y-94978343D01*
X165943907Y-94978340D01*
X165798920Y-94949500D01*
X165798918Y-94949500D01*
X163849499Y-94949500D01*
X163782460Y-94929815D01*
X163736705Y-94877011D01*
X163725499Y-94825500D01*
X163725499Y-94252129D01*
X163725498Y-94252123D01*
X163725497Y-94252116D01*
X163719091Y-94192517D01*
X163668796Y-94057669D01*
X163668795Y-94057668D01*
X163668793Y-94057664D01*
X163582547Y-93942455D01*
X163582544Y-93942452D01*
X163467335Y-93856206D01*
X163467328Y-93856202D01*
X163332482Y-93805908D01*
X163332483Y-93805908D01*
X163272883Y-93799501D01*
X163272881Y-93799500D01*
X163272873Y-93799500D01*
X163272864Y-93799500D01*
X160377129Y-93799500D01*
X160377123Y-93799501D01*
X160317516Y-93805908D01*
X160182671Y-93856202D01*
X160182664Y-93856206D01*
X160067455Y-93942452D01*
X160067452Y-93942455D01*
X159981206Y-94057664D01*
X159981202Y-94057671D01*
X159930908Y-94192517D01*
X159924501Y-94252116D01*
X159924501Y-94252123D01*
X159924500Y-94252135D01*
X159924500Y-97147870D01*
X159924501Y-97147876D01*
X159930908Y-97207483D01*
X159981202Y-97342328D01*
X159981203Y-97342330D01*
X160006176Y-97375690D01*
X160030592Y-97441155D01*
X160015740Y-97509428D01*
X160006176Y-97524310D01*
X159981203Y-97557669D01*
X159981202Y-97557671D01*
X159930908Y-97692517D01*
X159926825Y-97730499D01*
X159924501Y-97752123D01*
X159924500Y-97752135D01*
X159924500Y-98325500D01*
X159904815Y-98392539D01*
X159852011Y-98438294D01*
X159800500Y-98449500D01*
X157712230Y-98449500D01*
X157645191Y-98429815D01*
X157624549Y-98413181D01*
X156311819Y-97100451D01*
X156278334Y-97039128D01*
X156275500Y-97012770D01*
X156275500Y-86987229D01*
X156295185Y-86920190D01*
X156311814Y-86899553D01*
X159713320Y-83498047D01*
X159774642Y-83464563D01*
X159844334Y-83469547D01*
X159900267Y-83511419D01*
X159924684Y-83576883D01*
X159925000Y-83585729D01*
X159925000Y-84450000D01*
X161095111Y-84450000D01*
X161084590Y-84475399D01*
X161055000Y-84624162D01*
X161055000Y-84775838D01*
X161084590Y-84924601D01*
X161095111Y-84950000D01*
X159925000Y-84950000D01*
X159925000Y-86147844D01*
X159931401Y-86207372D01*
X159931403Y-86207379D01*
X159984746Y-86350399D01*
X159982930Y-86351076D01*
X159995383Y-86408316D01*
X159983428Y-86449033D01*
X159984303Y-86449359D01*
X159930908Y-86592517D01*
X159924501Y-86652116D01*
X159924501Y-86652123D01*
X159924500Y-86652135D01*
X159924500Y-89547870D01*
X159924501Y-89547876D01*
X159930908Y-89607483D01*
X159981202Y-89742328D01*
X159981206Y-89742335D01*
X160067452Y-89857544D01*
X160067455Y-89857547D01*
X160182664Y-89943793D01*
X160182671Y-89943797D01*
X160317517Y-89994091D01*
X160317516Y-89994091D01*
X160324444Y-89994835D01*
X160377127Y-90000500D01*
X163272872Y-90000499D01*
X163332483Y-89994091D01*
X163467331Y-89943796D01*
X163582546Y-89857546D01*
X163668796Y-89742331D01*
X163719091Y-89607483D01*
X163725500Y-89547873D01*
X163725500Y-88974500D01*
X163745185Y-88907461D01*
X163797989Y-88861706D01*
X163849500Y-88850500D01*
X164487770Y-88850500D01*
X164554809Y-88870185D01*
X164575451Y-88886819D01*
X173488181Y-97799549D01*
X173521666Y-97860872D01*
X173524500Y-97887230D01*
X173524500Y-112773918D01*
X173524500Y-112773920D01*
X173524499Y-112773920D01*
X173553340Y-112918907D01*
X173553343Y-112918917D01*
X173609914Y-113055492D01*
X173642812Y-113104727D01*
X173642813Y-113104730D01*
X173692046Y-113178414D01*
X173692052Y-113178421D01*
X176999429Y-116485797D01*
X177032914Y-116547120D01*
X177027930Y-116616812D01*
X177026309Y-116620930D01*
X177001607Y-116680565D01*
X177001602Y-116680581D01*
X176933730Y-116933885D01*
X176899500Y-117193872D01*
X176899500Y-117456127D01*
X176926123Y-117658339D01*
X176933730Y-117716116D01*
X176988655Y-117921100D01*
X177001602Y-117969418D01*
X177001605Y-117969428D01*
X177101953Y-118211690D01*
X177101958Y-118211700D01*
X177233075Y-118438803D01*
X177392718Y-118646851D01*
X177392726Y-118646860D01*
X177578140Y-118832274D01*
X177578148Y-118832281D01*
X177786196Y-118991924D01*
X178013299Y-119123041D01*
X178013309Y-119123046D01*
X178255571Y-119223394D01*
X178255581Y-119223398D01*
X178508884Y-119291270D01*
X178768880Y-119325500D01*
X178768887Y-119325500D01*
X179031113Y-119325500D01*
X179031120Y-119325500D01*
X179291116Y-119291270D01*
X179544419Y-119223398D01*
X179786697Y-119123043D01*
X180013803Y-118991924D01*
X180221851Y-118832282D01*
X180221855Y-118832277D01*
X180221860Y-118832274D01*
X180407274Y-118646860D01*
X180407277Y-118646855D01*
X180407282Y-118646851D01*
X180566924Y-118438803D01*
X180698043Y-118211697D01*
X180798398Y-117969419D01*
X180866270Y-117716116D01*
X180900500Y-117456120D01*
X180900500Y-117193880D01*
X180866270Y-116933884D01*
X180798398Y-116680581D01*
X180798394Y-116680571D01*
X180698046Y-116438309D01*
X180698041Y-116438299D01*
X180566924Y-116211196D01*
X180407281Y-116003148D01*
X180407274Y-116003140D01*
X180221860Y-115817726D01*
X180221851Y-115817718D01*
X180013803Y-115658075D01*
X179786700Y-115526958D01*
X179786690Y-115526953D01*
X179544428Y-115426605D01*
X179544421Y-115426603D01*
X179544419Y-115426602D01*
X179291116Y-115358730D01*
X179233339Y-115351123D01*
X179031127Y-115324500D01*
X179031120Y-115324500D01*
X178768880Y-115324500D01*
X178768872Y-115324500D01*
X178537772Y-115354926D01*
X178508884Y-115358730D01*
X178263691Y-115424429D01*
X178255581Y-115426602D01*
X178255565Y-115426607D01*
X178195930Y-115451309D01*
X178126460Y-115458778D01*
X178063981Y-115427502D01*
X178060797Y-115424429D01*
X175061819Y-112425451D01*
X175028334Y-112364128D01*
X175025500Y-112337770D01*
X175025500Y-97752135D01*
X182824500Y-97752135D01*
X182824500Y-100647870D01*
X182824501Y-100647876D01*
X182830908Y-100707483D01*
X182881202Y-100842328D01*
X182881206Y-100842335D01*
X182967452Y-100957544D01*
X182967455Y-100957547D01*
X183082664Y-101043793D01*
X183082671Y-101043797D01*
X183217517Y-101094091D01*
X183217516Y-101094091D01*
X183224444Y-101094835D01*
X183277127Y-101100500D01*
X186172872Y-101100499D01*
X186232483Y-101094091D01*
X186367331Y-101043796D01*
X186482546Y-100957546D01*
X186568796Y-100842331D01*
X186619091Y-100707483D01*
X186625500Y-100647873D01*
X186625499Y-97752128D01*
X186619091Y-97692517D01*
X186568796Y-97557669D01*
X186568795Y-97557668D01*
X186568793Y-97557664D01*
X186482547Y-97442455D01*
X186482544Y-97442452D01*
X186367335Y-97356206D01*
X186367328Y-97356202D01*
X186232482Y-97305908D01*
X186232483Y-97305908D01*
X186172883Y-97299501D01*
X186172881Y-97299500D01*
X186172873Y-97299500D01*
X186172864Y-97299500D01*
X183277129Y-97299500D01*
X183277123Y-97299501D01*
X183217516Y-97305908D01*
X183082671Y-97356202D01*
X183082664Y-97356206D01*
X182967455Y-97442452D01*
X182967452Y-97442455D01*
X182881206Y-97557664D01*
X182881202Y-97557671D01*
X182830908Y-97692517D01*
X182826825Y-97730499D01*
X182824501Y-97752123D01*
X182824500Y-97752135D01*
X175025500Y-97752135D01*
X175025500Y-97451079D01*
X174996659Y-97306092D01*
X174996658Y-97306091D01*
X174996658Y-97306087D01*
X174993930Y-97299500D01*
X174940086Y-97169509D01*
X174940085Y-97169507D01*
X174925636Y-97147883D01*
X174907186Y-97120270D01*
X174869677Y-97064132D01*
X174857956Y-97046589D01*
X174857952Y-97046584D01*
X165328421Y-87517052D01*
X165328414Y-87517046D01*
X165254729Y-87467812D01*
X165254729Y-87467813D01*
X165205491Y-87434913D01*
X165068917Y-87378343D01*
X165068907Y-87378340D01*
X164923920Y-87349500D01*
X164923918Y-87349500D01*
X163849499Y-87349500D01*
X163782460Y-87329815D01*
X163736705Y-87277011D01*
X163725499Y-87225500D01*
X163725499Y-86652129D01*
X163725498Y-86652123D01*
X163725497Y-86652116D01*
X163719091Y-86592517D01*
X163702692Y-86548548D01*
X163665697Y-86449359D01*
X163667266Y-86448773D01*
X163654616Y-86390630D01*
X163666314Y-86350793D01*
X163665253Y-86350398D01*
X163718597Y-86207376D01*
X163718598Y-86207372D01*
X163724999Y-86147844D01*
X163725000Y-86147827D01*
X163725000Y-84950000D01*
X162554889Y-84950000D01*
X162565410Y-84924601D01*
X162595000Y-84775838D01*
X162595000Y-84624162D01*
X162565410Y-84475399D01*
X162554889Y-84450000D01*
X163725000Y-84450000D01*
X163725000Y-83552135D01*
X182824500Y-83552135D01*
X182824500Y-86447870D01*
X182824501Y-86447876D01*
X182830908Y-86507483D01*
X182881202Y-86642328D01*
X182881206Y-86642335D01*
X182967452Y-86757544D01*
X182967455Y-86757547D01*
X183082664Y-86843793D01*
X183082671Y-86843797D01*
X183217517Y-86894091D01*
X183217516Y-86894091D01*
X183224046Y-86894793D01*
X183277127Y-86900500D01*
X186172872Y-86900499D01*
X186232483Y-86894091D01*
X186367331Y-86843796D01*
X186482546Y-86757546D01*
X186568796Y-86642331D01*
X186619091Y-86507483D01*
X186625500Y-86447873D01*
X186625499Y-83552128D01*
X186619091Y-83492517D01*
X186568796Y-83357669D01*
X186568795Y-83357668D01*
X186568793Y-83357664D01*
X186482547Y-83242455D01*
X186482544Y-83242452D01*
X186367335Y-83156206D01*
X186367328Y-83156202D01*
X186232482Y-83105908D01*
X186232483Y-83105908D01*
X186172883Y-83099501D01*
X186172881Y-83099500D01*
X186172873Y-83099500D01*
X186172864Y-83099500D01*
X183277129Y-83099500D01*
X183277123Y-83099501D01*
X183217516Y-83105908D01*
X183082671Y-83156202D01*
X183082664Y-83156206D01*
X182967455Y-83242452D01*
X182967452Y-83242455D01*
X182881206Y-83357664D01*
X182881202Y-83357671D01*
X182830908Y-83492517D01*
X182824501Y-83552116D01*
X182824501Y-83552123D01*
X182824500Y-83552135D01*
X163725000Y-83552135D01*
X163725000Y-83252172D01*
X163724999Y-83252155D01*
X163718598Y-83192627D01*
X163718596Y-83192620D01*
X163668354Y-83057913D01*
X163668350Y-83057906D01*
X163582190Y-82942812D01*
X163582187Y-82942809D01*
X163467093Y-82856649D01*
X163467086Y-82856645D01*
X163332379Y-82806403D01*
X163332372Y-82806401D01*
X163272844Y-82800000D01*
X162075000Y-82800000D01*
X162075000Y-83970110D01*
X162049601Y-83959590D01*
X161900838Y-83930000D01*
X161749162Y-83930000D01*
X161600399Y-83959590D01*
X161575000Y-83970110D01*
X161575000Y-82800000D01*
X160710730Y-82800000D01*
X160643691Y-82780315D01*
X160597936Y-82727511D01*
X160587992Y-82658353D01*
X160617017Y-82594797D01*
X160623049Y-82588319D01*
X164556037Y-78655330D01*
X165399549Y-77811818D01*
X165460872Y-77778333D01*
X165487230Y-77775499D01*
X166832871Y-77775499D01*
X166832872Y-77775499D01*
X166892483Y-77769091D01*
X167027331Y-77718796D01*
X167142546Y-77632546D01*
X167228796Y-77517331D01*
X167279091Y-77382483D01*
X167284823Y-77329162D01*
X167311560Y-77264615D01*
X167368952Y-77224767D01*
X167438777Y-77222273D01*
X167498866Y-77257925D01*
X167508430Y-77269536D01*
X167583028Y-77372212D01*
X167583032Y-77372217D01*
X167727786Y-77516971D01*
X167854695Y-77609174D01*
X167893390Y-77637287D01*
X168009607Y-77696503D01*
X168075776Y-77730218D01*
X168075778Y-77730218D01*
X168075781Y-77730220D01*
X168180137Y-77764127D01*
X168270465Y-77793477D01*
X168371557Y-77809488D01*
X168472648Y-77825500D01*
X168472649Y-77825500D01*
X168677351Y-77825500D01*
X168677352Y-77825500D01*
X168879534Y-77793477D01*
X169074219Y-77730220D01*
X169256610Y-77637287D01*
X169350940Y-77568753D01*
X169422213Y-77516971D01*
X169422215Y-77516968D01*
X169422219Y-77516966D01*
X169566966Y-77372219D01*
X169604127Y-77321070D01*
X169608753Y-77315993D01*
X169632975Y-77301263D01*
X169655429Y-77283949D01*
X169664139Y-77282313D01*
X169668452Y-77279691D01*
X169676973Y-77279902D01*
X169700418Y-77275500D01*
X172598920Y-77275500D01*
X172696462Y-77256096D01*
X172743913Y-77246658D01*
X172880495Y-77190084D01*
X172929729Y-77157186D01*
X173003416Y-77107952D01*
X174189549Y-75921819D01*
X174250872Y-75888334D01*
X174277230Y-75885500D01*
X176300501Y-75885500D01*
X176367540Y-75905185D01*
X176413295Y-75957989D01*
X176424501Y-76009500D01*
X176424501Y-76032876D01*
X176430908Y-76092483D01*
X176481202Y-76227328D01*
X176481206Y-76227335D01*
X176567452Y-76342544D01*
X176567455Y-76342547D01*
X176682664Y-76428793D01*
X176682671Y-76428797D01*
X176727618Y-76445561D01*
X176817517Y-76479091D01*
X176877127Y-76485500D01*
X176887685Y-76485499D01*
X176954723Y-76505179D01*
X176975372Y-76521818D01*
X177645591Y-77192037D01*
X177582007Y-77209075D01*
X177467993Y-77274901D01*
X177374901Y-77367993D01*
X177309075Y-77482007D01*
X177292037Y-77545591D01*
X176659728Y-76913282D01*
X176659727Y-76913282D01*
X176620380Y-76967439D01*
X176523904Y-77156782D01*
X176458242Y-77358869D01*
X176458242Y-77358872D01*
X176425000Y-77568753D01*
X176425000Y-77781246D01*
X176458242Y-77991127D01*
X176458242Y-77991130D01*
X176523904Y-78193217D01*
X176620375Y-78382550D01*
X176659728Y-78436716D01*
X177292037Y-77804408D01*
X177309075Y-77867993D01*
X177374901Y-77982007D01*
X177467993Y-78075099D01*
X177582007Y-78140925D01*
X177645590Y-78157962D01*
X177013282Y-78790269D01*
X177013282Y-78790270D01*
X177067449Y-78829624D01*
X177256782Y-78926095D01*
X177458870Y-78991757D01*
X177668754Y-79025000D01*
X177881246Y-79025000D01*
X178091127Y-78991757D01*
X178091130Y-78991757D01*
X178293217Y-78926095D01*
X178482554Y-78829622D01*
X178536716Y-78790270D01*
X178536717Y-78790270D01*
X177904408Y-78157962D01*
X177967993Y-78140925D01*
X178082007Y-78075099D01*
X178175099Y-77982007D01*
X178240925Y-77867993D01*
X178257962Y-77804408D01*
X178890270Y-78436717D01*
X178890270Y-78436716D01*
X178929622Y-78382554D01*
X179026095Y-78193217D01*
X179091757Y-77991130D01*
X179091757Y-77991127D01*
X179125000Y-77781246D01*
X179125000Y-77568753D01*
X179091757Y-77358872D01*
X179091757Y-77358869D01*
X179026095Y-77156782D01*
X178929624Y-76967449D01*
X178890270Y-76913282D01*
X178890269Y-76913282D01*
X178257962Y-77545590D01*
X178240925Y-77482007D01*
X178175099Y-77367993D01*
X178082007Y-77274901D01*
X177967993Y-77209075D01*
X177904409Y-77192037D01*
X178574627Y-76521818D01*
X178635950Y-76488333D01*
X178662307Y-76485499D01*
X178672872Y-76485499D01*
X178732483Y-76479091D01*
X178867331Y-76428796D01*
X178982546Y-76342546D01*
X179068796Y-76227331D01*
X179119091Y-76092483D01*
X179125500Y-76032873D01*
X179125499Y-74237128D01*
X179119091Y-74177517D01*
X179115239Y-74167190D01*
X179068797Y-74042671D01*
X179068793Y-74042664D01*
X178982547Y-73927455D01*
X178982544Y-73927452D01*
X178867335Y-73841206D01*
X178867328Y-73841202D01*
X178732482Y-73790908D01*
X178732483Y-73790908D01*
X178672883Y-73784501D01*
X178672881Y-73784500D01*
X178672873Y-73784500D01*
X178672864Y-73784500D01*
X176877129Y-73784500D01*
X176877123Y-73784501D01*
X176817516Y-73790908D01*
X176682671Y-73841202D01*
X176682664Y-73841206D01*
X176567455Y-73927452D01*
X176567452Y-73927455D01*
X176481206Y-74042664D01*
X176481202Y-74042671D01*
X176430908Y-74177517D01*
X176424501Y-74237116D01*
X176424501Y-74237123D01*
X176424500Y-74237135D01*
X176424500Y-74260500D01*
X176404815Y-74327539D01*
X176352011Y-74373294D01*
X176300500Y-74384500D01*
X173841080Y-74384500D01*
X173696092Y-74413340D01*
X173696082Y-74413343D01*
X173559509Y-74469913D01*
X173559507Y-74469914D01*
X173518645Y-74497218D01*
X173518643Y-74497219D01*
X173436589Y-74552043D01*
X173436584Y-74552047D01*
X172250451Y-75738181D01*
X172189128Y-75771666D01*
X172162770Y-75774500D01*
X169700418Y-75774500D01*
X169633379Y-75754815D01*
X169600100Y-75723385D01*
X169566971Y-75677787D01*
X169566967Y-75677782D01*
X169422213Y-75533028D01*
X169256613Y-75412715D01*
X169256612Y-75412714D01*
X169256610Y-75412713D01*
X169199653Y-75383691D01*
X169074223Y-75319781D01*
X168879534Y-75256522D01*
X168704995Y-75228878D01*
X168677352Y-75224500D01*
X168472648Y-75224500D01*
X168448329Y-75228351D01*
X168270465Y-75256522D01*
X168075776Y-75319781D01*
X167893386Y-75412715D01*
X167727786Y-75533028D01*
X167583032Y-75677782D01*
X167583028Y-75677787D01*
X167508430Y-75780463D01*
X167453100Y-75823129D01*
X167383487Y-75829108D01*
X167321692Y-75796502D01*
X167287334Y-75735664D01*
X167284822Y-75720831D01*
X167279091Y-75667516D01*
X167228797Y-75532671D01*
X167228793Y-75532664D01*
X167142547Y-75417455D01*
X167142544Y-75417452D01*
X167027335Y-75331206D01*
X167027328Y-75331202D01*
X166892482Y-75280908D01*
X166892483Y-75280908D01*
X166832883Y-75274501D01*
X166832881Y-75274500D01*
X166832873Y-75274500D01*
X166832864Y-75274500D01*
X165237129Y-75274500D01*
X165237123Y-75274501D01*
X165177516Y-75280908D01*
X165042671Y-75331202D01*
X165042664Y-75331206D01*
X164927455Y-75417452D01*
X164927452Y-75417455D01*
X164841206Y-75532664D01*
X164841202Y-75532671D01*
X164790908Y-75667516D01*
X164785176Y-75720834D01*
X164758438Y-75785385D01*
X164701045Y-75825233D01*
X164631220Y-75827726D01*
X164571131Y-75792073D01*
X164561569Y-75780463D01*
X164486971Y-75677786D01*
X164342213Y-75533028D01*
X164176613Y-75412715D01*
X164176612Y-75412714D01*
X164176610Y-75412713D01*
X164119653Y-75383691D01*
X163994223Y-75319781D01*
X163799534Y-75256522D01*
X163624995Y-75228878D01*
X163597352Y-75224500D01*
X163392648Y-75224500D01*
X163368329Y-75228351D01*
X163190465Y-75256522D01*
X162995776Y-75319781D01*
X162813386Y-75412715D01*
X162647786Y-75533028D01*
X162503028Y-75677786D01*
X162382715Y-75843386D01*
X162289781Y-76025776D01*
X162226522Y-76220465D01*
X162194500Y-76422648D01*
X162194500Y-76627351D01*
X162203318Y-76683026D01*
X162194363Y-76752320D01*
X162168526Y-76790105D01*
X158392050Y-80566580D01*
X158392049Y-80566581D01*
X158342814Y-80640269D01*
X158342808Y-80640278D01*
X158338418Y-80646847D01*
X158323002Y-80665629D01*
X149875449Y-89113181D01*
X149814126Y-89146666D01*
X149787768Y-89149500D01*
X147085791Y-89149500D01*
X147085776Y-89149501D01*
X146953586Y-89159904D01*
X146953579Y-89159905D01*
X146735321Y-89214902D01*
X146735318Y-89214903D01*
X146530377Y-89307991D01*
X146530367Y-89307997D01*
X146345354Y-89436174D01*
X146345342Y-89436184D01*
X146186184Y-89595342D01*
X146186174Y-89595354D01*
X146057997Y-89780367D01*
X146057991Y-89780377D01*
X145964903Y-89985318D01*
X145964902Y-89985321D01*
X145909905Y-90203579D01*
X145909904Y-90203586D01*
X145899500Y-90335777D01*
X145899500Y-91964208D01*
X145899501Y-91964223D01*
X145909904Y-92096413D01*
X145909905Y-92096420D01*
X145964902Y-92314678D01*
X145964903Y-92314681D01*
X146057991Y-92519622D01*
X146057997Y-92519632D01*
X146186174Y-92704645D01*
X146186178Y-92704650D01*
X146186181Y-92704654D01*
X146345346Y-92863819D01*
X146345350Y-92863822D01*
X146345354Y-92863825D01*
X146484603Y-92960297D01*
X146530374Y-92992007D01*
X146735317Y-93085096D01*
X146735321Y-93085097D01*
X146953579Y-93140094D01*
X146953581Y-93140094D01*
X146953588Y-93140096D01*
X147085783Y-93150500D01*
X150714216Y-93150499D01*
X150846412Y-93140096D01*
X151064683Y-93085096D01*
X151269626Y-92992007D01*
X151454654Y-92863819D01*
X151613819Y-92704654D01*
X151742007Y-92519626D01*
X151835096Y-92314683D01*
X151890096Y-92096412D01*
X151900500Y-91964217D01*
X151900499Y-90335784D01*
X151890096Y-90203588D01*
X151835096Y-89985317D01*
X151742007Y-89780374D01*
X151634676Y-89625451D01*
X151632748Y-89622668D01*
X151610751Y-89556352D01*
X151628099Y-89488670D01*
X151646991Y-89464375D01*
X154562819Y-86548548D01*
X154624142Y-86515063D01*
X154693834Y-86520047D01*
X154749767Y-86561919D01*
X154774184Y-86627383D01*
X154774500Y-86636229D01*
X154774500Y-97448918D01*
X154774500Y-97448920D01*
X154774499Y-97448920D01*
X154803340Y-97593907D01*
X154803343Y-97593917D01*
X154859913Y-97730490D01*
X154859918Y-97730499D01*
X154866408Y-97740212D01*
X154866414Y-97740220D01*
X154868882Y-97743913D01*
X154942048Y-97853416D01*
X154992047Y-97903415D01*
X154992048Y-97903416D01*
X154997521Y-97908889D01*
X156871578Y-99782947D01*
X156871585Y-99782953D01*
X156936129Y-99826079D01*
X156936131Y-99826080D01*
X156936134Y-99826082D01*
X156994505Y-99865084D01*
X157131087Y-99921658D01*
X157131091Y-99921658D01*
X157131092Y-99921659D01*
X157276079Y-99950500D01*
X157276082Y-99950500D01*
X157276083Y-99950500D01*
X157423917Y-99950500D01*
X159800501Y-99950500D01*
X159867540Y-99970185D01*
X159913295Y-100022989D01*
X159924501Y-100074500D01*
X159924501Y-100647876D01*
X159930908Y-100707483D01*
X159981202Y-100842328D01*
X159981206Y-100842335D01*
X160067452Y-100957544D01*
X160067455Y-100957547D01*
X160182664Y-101043793D01*
X160182671Y-101043797D01*
X160317517Y-101094091D01*
X160317516Y-101094091D01*
X160324444Y-101094835D01*
X160377127Y-101100500D01*
X163272872Y-101100499D01*
X163332483Y-101094091D01*
X163467331Y-101043796D01*
X163582546Y-100957546D01*
X163668796Y-100842331D01*
X163719091Y-100707483D01*
X163725500Y-100647873D01*
X163725499Y-97752128D01*
X163719091Y-97692517D01*
X163682316Y-97593917D01*
X163668797Y-97557670D01*
X163661786Y-97548305D01*
X163643823Y-97524310D01*
X163619406Y-97458849D01*
X163634257Y-97390575D01*
X163643823Y-97375690D01*
X163668796Y-97342331D01*
X163719091Y-97207483D01*
X163725500Y-97147873D01*
X163725500Y-96574500D01*
X163745185Y-96507461D01*
X163797989Y-96461706D01*
X163849500Y-96450500D01*
X165362770Y-96450500D01*
X165429809Y-96470185D01*
X165450451Y-96486819D01*
X169138181Y-100174549D01*
X169171666Y-100235872D01*
X169174500Y-100262230D01*
X169174500Y-111137770D01*
X169154815Y-111204809D01*
X169138181Y-111225451D01*
X167150451Y-113213181D01*
X167089128Y-113246666D01*
X167062770Y-113249500D01*
X109251080Y-113249500D01*
X109106092Y-113278340D01*
X109106082Y-113278343D01*
X108969511Y-113334912D01*
X108969498Y-113334919D01*
X108846584Y-113417048D01*
X108846580Y-113417051D01*
X106975451Y-115288181D01*
X106914128Y-115321666D01*
X106887770Y-115324500D01*
X105499500Y-115324500D01*
X105432461Y-115304815D01*
X105386706Y-115252011D01*
X105375500Y-115200500D01*
X105375500Y-104591114D01*
X105395185Y-104524075D01*
X105428575Y-104491398D01*
X105427668Y-104490150D01*
X105431605Y-104487289D01*
X105431610Y-104487287D01*
X105597219Y-104366966D01*
X105741966Y-104222219D01*
X105741968Y-104222215D01*
X105741971Y-104222213D01*
X105794732Y-104149590D01*
X105862287Y-104056610D01*
X105955220Y-103874219D01*
X106018477Y-103679534D01*
X106050500Y-103477352D01*
X106050500Y-103272648D01*
X106046546Y-103247682D01*
X109000000Y-103247682D01*
X109000000Y-103452317D01*
X109032009Y-103654417D01*
X109095244Y-103849031D01*
X109188141Y-104031350D01*
X109188147Y-104031359D01*
X109220523Y-104075921D01*
X109220524Y-104075922D01*
X109900000Y-103396446D01*
X109900000Y-103402661D01*
X109927259Y-103504394D01*
X109979920Y-103595606D01*
X110054394Y-103670080D01*
X110145606Y-103722741D01*
X110247339Y-103750000D01*
X110253553Y-103750000D01*
X109574076Y-104429474D01*
X109618650Y-104461859D01*
X109800968Y-104554755D01*
X109995582Y-104617990D01*
X110197683Y-104650000D01*
X110402317Y-104650000D01*
X110604417Y-104617990D01*
X110799031Y-104554755D01*
X110981349Y-104461859D01*
X111025921Y-104429474D01*
X110346447Y-103750000D01*
X110352661Y-103750000D01*
X110454394Y-103722741D01*
X110545606Y-103670080D01*
X110620080Y-103595606D01*
X110672741Y-103504394D01*
X110700000Y-103402661D01*
X110700000Y-103396448D01*
X111379474Y-104075922D01*
X111379474Y-104075921D01*
X111411859Y-104031349D01*
X111504755Y-103849031D01*
X111567990Y-103654417D01*
X111600000Y-103452317D01*
X111600000Y-103247682D01*
X111567990Y-103045582D01*
X111504755Y-102850968D01*
X111411859Y-102668650D01*
X111379474Y-102624077D01*
X111379474Y-102624076D01*
X110700000Y-103303551D01*
X110700000Y-103297339D01*
X110672741Y-103195606D01*
X110620080Y-103104394D01*
X110545606Y-103029920D01*
X110454394Y-102977259D01*
X110352661Y-102950000D01*
X110346446Y-102950000D01*
X111025922Y-102270524D01*
X111025921Y-102270523D01*
X110981359Y-102238147D01*
X110981350Y-102238141D01*
X110799031Y-102145244D01*
X110604417Y-102082009D01*
X110402317Y-102050000D01*
X110197683Y-102050000D01*
X109995582Y-102082009D01*
X109800968Y-102145244D01*
X109618644Y-102238143D01*
X109574077Y-102270523D01*
X109574077Y-102270524D01*
X110253554Y-102950000D01*
X110247339Y-102950000D01*
X110145606Y-102977259D01*
X110054394Y-103029920D01*
X109979920Y-103104394D01*
X109927259Y-103195606D01*
X109900000Y-103297339D01*
X109900000Y-103303553D01*
X109220524Y-102624077D01*
X109220523Y-102624077D01*
X109188143Y-102668644D01*
X109095244Y-102850968D01*
X109032009Y-103045582D01*
X109000000Y-103247682D01*
X106046546Y-103247682D01*
X106018477Y-103070466D01*
X105955220Y-102875781D01*
X105955218Y-102875778D01*
X105955218Y-102875776D01*
X105921503Y-102809607D01*
X105862287Y-102693390D01*
X105854556Y-102682749D01*
X105741971Y-102527786D01*
X105597213Y-102383028D01*
X105431613Y-102262715D01*
X105431612Y-102262714D01*
X105431610Y-102262713D01*
X105374653Y-102233691D01*
X105249223Y-102169781D01*
X105054534Y-102106522D01*
X104879995Y-102078878D01*
X104852352Y-102074500D01*
X104647648Y-102074500D01*
X104623329Y-102078351D01*
X104445465Y-102106522D01*
X104250776Y-102169781D01*
X104068386Y-102262715D01*
X103902786Y-102383028D01*
X103758028Y-102527786D01*
X103637715Y-102693386D01*
X103544781Y-102875776D01*
X103481522Y-103070465D01*
X103449500Y-103272648D01*
X97975500Y-103272648D01*
X97975500Y-97135803D01*
X115400000Y-97135803D01*
X115400000Y-97700000D01*
X117637639Y-97700000D01*
X117630743Y-97716649D01*
X117600000Y-97871207D01*
X117600000Y-98028793D01*
X117630743Y-98183351D01*
X117637639Y-98200000D01*
X115400001Y-98200000D01*
X115400001Y-98764197D01*
X115410400Y-98896332D01*
X115465377Y-99114519D01*
X115558428Y-99319374D01*
X115558431Y-99319380D01*
X115686559Y-99504323D01*
X115686569Y-99504335D01*
X115845664Y-99663430D01*
X115845676Y-99663440D01*
X116030619Y-99791568D01*
X116030625Y-99791571D01*
X116235480Y-99884622D01*
X116453667Y-99939599D01*
X116585809Y-99949999D01*
X118149999Y-99949999D01*
X118150000Y-99949998D01*
X118150000Y-98712360D01*
X118166649Y-98719257D01*
X118321207Y-98750000D01*
X118478793Y-98750000D01*
X118633351Y-98719257D01*
X118650000Y-98712360D01*
X118650000Y-99949999D01*
X120214182Y-99949999D01*
X120214197Y-99949998D01*
X120346332Y-99939599D01*
X120564519Y-99884622D01*
X120769374Y-99791571D01*
X120769380Y-99791568D01*
X120954323Y-99663440D01*
X120954335Y-99663430D01*
X121113430Y-99504335D01*
X121113440Y-99504323D01*
X121241568Y-99319380D01*
X121241571Y-99319374D01*
X121334622Y-99114519D01*
X121389599Y-98896332D01*
X121399999Y-98764196D01*
X121400000Y-98764184D01*
X121400000Y-98200000D01*
X119162361Y-98200000D01*
X119169257Y-98183351D01*
X119200000Y-98028793D01*
X119200000Y-97871207D01*
X119169257Y-97716649D01*
X119162361Y-97700000D01*
X121399999Y-97700000D01*
X121399999Y-97135818D01*
X121399998Y-97135803D01*
X145900000Y-97135803D01*
X145900000Y-97700000D01*
X148137639Y-97700000D01*
X148130743Y-97716649D01*
X148100000Y-97871207D01*
X148100000Y-98028793D01*
X148130743Y-98183351D01*
X148137639Y-98200000D01*
X145900001Y-98200000D01*
X145900001Y-98764197D01*
X145910400Y-98896332D01*
X145965377Y-99114519D01*
X146058428Y-99319374D01*
X146058431Y-99319380D01*
X146186559Y-99504323D01*
X146186569Y-99504335D01*
X146345664Y-99663430D01*
X146345676Y-99663440D01*
X146530619Y-99791568D01*
X146530625Y-99791571D01*
X146735480Y-99884622D01*
X146953667Y-99939599D01*
X147085809Y-99949999D01*
X148649999Y-99949999D01*
X148650000Y-99949998D01*
X148650000Y-98712360D01*
X148666649Y-98719257D01*
X148821207Y-98750000D01*
X148978793Y-98750000D01*
X149133351Y-98719257D01*
X149150000Y-98712360D01*
X149150000Y-99949999D01*
X150714182Y-99949999D01*
X150714197Y-99949998D01*
X150846332Y-99939599D01*
X151064519Y-99884622D01*
X151269374Y-99791571D01*
X151269380Y-99791568D01*
X151454323Y-99663440D01*
X151454335Y-99663430D01*
X151613430Y-99504335D01*
X151613440Y-99504323D01*
X151741568Y-99319380D01*
X151741571Y-99319374D01*
X151834622Y-99114519D01*
X151889599Y-98896332D01*
X151899999Y-98764196D01*
X151900000Y-98764184D01*
X151900000Y-98200000D01*
X149662361Y-98200000D01*
X149669257Y-98183351D01*
X149700000Y-98028793D01*
X149700000Y-97871207D01*
X149669257Y-97716649D01*
X149662361Y-97700000D01*
X151899999Y-97700000D01*
X151899999Y-97135817D01*
X151899998Y-97135802D01*
X151889599Y-97003667D01*
X151834622Y-96785480D01*
X151741571Y-96580625D01*
X151741568Y-96580619D01*
X151613440Y-96395676D01*
X151613430Y-96395664D01*
X151454335Y-96236569D01*
X151454323Y-96236559D01*
X151269380Y-96108431D01*
X151269374Y-96108428D01*
X151064519Y-96015377D01*
X150846332Y-95960400D01*
X150714196Y-95950000D01*
X149150000Y-95950000D01*
X149150000Y-97187639D01*
X149133351Y-97180743D01*
X148978793Y-97150000D01*
X148821207Y-97150000D01*
X148666649Y-97180743D01*
X148650000Y-97187639D01*
X148650000Y-95950000D01*
X147085817Y-95950000D01*
X147085802Y-95950001D01*
X146953667Y-95960400D01*
X146735480Y-96015377D01*
X146530625Y-96108428D01*
X146530619Y-96108431D01*
X146345676Y-96236559D01*
X146345664Y-96236569D01*
X146186569Y-96395664D01*
X146186559Y-96395676D01*
X146058431Y-96580619D01*
X146058428Y-96580625D01*
X145965377Y-96785480D01*
X145910400Y-97003667D01*
X145900000Y-97135803D01*
X121399998Y-97135803D01*
X121399998Y-97135801D01*
X121389599Y-97003667D01*
X121334622Y-96785480D01*
X121241571Y-96580625D01*
X121241568Y-96580619D01*
X121113440Y-96395676D01*
X121113430Y-96395664D01*
X120954335Y-96236569D01*
X120954323Y-96236559D01*
X120769380Y-96108431D01*
X120769374Y-96108428D01*
X120564519Y-96015377D01*
X120346332Y-95960400D01*
X120214196Y-95950000D01*
X118650000Y-95950000D01*
X118650000Y-97187639D01*
X118633351Y-97180743D01*
X118478793Y-97150000D01*
X118321207Y-97150000D01*
X118166649Y-97180743D01*
X118150000Y-97187639D01*
X118150000Y-95950000D01*
X116585817Y-95950000D01*
X116585802Y-95950001D01*
X116453667Y-95960400D01*
X116235480Y-96015377D01*
X116030625Y-96108428D01*
X116030619Y-96108431D01*
X115845676Y-96236559D01*
X115845664Y-96236569D01*
X115686569Y-96395664D01*
X115686559Y-96395676D01*
X115558431Y-96580619D01*
X115558428Y-96580625D01*
X115465377Y-96785480D01*
X115410400Y-97003667D01*
X115400000Y-97135803D01*
X97975500Y-97135803D01*
X97975500Y-79757135D01*
X101124500Y-79757135D01*
X101124500Y-81552870D01*
X101124501Y-81552876D01*
X101130908Y-81612483D01*
X101181202Y-81747328D01*
X101181206Y-81747335D01*
X101267452Y-81862544D01*
X101267455Y-81862547D01*
X101382664Y-81948793D01*
X101382671Y-81948797D01*
X101514082Y-81997810D01*
X101570016Y-82039681D01*
X101594433Y-82105145D01*
X101579582Y-82173418D01*
X101558431Y-82201673D01*
X101444889Y-82315215D01*
X101319951Y-82487179D01*
X101223444Y-82676585D01*
X101157753Y-82878760D01*
X101124500Y-83088713D01*
X101124500Y-83301286D01*
X101154291Y-83489383D01*
X101157754Y-83511243D01*
X101203978Y-83653506D01*
X101223444Y-83713414D01*
X101319951Y-83902820D01*
X101444890Y-84074786D01*
X101595213Y-84225109D01*
X101767182Y-84350050D01*
X101775946Y-84354516D01*
X101826742Y-84402491D01*
X101843536Y-84470312D01*
X101820998Y-84536447D01*
X101775946Y-84575484D01*
X101767182Y-84579949D01*
X101595213Y-84704890D01*
X101444890Y-84855213D01*
X101319951Y-85027179D01*
X101223444Y-85216585D01*
X101157753Y-85418760D01*
X101124500Y-85628713D01*
X101124500Y-85841287D01*
X101157754Y-86051243D01*
X101212674Y-86220270D01*
X101223444Y-86253414D01*
X101319951Y-86442820D01*
X101444890Y-86614786D01*
X101595213Y-86765109D01*
X101767179Y-86890048D01*
X101767181Y-86890049D01*
X101767184Y-86890051D01*
X101776493Y-86894794D01*
X101827290Y-86942766D01*
X101844087Y-87010587D01*
X101821552Y-87076722D01*
X101776505Y-87115760D01*
X101767446Y-87120376D01*
X101767440Y-87120380D01*
X101713282Y-87159727D01*
X101713282Y-87159728D01*
X102345591Y-87792037D01*
X102282007Y-87809075D01*
X102167993Y-87874901D01*
X102074901Y-87967993D01*
X102009075Y-88082007D01*
X101992037Y-88145591D01*
X101359728Y-87513282D01*
X101359727Y-87513282D01*
X101320380Y-87567439D01*
X101223904Y-87756782D01*
X101158242Y-87958869D01*
X101158242Y-87958872D01*
X101125000Y-88168753D01*
X101125000Y-88381246D01*
X101158242Y-88591127D01*
X101158242Y-88591130D01*
X101223904Y-88793217D01*
X101320375Y-88982550D01*
X101359728Y-89036716D01*
X101992037Y-88404408D01*
X102009075Y-88467993D01*
X102074901Y-88582007D01*
X102167993Y-88675099D01*
X102282007Y-88740925D01*
X102345590Y-88757962D01*
X101713282Y-89390269D01*
X101713282Y-89390270D01*
X101767449Y-89429624D01*
X101956782Y-89526095D01*
X102158870Y-89591757D01*
X102368754Y-89625000D01*
X102581246Y-89625000D01*
X102791127Y-89591757D01*
X102791130Y-89591757D01*
X102993217Y-89526095D01*
X103182554Y-89429622D01*
X103236716Y-89390270D01*
X103236717Y-89390270D01*
X102604408Y-88757962D01*
X102667993Y-88740925D01*
X102782007Y-88675099D01*
X102875099Y-88582007D01*
X102940925Y-88467993D01*
X102957962Y-88404408D01*
X103590270Y-89036717D01*
X103590270Y-89036716D01*
X103629622Y-88982554D01*
X103726095Y-88793217D01*
X103791757Y-88591130D01*
X103791757Y-88591127D01*
X103825000Y-88381246D01*
X103825000Y-88268952D01*
X103844685Y-88201913D01*
X103897489Y-88156158D01*
X103966647Y-88146214D01*
X104030203Y-88175239D01*
X104036681Y-88181271D01*
X109638181Y-93782771D01*
X109671666Y-93844094D01*
X109674500Y-93870452D01*
X109674500Y-94513885D01*
X109654815Y-94580924D01*
X109621428Y-94613606D01*
X109622331Y-94614849D01*
X109452786Y-94738028D01*
X109308028Y-94882786D01*
X109187715Y-95048385D01*
X109180883Y-95061795D01*
X109132909Y-95112591D01*
X109070398Y-95129500D01*
X105966115Y-95129500D01*
X105899076Y-95109815D01*
X105866393Y-95076428D01*
X105865151Y-95077331D01*
X105741971Y-94907786D01*
X105597213Y-94763028D01*
X105431613Y-94642715D01*
X105431612Y-94642714D01*
X105431610Y-94642713D01*
X105373640Y-94613176D01*
X105249223Y-94549781D01*
X105054534Y-94486522D01*
X104879995Y-94458878D01*
X104852352Y-94454500D01*
X104647648Y-94454500D01*
X104623329Y-94458351D01*
X104445465Y-94486522D01*
X104250776Y-94549781D01*
X104068386Y-94642715D01*
X103902786Y-94763028D01*
X103758028Y-94907786D01*
X103637715Y-95073386D01*
X103544781Y-95255776D01*
X103481522Y-95450465D01*
X103449500Y-95652648D01*
X103449500Y-95857351D01*
X103481522Y-96059534D01*
X103544781Y-96254223D01*
X103608691Y-96379653D01*
X103624976Y-96411613D01*
X103637715Y-96436613D01*
X103758028Y-96602213D01*
X103902786Y-96746971D01*
X104033976Y-96842284D01*
X104068390Y-96867287D01*
X104184607Y-96926503D01*
X104250776Y-96960218D01*
X104250778Y-96960218D01*
X104250781Y-96960220D01*
X104355137Y-96994127D01*
X104445465Y-97023477D01*
X104544281Y-97039128D01*
X104647648Y-97055500D01*
X104647649Y-97055500D01*
X104852351Y-97055500D01*
X104852352Y-97055500D01*
X105054534Y-97023477D01*
X105249219Y-96960220D01*
X105431610Y-96867287D01*
X105544209Y-96785480D01*
X105597213Y-96746971D01*
X105597215Y-96746968D01*
X105597219Y-96746966D01*
X105741966Y-96602219D01*
X105741968Y-96602215D01*
X105741971Y-96602213D01*
X105865151Y-96432669D01*
X105866823Y-96433884D01*
X105912208Y-96392831D01*
X105966115Y-96380500D01*
X109101929Y-96380500D01*
X109168968Y-96400185D01*
X109202245Y-96431613D01*
X109306059Y-96574500D01*
X109308034Y-96577219D01*
X109452786Y-96721971D01*
X109607749Y-96834556D01*
X109618390Y-96842287D01*
X109734607Y-96901503D01*
X109800776Y-96935218D01*
X109800778Y-96935218D01*
X109800781Y-96935220D01*
X109877717Y-96960218D01*
X109995465Y-96998477D01*
X110073907Y-97010901D01*
X110197648Y-97030500D01*
X110197649Y-97030500D01*
X110402351Y-97030500D01*
X110402352Y-97030500D01*
X110604534Y-96998477D01*
X110799219Y-96935220D01*
X110981610Y-96842287D01*
X111074590Y-96774732D01*
X111147213Y-96721971D01*
X111147215Y-96721968D01*
X111147219Y-96721966D01*
X111291966Y-96577219D01*
X111291968Y-96577215D01*
X111291971Y-96577213D01*
X111394121Y-96436613D01*
X111412287Y-96411610D01*
X111505220Y-96229219D01*
X111568477Y-96034534D01*
X111600500Y-95832352D01*
X111600500Y-95627648D01*
X111568477Y-95425466D01*
X111505220Y-95230781D01*
X111505218Y-95230778D01*
X111505218Y-95230776D01*
X111471503Y-95164607D01*
X111412287Y-95048390D01*
X111402495Y-95034913D01*
X111291971Y-94882786D01*
X111147213Y-94738028D01*
X110977669Y-94614849D01*
X110978884Y-94613176D01*
X110937831Y-94567792D01*
X110925500Y-94513885D01*
X110925500Y-93498396D01*
X110925500Y-93498394D01*
X110901463Y-93377548D01*
X110887652Y-93344207D01*
X110854312Y-93263714D01*
X110820084Y-93212490D01*
X110785858Y-93161267D01*
X110785856Y-93161264D01*
X110695637Y-93071045D01*
X110695606Y-93071016D01*
X107960367Y-90335777D01*
X115399500Y-90335777D01*
X115399500Y-91964208D01*
X115399501Y-91964223D01*
X115409904Y-92096413D01*
X115409905Y-92096420D01*
X115464902Y-92314678D01*
X115464903Y-92314681D01*
X115557991Y-92519622D01*
X115557997Y-92519632D01*
X115686174Y-92704645D01*
X115686178Y-92704650D01*
X115686181Y-92704654D01*
X115845346Y-92863819D01*
X115845350Y-92863822D01*
X115845354Y-92863825D01*
X115984603Y-92960297D01*
X116030374Y-92992007D01*
X116235317Y-93085096D01*
X116235321Y-93085097D01*
X116453579Y-93140094D01*
X116453581Y-93140094D01*
X116453588Y-93140096D01*
X116585783Y-93150500D01*
X120214216Y-93150499D01*
X120346412Y-93140096D01*
X120564683Y-93085096D01*
X120769626Y-92992007D01*
X120954654Y-92863819D01*
X121113819Y-92704654D01*
X121242007Y-92519626D01*
X121335096Y-92314683D01*
X121390096Y-92096412D01*
X121396521Y-92014769D01*
X121421405Y-91949483D01*
X121477636Y-91908012D01*
X121520139Y-91900500D01*
X125273920Y-91900500D01*
X125371462Y-91881096D01*
X125418913Y-91871658D01*
X125555495Y-91815084D01*
X125604729Y-91782186D01*
X125678416Y-91732952D01*
X127032952Y-90378416D01*
X127083489Y-90302781D01*
X127115084Y-90255495D01*
X127171658Y-90118913D01*
X127181096Y-90071462D01*
X127200500Y-89973920D01*
X127200500Y-84364870D01*
X127220185Y-84297831D01*
X127268203Y-84254387D01*
X127288845Y-84243870D01*
X127492656Y-84095793D01*
X127670793Y-83917656D01*
X127818870Y-83713845D01*
X127933241Y-83489379D01*
X128011090Y-83249785D01*
X128050500Y-83000962D01*
X128050500Y-82749038D01*
X128011090Y-82500215D01*
X127933241Y-82260621D01*
X127933239Y-82260618D01*
X127933239Y-82260616D01*
X127854022Y-82105145D01*
X127818870Y-82036155D01*
X127792965Y-82000500D01*
X127670798Y-81832350D01*
X127670794Y-81832345D01*
X127492654Y-81654205D01*
X127492649Y-81654201D01*
X127288848Y-81506132D01*
X127288847Y-81506131D01*
X127288845Y-81506130D01*
X127203140Y-81462461D01*
X127064383Y-81391760D01*
X126824785Y-81313910D01*
X126575962Y-81274500D01*
X126324038Y-81274500D01*
X126257738Y-81285001D01*
X126075214Y-81313910D01*
X125835616Y-81391760D01*
X125611151Y-81506132D01*
X125407350Y-81654201D01*
X125407345Y-81654205D01*
X125229205Y-81832345D01*
X125229201Y-81832350D01*
X125081132Y-82036151D01*
X124966760Y-82260616D01*
X124888910Y-82500214D01*
X124849500Y-82749038D01*
X124849500Y-83000961D01*
X124888910Y-83249785D01*
X124966760Y-83489383D01*
X125036116Y-83625500D01*
X125080910Y-83713414D01*
X125081132Y-83713848D01*
X125229201Y-83917649D01*
X125229205Y-83917654D01*
X125407345Y-84095794D01*
X125407350Y-84095798D01*
X125563371Y-84209153D01*
X125611155Y-84243870D01*
X125631796Y-84254386D01*
X125682589Y-84302356D01*
X125699500Y-84364870D01*
X125699500Y-89537770D01*
X125679815Y-89604809D01*
X125663181Y-89625451D01*
X124925451Y-90363181D01*
X124864128Y-90396666D01*
X124837770Y-90399500D01*
X121520138Y-90399500D01*
X121453099Y-90379815D01*
X121407344Y-90327011D01*
X121396520Y-90285231D01*
X121390096Y-90203588D01*
X121335096Y-89985317D01*
X121242007Y-89780374D01*
X121134676Y-89625451D01*
X121113825Y-89595354D01*
X121113822Y-89595350D01*
X121113819Y-89595346D01*
X120954654Y-89436181D01*
X120954650Y-89436178D01*
X120954645Y-89436174D01*
X120769632Y-89307997D01*
X120769630Y-89307995D01*
X120769626Y-89307993D01*
X120564683Y-89214904D01*
X120564681Y-89214903D01*
X120564678Y-89214902D01*
X120346420Y-89159905D01*
X120346413Y-89159904D01*
X120302347Y-89156436D01*
X120214217Y-89149500D01*
X120214215Y-89149500D01*
X116585791Y-89149500D01*
X116585776Y-89149501D01*
X116453586Y-89159904D01*
X116453579Y-89159905D01*
X116235321Y-89214902D01*
X116235318Y-89214903D01*
X116030377Y-89307991D01*
X116030367Y-89307997D01*
X115845354Y-89436174D01*
X115845342Y-89436184D01*
X115686184Y-89595342D01*
X115686174Y-89595354D01*
X115557997Y-89780367D01*
X115557991Y-89780377D01*
X115464903Y-89985318D01*
X115464902Y-89985321D01*
X115409905Y-90203579D01*
X115409904Y-90203586D01*
X115399500Y-90335777D01*
X107960367Y-90335777D01*
X103817428Y-86192838D01*
X103783943Y-86131515D01*
X103787177Y-86066841D01*
X103792246Y-86051243D01*
X103825500Y-85841287D01*
X103825500Y-85628713D01*
X103792246Y-85418757D01*
X103726557Y-85216588D01*
X103630051Y-85027184D01*
X103630049Y-85027181D01*
X103630048Y-85027179D01*
X103505109Y-84855213D01*
X103354786Y-84704890D01*
X103182820Y-84579951D01*
X103182115Y-84579591D01*
X103174054Y-84575485D01*
X103123259Y-84527512D01*
X103106463Y-84459692D01*
X103128999Y-84393556D01*
X103174054Y-84354515D01*
X103182816Y-84350051D01*
X103328963Y-84243870D01*
X103354786Y-84225109D01*
X103354788Y-84225106D01*
X103354792Y-84225104D01*
X103505104Y-84074792D01*
X103505106Y-84074788D01*
X103505109Y-84074786D01*
X103630048Y-83902820D01*
X103630047Y-83902820D01*
X103630051Y-83902816D01*
X103726557Y-83713412D01*
X103727282Y-83711181D01*
X103727787Y-83710442D01*
X103728421Y-83708912D01*
X103728742Y-83709045D01*
X103766720Y-83653506D01*
X103831079Y-83626308D01*
X103845213Y-83625500D01*
X114565500Y-83625500D01*
X114632539Y-83645185D01*
X114678294Y-83697989D01*
X114689500Y-83749500D01*
X114689500Y-83775017D01*
X114700000Y-83877796D01*
X114717299Y-83930000D01*
X114755186Y-84044335D01*
X114847288Y-84193656D01*
X114971344Y-84317712D01*
X115120665Y-84409814D01*
X115287202Y-84464999D01*
X115389990Y-84475500D01*
X115389995Y-84475500D01*
X117190005Y-84475500D01*
X117190010Y-84475500D01*
X117292798Y-84464999D01*
X117459335Y-84409814D01*
X117608656Y-84317712D01*
X117732712Y-84193656D01*
X117824814Y-84044335D01*
X117879999Y-83877798D01*
X117890500Y-83775010D01*
X117890500Y-81974990D01*
X117879999Y-81872202D01*
X117824814Y-81705665D01*
X117732712Y-81556344D01*
X117608656Y-81432288D01*
X117460971Y-81341195D01*
X117414249Y-81289249D01*
X117403026Y-81220286D01*
X117430870Y-81156204D01*
X117438378Y-81147988D01*
X118374548Y-80211819D01*
X118435871Y-80178334D01*
X118462229Y-80175500D01*
X147123920Y-80175500D01*
X147221462Y-80156096D01*
X147268913Y-80146658D01*
X147405495Y-80090084D01*
X147454729Y-80057186D01*
X147528416Y-80007952D01*
X150666193Y-76870172D01*
X150727514Y-76836689D01*
X150773265Y-76835382D01*
X150868713Y-76850500D01*
X150868715Y-76850500D01*
X151081286Y-76850500D01*
X151081287Y-76850500D01*
X151291243Y-76817246D01*
X151493412Y-76751557D01*
X151682816Y-76655051D01*
X151720942Y-76627351D01*
X151854786Y-76530109D01*
X151854788Y-76530106D01*
X151854792Y-76530104D01*
X152005104Y-76379792D01*
X152005106Y-76379788D01*
X152005109Y-76379786D01*
X152130048Y-76207820D01*
X152130047Y-76207820D01*
X152130051Y-76207816D01*
X152226557Y-76018412D01*
X152292246Y-75816243D01*
X152325500Y-75606287D01*
X152325500Y-75393713D01*
X152292246Y-75183757D01*
X152226557Y-74981588D01*
X152130051Y-74792184D01*
X152130049Y-74792181D01*
X152130048Y-74792179D01*
X152005109Y-74620213D01*
X151891181Y-74506285D01*
X151857696Y-74444962D01*
X151862680Y-74375270D01*
X151904552Y-74319337D01*
X151935529Y-74302422D01*
X152067086Y-74253354D01*
X152067093Y-74253350D01*
X152182187Y-74167190D01*
X152182190Y-74167187D01*
X152268350Y-74052093D01*
X152268354Y-74052086D01*
X152318596Y-73917379D01*
X152318598Y-73917372D01*
X152324999Y-73857844D01*
X152325000Y-73857827D01*
X152325000Y-73210000D01*
X151408012Y-73210000D01*
X151440925Y-73152993D01*
X151475000Y-73025826D01*
X151475000Y-72894174D01*
X151440925Y-72767007D01*
X151408012Y-72710000D01*
X152325000Y-72710000D01*
X152325000Y-72062172D01*
X152324999Y-72062155D01*
X152319114Y-72007422D01*
X152318598Y-72002627D01*
X152318596Y-72002620D01*
X152317260Y-71999038D01*
X182699500Y-71999038D01*
X182699500Y-72250961D01*
X182738910Y-72499785D01*
X182816760Y-72739383D01*
X182931132Y-72963848D01*
X183079201Y-73167649D01*
X183079205Y-73167654D01*
X183257345Y-73345794D01*
X183257350Y-73345798D01*
X183386315Y-73439496D01*
X183461155Y-73493870D01*
X183604184Y-73566747D01*
X183685616Y-73608239D01*
X183685618Y-73608239D01*
X183685621Y-73608241D01*
X183925215Y-73686090D01*
X184174038Y-73725500D01*
X184174039Y-73725500D01*
X184425961Y-73725500D01*
X184425962Y-73725500D01*
X184674785Y-73686090D01*
X184914379Y-73608241D01*
X185138845Y-73493870D01*
X185342656Y-73345793D01*
X185520793Y-73167656D01*
X185668870Y-72963845D01*
X185783241Y-72739379D01*
X185861090Y-72499785D01*
X185900500Y-72250962D01*
X185900500Y-71999038D01*
X185861090Y-71750215D01*
X185783241Y-71510621D01*
X185783239Y-71510618D01*
X185783239Y-71510616D01*
X185741747Y-71429184D01*
X185668870Y-71286155D01*
X185649952Y-71260117D01*
X185520798Y-71082350D01*
X185520794Y-71082345D01*
X185342654Y-70904205D01*
X185342649Y-70904201D01*
X185138848Y-70756132D01*
X185138847Y-70756131D01*
X185138845Y-70756130D01*
X185068747Y-70720413D01*
X184914383Y-70641760D01*
X184674785Y-70563910D01*
X184425962Y-70524500D01*
X184174038Y-70524500D01*
X184049626Y-70544205D01*
X183925214Y-70563910D01*
X183685616Y-70641760D01*
X183461151Y-70756132D01*
X183257350Y-70904201D01*
X183257345Y-70904205D01*
X183079205Y-71082345D01*
X183079201Y-71082350D01*
X182931132Y-71286151D01*
X182816760Y-71510616D01*
X182738910Y-71750214D01*
X182699500Y-71999038D01*
X152317260Y-71999038D01*
X152268354Y-71867913D01*
X152268350Y-71867906D01*
X152182190Y-71752812D01*
X152182187Y-71752809D01*
X152067093Y-71666649D01*
X152067086Y-71666645D01*
X151932379Y-71616403D01*
X151932372Y-71616401D01*
X151872844Y-71610000D01*
X151225000Y-71610000D01*
X151225000Y-72526988D01*
X151167993Y-72494075D01*
X151040826Y-72460000D01*
X150909174Y-72460000D01*
X150782007Y-72494075D01*
X150725000Y-72526988D01*
X150725000Y-71610000D01*
X150077155Y-71610000D01*
X150017627Y-71616401D01*
X150017620Y-71616403D01*
X149882913Y-71666645D01*
X149882906Y-71666649D01*
X149767812Y-71752809D01*
X149767809Y-71752812D01*
X149681649Y-71867906D01*
X149681645Y-71867913D01*
X149631403Y-72002620D01*
X149631401Y-72002627D01*
X149625000Y-72062155D01*
X149625000Y-72710000D01*
X150541988Y-72710000D01*
X150509075Y-72767007D01*
X150475000Y-72894174D01*
X150475000Y-73025826D01*
X150509075Y-73152993D01*
X150541988Y-73210000D01*
X149625000Y-73210000D01*
X149625000Y-73857844D01*
X149631401Y-73917372D01*
X149631403Y-73917379D01*
X149681645Y-74052086D01*
X149681649Y-74052093D01*
X149767809Y-74167187D01*
X149767812Y-74167190D01*
X149882906Y-74253350D01*
X149882913Y-74253354D01*
X150014470Y-74302422D01*
X150070404Y-74344293D01*
X150094821Y-74409758D01*
X150079969Y-74478031D01*
X150058819Y-74506285D01*
X149944889Y-74620215D01*
X149819951Y-74792179D01*
X149723444Y-74981585D01*
X149657753Y-75183760D01*
X149624500Y-75393713D01*
X149624500Y-75606292D01*
X149639616Y-75701728D01*
X149630662Y-75771021D01*
X149604824Y-75808807D01*
X146775451Y-78638181D01*
X146714128Y-78671666D01*
X146687770Y-78674500D01*
X118026076Y-78674500D01*
X117997242Y-78680234D01*
X117997243Y-78680235D01*
X117881093Y-78703339D01*
X117881083Y-78703342D01*
X117801081Y-78736479D01*
X117801082Y-78736480D01*
X117744505Y-78759915D01*
X117662372Y-78814795D01*
X117621585Y-78842047D01*
X117621581Y-78842050D01*
X115707048Y-80756583D01*
X115683751Y-80791450D01*
X115660609Y-80826087D01*
X115624914Y-80879507D01*
X115624913Y-80879509D01*
X115568343Y-81016082D01*
X115568340Y-81016092D01*
X115539500Y-81161079D01*
X115539345Y-81162654D01*
X115539033Y-81163425D01*
X115538311Y-81167057D01*
X115537622Y-81166920D01*
X115513184Y-81227442D01*
X115456149Y-81267800D01*
X115415942Y-81274500D01*
X115389982Y-81274500D01*
X115287203Y-81285000D01*
X115287202Y-81285001D01*
X115204669Y-81312349D01*
X115120667Y-81340185D01*
X115120662Y-81340187D01*
X114971342Y-81432289D01*
X114847289Y-81556342D01*
X114755187Y-81705662D01*
X114755186Y-81705665D01*
X114700001Y-81872202D01*
X114700001Y-81872203D01*
X114700000Y-81872203D01*
X114689500Y-81974982D01*
X114689500Y-82000500D01*
X114669815Y-82067539D01*
X114617011Y-82113294D01*
X114565500Y-82124500D01*
X103705177Y-82124500D01*
X103638138Y-82104815D01*
X103592383Y-82052011D01*
X103582439Y-81982853D01*
X103611464Y-81919297D01*
X103630862Y-81901236D01*
X103682546Y-81862546D01*
X103768796Y-81747331D01*
X103819091Y-81612483D01*
X103825500Y-81552873D01*
X103825500Y-81529500D01*
X103845185Y-81462461D01*
X103897989Y-81416706D01*
X103949500Y-81405500D01*
X104848920Y-81405500D01*
X104946462Y-81386096D01*
X104993913Y-81376658D01*
X105130495Y-81320084D01*
X105183001Y-81285001D01*
X105253416Y-81237952D01*
X112155077Y-74336289D01*
X120542261Y-74336289D01*
X120542262Y-74336290D01*
X120548471Y-74340801D01*
X120702742Y-74419408D01*
X120867415Y-74472914D01*
X121038429Y-74500000D01*
X121211571Y-74500000D01*
X121382584Y-74472914D01*
X121547257Y-74419408D01*
X121701525Y-74340803D01*
X121707736Y-74336289D01*
X121707737Y-74336289D01*
X121125001Y-73753553D01*
X121125000Y-73753553D01*
X120542261Y-74336289D01*
X112155077Y-74336289D01*
X113177938Y-73313428D01*
X120025000Y-73313428D01*
X120025000Y-73486571D01*
X120052085Y-73657584D01*
X120105592Y-73822259D01*
X120184196Y-73976525D01*
X120188709Y-73982736D01*
X120188709Y-73982737D01*
X120771446Y-73400001D01*
X120771446Y-73399999D01*
X120731951Y-73360504D01*
X120825000Y-73360504D01*
X120825000Y-73439496D01*
X120845444Y-73515796D01*
X120884940Y-73584205D01*
X120940795Y-73640060D01*
X121009204Y-73679556D01*
X121085504Y-73700000D01*
X121164496Y-73700000D01*
X121240796Y-73679556D01*
X121309205Y-73640060D01*
X121365060Y-73584205D01*
X121404556Y-73515796D01*
X121425000Y-73439496D01*
X121425000Y-73399999D01*
X121478553Y-73399999D01*
X121478553Y-73400001D01*
X122061289Y-73982737D01*
X122061289Y-73982736D01*
X122065803Y-73976525D01*
X122144408Y-73822257D01*
X122197914Y-73657584D01*
X122225000Y-73486571D01*
X122225000Y-73313428D01*
X122197914Y-73142415D01*
X122144408Y-72977742D01*
X122065801Y-72823471D01*
X122061290Y-72817262D01*
X122061289Y-72817261D01*
X121478553Y-73399999D01*
X121425000Y-73399999D01*
X121425000Y-73360504D01*
X121404556Y-73284204D01*
X121365060Y-73215795D01*
X121309205Y-73159940D01*
X121240796Y-73120444D01*
X121164496Y-73100000D01*
X121085504Y-73100000D01*
X121009204Y-73120444D01*
X120940795Y-73159940D01*
X120884940Y-73215795D01*
X120845444Y-73284204D01*
X120825000Y-73360504D01*
X120731951Y-73360504D01*
X120188709Y-72817261D01*
X120188708Y-72817261D01*
X120184203Y-72823463D01*
X120184193Y-72823480D01*
X120105592Y-72977740D01*
X120052085Y-73142415D01*
X120025000Y-73313428D01*
X113177938Y-73313428D01*
X114304548Y-72186818D01*
X114365871Y-72153334D01*
X114392229Y-72150500D01*
X120071042Y-72150500D01*
X120138081Y-72170185D01*
X120176580Y-72209402D01*
X120182288Y-72218656D01*
X120306344Y-72342712D01*
X120455666Y-72434814D01*
X120514066Y-72454166D01*
X120562743Y-72484190D01*
X121125000Y-73046446D01*
X121125001Y-73046446D01*
X121687254Y-72484191D01*
X121735930Y-72454167D01*
X121794334Y-72434814D01*
X121943656Y-72342712D01*
X122067712Y-72218656D01*
X122073420Y-72209402D01*
X122125368Y-72162678D01*
X122178958Y-72150500D01*
X125012770Y-72150500D01*
X125079809Y-72170185D01*
X125100451Y-72186819D01*
X128104824Y-75191191D01*
X128138309Y-75252514D01*
X128139616Y-75298270D01*
X128124500Y-75393707D01*
X128124500Y-75606286D01*
X128152866Y-75785385D01*
X128157754Y-75816243D01*
X128220547Y-76009500D01*
X128223444Y-76018414D01*
X128319951Y-76207820D01*
X128444890Y-76379786D01*
X128595213Y-76530109D01*
X128767179Y-76655048D01*
X128767181Y-76655049D01*
X128767184Y-76655051D01*
X128956588Y-76751557D01*
X129158757Y-76817246D01*
X129368713Y-76850500D01*
X129368714Y-76850500D01*
X129581286Y-76850500D01*
X129581287Y-76850500D01*
X129791243Y-76817246D01*
X129993412Y-76751557D01*
X130182816Y-76655051D01*
X130220942Y-76627351D01*
X130354786Y-76530109D01*
X130354788Y-76530106D01*
X130354792Y-76530104D01*
X130505104Y-76379792D01*
X130505106Y-76379788D01*
X130505109Y-76379786D01*
X130630048Y-76207820D01*
X130630047Y-76207820D01*
X130630051Y-76207816D01*
X130726557Y-76018412D01*
X130792246Y-75816243D01*
X130825500Y-75606287D01*
X130825500Y-75393713D01*
X130792246Y-75183757D01*
X130726557Y-74981588D01*
X130630051Y-74792184D01*
X130630049Y-74792181D01*
X130630048Y-74792179D01*
X130505109Y-74620213D01*
X130391181Y-74506285D01*
X130357696Y-74444962D01*
X130362680Y-74375270D01*
X130404552Y-74319337D01*
X130435529Y-74302422D01*
X130567086Y-74253354D01*
X130567093Y-74253350D01*
X130682187Y-74167190D01*
X130682190Y-74167187D01*
X130768350Y-74052093D01*
X130768354Y-74052086D01*
X130818596Y-73917379D01*
X130818598Y-73917372D01*
X130824999Y-73857844D01*
X130825000Y-73857827D01*
X130825000Y-73210000D01*
X129908012Y-73210000D01*
X129940925Y-73152993D01*
X129975000Y-73025826D01*
X129975000Y-72894174D01*
X129940925Y-72767007D01*
X129908012Y-72710000D01*
X130825000Y-72710000D01*
X130825000Y-72062172D01*
X130824999Y-72062155D01*
X130818598Y-72002627D01*
X130818596Y-72002620D01*
X130768354Y-71867913D01*
X130768350Y-71867906D01*
X130682190Y-71752812D01*
X130682187Y-71752809D01*
X130567093Y-71666649D01*
X130567086Y-71666645D01*
X130432379Y-71616403D01*
X130432372Y-71616401D01*
X130372844Y-71610000D01*
X129725000Y-71610000D01*
X129725000Y-72526988D01*
X129667993Y-72494075D01*
X129540826Y-72460000D01*
X129409174Y-72460000D01*
X129282007Y-72494075D01*
X129225000Y-72526988D01*
X129225000Y-71610000D01*
X128577155Y-71610000D01*
X128517627Y-71616401D01*
X128517620Y-71616403D01*
X128382913Y-71666645D01*
X128382906Y-71666649D01*
X128267812Y-71752809D01*
X128267809Y-71752812D01*
X128181649Y-71867906D01*
X128181645Y-71867913D01*
X128131403Y-72002620D01*
X128131401Y-72002627D01*
X128125000Y-72062155D01*
X128125000Y-72789269D01*
X128105315Y-72856308D01*
X128052511Y-72902063D01*
X127983353Y-72912007D01*
X127919797Y-72882982D01*
X127913319Y-72876950D01*
X125853421Y-70817052D01*
X125853414Y-70817046D01*
X125762244Y-70756129D01*
X125762243Y-70756129D01*
X125730500Y-70734919D01*
X125730488Y-70734912D01*
X125593917Y-70678343D01*
X125593907Y-70678340D01*
X125448920Y-70649500D01*
X125448918Y-70649500D01*
X122178958Y-70649500D01*
X122111919Y-70629815D01*
X122073420Y-70590598D01*
X122067712Y-70581344D01*
X121943657Y-70457289D01*
X121943656Y-70457288D01*
X121794334Y-70365186D01*
X121627797Y-70310001D01*
X121627795Y-70310000D01*
X121525010Y-70299500D01*
X120724998Y-70299500D01*
X120724980Y-70299501D01*
X120622203Y-70310000D01*
X120622200Y-70310001D01*
X120455668Y-70365185D01*
X120455663Y-70365187D01*
X120306342Y-70457289D01*
X120182287Y-70581344D01*
X120176580Y-70590598D01*
X120124632Y-70637322D01*
X120071042Y-70649500D01*
X113956076Y-70649500D01*
X113927242Y-70655234D01*
X113927243Y-70655235D01*
X113811093Y-70678339D01*
X113811083Y-70678342D01*
X113731081Y-70711479D01*
X113731082Y-70711480D01*
X113674505Y-70734915D01*
X113592372Y-70789795D01*
X113551585Y-70817047D01*
X113551581Y-70817050D01*
X104500451Y-79868181D01*
X104439128Y-79901666D01*
X104412770Y-79904500D01*
X103949499Y-79904500D01*
X103882460Y-79884815D01*
X103836705Y-79832011D01*
X103825499Y-79780500D01*
X103825499Y-79757129D01*
X103825498Y-79757123D01*
X103825497Y-79757116D01*
X103819091Y-79697517D01*
X103768796Y-79562669D01*
X103768795Y-79562668D01*
X103768793Y-79562664D01*
X103682547Y-79447455D01*
X103682544Y-79447452D01*
X103567335Y-79361206D01*
X103567328Y-79361202D01*
X103432482Y-79310908D01*
X103432483Y-79310908D01*
X103372883Y-79304501D01*
X103372881Y-79304500D01*
X103372873Y-79304500D01*
X103372864Y-79304500D01*
X101577129Y-79304500D01*
X101577123Y-79304501D01*
X101517516Y-79310908D01*
X101382671Y-79361202D01*
X101382664Y-79361206D01*
X101267455Y-79447452D01*
X101267452Y-79447455D01*
X101181206Y-79562664D01*
X101181202Y-79562671D01*
X101130908Y-79697517D01*
X101124501Y-79757116D01*
X101124501Y-79757123D01*
X101124500Y-79757135D01*
X97975500Y-79757135D01*
X97975500Y-71999038D01*
X99249500Y-71999038D01*
X99249500Y-72250961D01*
X99288910Y-72499785D01*
X99366760Y-72739383D01*
X99481132Y-72963848D01*
X99629201Y-73167649D01*
X99629205Y-73167654D01*
X99807345Y-73345794D01*
X99807350Y-73345798D01*
X99936315Y-73439496D01*
X100011155Y-73493870D01*
X100154184Y-73566747D01*
X100235616Y-73608239D01*
X100235618Y-73608239D01*
X100235621Y-73608241D01*
X100475215Y-73686090D01*
X100724038Y-73725500D01*
X100724039Y-73725500D01*
X100975961Y-73725500D01*
X100975962Y-73725500D01*
X101224785Y-73686090D01*
X101464379Y-73608241D01*
X101688845Y-73493870D01*
X101892656Y-73345793D01*
X102070793Y-73167656D01*
X102218870Y-72963845D01*
X102333241Y-72739379D01*
X102411090Y-72499785D01*
X102450500Y-72250962D01*
X102450500Y-71999038D01*
X102411090Y-71750215D01*
X102333241Y-71510621D01*
X102333239Y-71510618D01*
X102333239Y-71510616D01*
X102291747Y-71429184D01*
X102218870Y-71286155D01*
X102199952Y-71260117D01*
X102070798Y-71082350D01*
X102070794Y-71082345D01*
X101892654Y-70904205D01*
X101892649Y-70904201D01*
X101688848Y-70756132D01*
X101688847Y-70756131D01*
X101688845Y-70756130D01*
X101618747Y-70720413D01*
X101464383Y-70641760D01*
X101224785Y-70563910D01*
X100975962Y-70524500D01*
X100724038Y-70524500D01*
X100599626Y-70544205D01*
X100475214Y-70563910D01*
X100235616Y-70641760D01*
X100011151Y-70756132D01*
X99807350Y-70904201D01*
X99807345Y-70904205D01*
X99629205Y-71082345D01*
X99629201Y-71082350D01*
X99481132Y-71286151D01*
X99366760Y-71510616D01*
X99288910Y-71750214D01*
X99249500Y-71999038D01*
X97975500Y-71999038D01*
X97975500Y-69374500D01*
X97995185Y-69307461D01*
X98047989Y-69261706D01*
X98099500Y-69250500D01*
X186850500Y-69250500D01*
X186917539Y-69270185D01*
G37*
%TD.AperFunction*%
%TD*%
M02*
